<svg xmlns="http://www.w3.org/2000/svg" xmlns:xlink="http://www.w3.org/1999/xlink" width="50" zoomAndPan="magnify" viewBox="0 0 37.5 37.499999" height="50" preserveAspectRatio="xMidYMid meet" version="1.0"><defs><clipPath id="894c968492"><path d="M 1 0 L 36.675781 0 L 36.675781 37 L 1 37 Z M 1 0 " clip-rule="nonzero"/></clipPath></defs><g clip-path="url(#894c968492)"><path fill="#207ea0" d="M 17.789062 0.00390625 C 11.914062 0.00390625 6.667969 2.773438 3.292969 7.074219 C 2.789062 7.714844 2.328125 8.390625 1.914062 9.09375 C 0.410156 11.648438 2.285156 14.875 5.253906 14.875 L 5.402344 14.875 C 6.773438 14.875 8.023438 14.136719 8.730469 12.964844 C 10.683594 9.730469 14.316406 7.621094 18.410156 7.859375 C 23.804688 8.167969 28.144531 12.59375 28.359375 17.996094 C 28.597656 24.023438 23.765625 29 17.789062 29 C 14.089844 29 10.660156 27.066406 8.746094 23.902344 C 8.023438 22.714844 6.757812 21.96875 5.367188 21.96875 C 2.304688 21.96875 0.4375 25.3125 2.023438 27.929688 C 2.410156 28.566406 2.832031 29.179688 3.292969 29.765625 C 6.769531 34.199219 12.234375 37.003906 18.328125 36.828125 C 27.964844 36.554688 35.820312 28.777344 36.191406 19.144531 C 36.59375 8.660156 28.183594 0.00390625 17.789062 0.00390625 Z M 17.789062 0.00390625 " fill-opacity="1" fill-rule="evenodd"/></g><path fill="#005ea2" d="M 9.007812 18.410156 C 9.007812 13.625 12.886719 9.746094 17.671875 9.746094 C 22.457031 9.746094 26.335938 13.625 26.335938 18.410156 C 26.335938 23.195312 22.457031 27.074219 17.671875 27.074219 C 12.886719 27.074219 9.007812 23.195312 9.007812 18.410156 Z M 9.007812 18.410156 " fill-opacity="1" fill-rule="evenodd"/></svg>