<svg xmlns="http://www.w3.org/2000/svg" xmlns:xlink="http://www.w3.org/1999/xlink" width="50" zoomAndPan="magnify" viewBox="0 0 37.5 37.499999" height="50" preserveAspectRatio="xMidYMid meet" version="1.0"><defs><clipPath id="d34982fcac"><path d="M 19 8.410156 L 37 8.410156 L 37 28.394531 L 19 28.394531 Z M 19 8.410156 " clip-rule="nonzero"/></clipPath><clipPath id="3fa03fd539"><path d="M 9 8.410156 L 23 8.410156 L 23 28.394531 L 9 28.394531 Z M 9 8.410156 " clip-rule="nonzero"/></clipPath><clipPath id="9aff33ca79"><path d="M 0 8.410156 L 14 8.410156 L 14 28.394531 L 0 28.394531 Z M 0 8.410156 " clip-rule="nonzero"/></clipPath></defs><g clip-path="url(#d34982fcac)"><path fill="#207ea0" d="M 27.136719 18.5625 Z M 27.136719 18.5625 Z M 27.136719 18.5625 Z M 27.230469 18.519531 Z M 29.316406 8.410156 L 19.414062 8.410156 L 27.136719 18.476562 L 19.367188 28.589844 L 29.273438 28.589844 L 37 18.476562 Z M 29.316406 8.410156 " fill-opacity="1" fill-rule="evenodd"/></g><g clip-path="url(#3fa03fd539)"><path fill="#207ea0" d="M 17.25 18.5625 Z M 17.25 18.5625 Z M 17.25 18.5625 Z M 17.335938 18.519531 Z M 15.15625 8.410156 L 9.523438 8.410156 L 17.25 18.476562 L 9.480469 28.589844 L 15.113281 28.589844 L 22.882812 18.476562 Z M 15.15625 8.410156 " fill-opacity="0.502" fill-rule="evenodd"/></g><g clip-path="url(#9aff33ca79)"><path fill="#207ea0" d="M 7.753906 18.5625 Z M 7.753906 18.5625 Z M 7.753906 18.5625 Z M 7.84375 18.519531 Z M 5.667969 8.410156 L 0.0507812 8.410156 L 7.753906 18.476562 L 0.00390625 28.589844 L 5.625 28.589844 L 13.367188 18.476562 Z M 5.667969 8.410156 " fill-opacity="0.251" fill-rule="evenodd"/></g></svg>