<svg xmlns="http://www.w3.org/2000/svg" xmlns:xlink="http://www.w3.org/1999/xlink" width="100" zoomAndPan="magnify" viewBox="0 0 75 37.5" height="50" preserveAspectRatio="xMidYMid meet" version="1.0"><defs><clipPath id="c8144b096f"><path d="M 0.492188 0 L 74.503906 0 L 74.503906 37.007812 L 0.492188 37.007812 Z M 0.492188 0 " clip-rule="nonzero"/></clipPath><clipPath id="2aa05a3e7e"><path d="M 7 8 L 32.039062 8 L 32.039062 31.457031 L 7 31.457031 Z M 7 8 " clip-rule="nonzero"/></clipPath><clipPath id="9b69b24187"><path d="M 7 5.550781 L 30 5.550781 L 30 30 L 7 30 Z M 7 5.550781 " clip-rule="nonzero"/></clipPath><clipPath id="7c7e03fd4d"><path d="M 37.5 11 L 54 11 L 54 27 L 37.5 27 Z M 37.5 11 " clip-rule="nonzero"/></clipPath><clipPath id="cf29cb1022"><path d="M 66 12 L 70.066406 12 L 70.066406 28 L 66 28 Z M 66 12 " clip-rule="nonzero"/></clipPath><clipPath id="018b40dade"><path d="M 38 5.550781 L 65 5.550781 L 65 31.457031 L 38 31.457031 Z M 38 5.550781 " clip-rule="nonzero"/></clipPath></defs><g clip-path="url(#c8144b096f)"><path fill="#ffffff" d="M 0.492188 0 L 74.507812 0 L 74.507812 37.007812 L 0.492188 37.007812 Z M 0.492188 0 " fill-opacity="1" fill-rule="nonzero"/><path fill="#207ea0" d="M 0.492188 0 L 74.507812 0 L 74.507812 37.007812 L 0.492188 37.007812 Z M 0.492188 0 " fill-opacity="1" fill-rule="nonzero"/></g><g clip-path="url(#2aa05a3e7e)"><path fill="#000000" d="M 31.503906 8.070312 L 30.96875 8.070312 L 30.96875 30.257812 L 7.960938 30.257812 C 8.449219 30.894531 9.214844 31.3125 10.085938 31.3125 L 31.503906 31.3125 C 31.796875 31.3125 32.039062 31.078125 32.039062 30.785156 L 32.039062 8.597656 C 32.039062 8.304688 31.796875 8.070312 31.503906 8.070312 Z M 31.503906 8.070312 " fill-opacity="1" fill-rule="nonzero"/></g><g clip-path="url(#9b69b24187)"><path fill="#000000" d="M 29.363281 5.957031 L 7.945312 5.957031 C 7.648438 5.957031 7.410156 6.191406 7.410156 6.484375 L 7.410156 28.671875 C 7.410156 28.851562 7.429688 29.03125 7.464844 29.199219 L 29.363281 29.199219 C 29.65625 29.199219 29.898438 28.964844 29.898438 28.671875 L 29.898438 6.484375 C 29.898438 6.191406 29.65625 5.957031 29.363281 5.957031 Z M 14.90625 8.597656 C 14.90625 8.304688 15.144531 8.070312 15.441406 8.070312 L 17.046875 8.070312 C 17.34375 8.070312 17.582031 8.304688 17.582031 8.597656 C 17.582031 8.890625 17.34375 9.125 17.046875 9.125 L 15.976562 9.125 L 15.976562 10.183594 L 17.046875 10.183594 C 17.34375 10.183594 17.582031 10.417969 17.582031 10.710938 C 17.582031 11.003906 17.34375 11.238281 17.046875 11.238281 L 15.976562 11.238281 L 15.976562 12.296875 L 17.046875 12.296875 C 17.34375 12.296875 17.582031 12.53125 17.582031 12.824219 C 17.582031 13.117188 17.34375 13.351562 17.046875 13.351562 L 15.441406 13.351562 C 15.144531 13.351562 14.90625 13.117188 14.90625 12.824219 Z M 9.550781 8.597656 C 9.550781 8.371094 9.699219 8.167969 9.917969 8.097656 C 10.136719 8.027344 10.378906 8.097656 10.515625 8.28125 L 12.765625 11.238281 L 12.765625 8.597656 C 12.765625 8.304688 13.003906 8.070312 13.300781 8.070312 C 13.59375 8.070312 13.835938 8.304688 13.835938 8.597656 L 13.835938 12.824219 C 13.835938 13.050781 13.6875 13.253906 13.46875 13.324219 C 13.414062 13.34375 13.355469 13.351562 13.300781 13.351562 C 13.136719 13.351562 12.972656 13.277344 12.871094 13.140625 L 10.621094 10.183594 L 10.621094 12.824219 C 10.621094 13.113281 10.382812 13.351562 10.085938 13.351562 C 9.792969 13.351562 9.550781 13.113281 9.550781 12.824219 Z M 17.046875 26.03125 L 10.621094 26.03125 C 10.328125 26.03125 10.085938 25.792969 10.085938 25.503906 C 10.085938 25.210938 10.328125 24.976562 10.621094 24.976562 L 17.046875 24.976562 C 17.34375 24.976562 17.582031 25.210938 17.582031 25.503906 C 17.582031 25.792969 17.34375 26.03125 17.046875 26.03125 Z M 17.046875 23.917969 L 10.621094 23.917969 C 10.328125 23.917969 10.085938 23.679688 10.085938 23.390625 C 10.085938 23.097656 10.328125 22.863281 10.621094 22.863281 L 17.046875 22.863281 C 17.34375 22.863281 17.582031 23.097656 17.582031 23.390625 C 17.582031 23.679688 17.34375 23.917969 17.046875 23.917969 Z M 18.117188 21.277344 C 18.117188 21.566406 17.878906 21.804688 17.582031 21.804688 L 10.085938 21.804688 C 9.792969 21.804688 9.550781 21.566406 9.550781 21.277344 L 9.550781 14.9375 C 9.550781 14.644531 9.792969 14.410156 10.085938 14.410156 L 17.582031 14.410156 C 17.878906 14.410156 18.117188 14.644531 18.117188 14.9375 Z M 19.207031 12.953125 L 18.132812 8.726562 C 18.0625 8.441406 18.238281 8.15625 18.523438 8.085938 C 18.808594 8.015625 19.101562 8.1875 19.171875 8.46875 L 19.800781 10.945312 L 20.289062 9.519531 C 20.4375 9.089844 21.15625 9.089844 21.300781 9.519531 L 21.789062 10.945312 L 22.417969 8.46875 C 22.488281 8.1875 22.777344 8.011719 23.066406 8.085938 C 23.351562 8.15625 23.527344 8.445312 23.453125 8.726562 L 22.382812 12.953125 C 22.324219 13.179688 22.125 13.351562 21.886719 13.351562 C 21.878906 13.351562 21.871094 13.351562 21.863281 13.351562 C 21.636719 13.351562 21.429688 13.207031 21.355469 12.992188 L 20.792969 11.34375 L 20.230469 12.992188 C 20.15625 13.214844 19.957031 13.355469 19.699219 13.351562 C 19.464844 13.34375 19.261719 13.179688 19.207031 12.953125 Z M 26.683594 26.03125 L 20.261719 26.03125 C 19.964844 26.03125 19.726562 25.792969 19.726562 25.503906 C 19.726562 25.210938 19.964844 24.976562 20.261719 24.976562 L 26.683594 24.976562 C 26.980469 24.976562 27.21875 25.210938 27.21875 25.503906 C 27.21875 25.792969 26.980469 26.03125 26.683594 26.03125 Z M 26.683594 23.917969 L 20.261719 23.917969 C 19.964844 23.917969 19.726562 23.679688 19.726562 23.390625 C 19.726562 23.097656 19.964844 22.863281 20.261719 22.863281 L 26.683594 22.863281 C 26.980469 22.863281 27.21875 23.097656 27.21875 23.390625 C 27.21875 23.679688 26.980469 23.917969 26.683594 23.917969 Z M 26.683594 21.804688 L 20.261719 21.804688 C 19.964844 21.804688 19.726562 21.566406 19.726562 21.277344 C 19.726562 20.984375 19.964844 20.75 20.261719 20.75 L 26.683594 20.75 C 26.980469 20.75 27.21875 20.984375 27.21875 21.277344 C 27.21875 21.566406 26.980469 21.804688 26.683594 21.804688 Z M 26.683594 19.691406 L 20.261719 19.691406 C 19.964844 19.691406 19.726562 19.453125 19.726562 19.164062 C 19.726562 18.871094 19.964844 18.636719 20.261719 18.636719 L 26.683594 18.636719 C 26.980469 18.636719 27.21875 18.871094 27.21875 19.164062 C 27.21875 19.453125 26.980469 19.691406 26.683594 19.691406 Z M 26.683594 17.578125 L 20.261719 17.578125 C 19.964844 17.578125 19.726562 17.34375 19.726562 17.050781 C 19.726562 16.757812 19.964844 16.523438 20.261719 16.523438 L 26.683594 16.523438 C 26.980469 16.523438 27.21875 16.757812 27.21875 17.050781 C 27.21875 17.34375 26.980469 17.578125 26.683594 17.578125 Z M 26.683594 15.464844 L 20.261719 15.464844 C 19.964844 15.464844 19.726562 15.230469 19.726562 14.9375 C 19.726562 14.644531 19.964844 14.410156 20.261719 14.410156 L 26.683594 14.410156 C 26.980469 14.410156 27.21875 14.644531 27.21875 14.9375 C 27.21875 15.230469 26.980469 15.464844 26.683594 15.464844 Z M 27.757812 12.289062 C 27.757812 12.875 27.273438 13.351562 26.679688 13.351562 L 25.078125 13.351562 C 24.785156 13.351562 24.542969 13.117188 24.542969 12.824219 C 24.542969 12.53125 24.785156 12.296875 25.078125 12.296875 L 26.679688 12.296875 L 26.683594 11.59375 C 26.683594 11.398438 26.527344 11.238281 26.328125 11.238281 L 25.972656 11.238281 C 25.183594 11.238281 24.542969 10.609375 24.542969 9.832031 L 24.542969 9.457031 C 24.542969 8.691406 25.175781 8.070312 25.949219 8.070312 L 27.175781 8.070312 C 27.472656 8.070312 27.710938 8.304688 27.710938 8.597656 C 27.710938 8.890625 27.472656 9.125 27.175781 9.125 L 25.949219 9.125 C 25.765625 9.125 25.613281 9.273438 25.613281 9.457031 L 25.613281 9.832031 C 25.613281 10.027344 25.773438 10.183594 25.972656 10.183594 L 26.328125 10.183594 C 27.117188 10.183594 27.757812 10.816406 27.757812 11.59375 Z M 27.757812 12.289062 " fill-opacity="1" fill-rule="nonzero"/></g><path fill="#000000" d="M 10.621094 15.464844 L 17.046875 15.464844 L 17.046875 20.75 L 10.621094 20.75 Z M 10.621094 15.464844 " fill-opacity="1" fill-rule="nonzero"/><g clip-path="url(#7c7e03fd4d)"><path fill="#100f0d" d="M 40.90625 26.042969 C 40.941406 26.023438 40.984375 26.003906 41.015625 25.980469 C 41.082031 25.933594 41.167969 25.84375 41.25 25.761719 C 41.777344 25.191406 42.730469 23.6875 44.082031 20.867188 C 44.121094 20.785156 44.175781 20.710938 44.238281 20.644531 L 45.175781 19.714844 L 53.648438 11.308594 C 52.851562 11.160156 52.128906 11.070312 51.539062 11.070312 C 51.515625 11.070312 51.492188 11.070312 51.46875 11.070312 C 47.71875 11.117188 41.671875 16.902344 41.089844 17.792969 C 40.644531 18.480469 38.050781 24.953125 37.496094 26.734375 C 37.890625 26.839844 38.804688 26.761719 39.65625 26.542969 C 40.164062 26.402344 40.609375 26.226562 40.90625 26.042969 " fill-opacity="1" fill-rule="nonzero"/></g><path fill="#100f0d" d="M 55.382812 19.433594 C 55.160156 19.8125 54.304688 21.144531 52.734375 22.054688 C 52.675781 22.113281 52.605469 22.164062 52.53125 22.199219 C 52.339844 22.289062 52.167969 22.347656 51.992188 22.421875 C 51.917969 22.453125 51.847656 22.480469 51.769531 22.511719 C 51.425781 22.636719 51.089844 22.742188 50.757812 22.804688 C 48.167969 23.304688 46.210938 24.917969 46.398438 26.402344 C 46.410156 26.488281 46.558594 26.574219 46.644531 26.617188 C 46.699219 26.640625 46.730469 26.6875 46.773438 26.722656 C 47.390625 26.945312 48.933594 27.058594 52.617188 26.671875 C 53.304688 26.601562 53.882812 26.542969 54.246094 26.53125 C 59.277344 26.40625 63.871094 25.199219 65.417969 24.75 L 65.417969 15.023438 C 64.671875 14.730469 63.148438 14.144531 61.34375 13.515625 L 55.382812 19.433594 " fill-opacity="1" fill-rule="nonzero"/><g clip-path="url(#cf29cb1022)"><path fill="#100f0d" d="M 66.785156 12.589844 L 66.785156 27.730469 L 70.066406 27.730469 L 70.066406 12.589844 L 66.785156 12.589844 " fill-opacity="1" fill-rule="nonzero"/></g><g clip-path="url(#018b40dade)"><path fill="#100f0d" d="M 50.453125 21.238281 C 50.847656 21.160156 51.253906 21.027344 51.714844 20.816406 L 63.660156 8.960938 C 64.398438 8.226562 64.398438 7.027344 63.660156 6.292969 C 62.917969 5.558594 61.710938 5.558594 60.972656 6.292969 L 51.984375 15.210938 L 49.058594 18.117188 L 45.472656 21.675781 C 43.957031 24.824219 42.769531 26.710938 41.9375 27.289062 C 41.445312 27.632812 40.671875 27.945312 39.816406 28.148438 L 38.324219 31.441406 L 43.210938 29.257812 L 45.105469 27.375 C 44.914062 27.105469 44.832031 26.832031 44.804688 26.601562 C 44.464844 23.890625 47.460938 21.8125 50.453125 21.238281 " fill-opacity="1" fill-rule="nonzero"/></g></svg>