<svg xmlns="http://www.w3.org/2000/svg" xmlns:xlink="http://www.w3.org/1999/xlink" width="75" zoomAndPan="magnify" viewBox="0 0 56.25 56.249997" height="75" preserveAspectRatio="xMidYMid meet" version="1.0"><defs><clipPath id="48d15b0e7c"><path d="M 23 36 L 30 36 L 30 49.957031 L 23 49.957031 Z M 23 36 " clip-rule="nonzero"/></clipPath><clipPath id="3356be1869"><path d="M 28 36 L 34 36 L 34 49.957031 L 28 49.957031 Z M 28 36 " clip-rule="nonzero"/></clipPath><clipPath id="2054853454"><path d="M 9 48 L 48.199219 48 L 48.199219 49.957031 L 9 49.957031 Z M 9 48 " clip-rule="nonzero"/></clipPath><clipPath id="08fb70e469"><path d="M 7.492188 7 L 20 7 L 20 28 L 7.492188 28 Z M 7.492188 7 " clip-rule="nonzero"/></clipPath><clipPath id="032d95c5d1"><path d="M 36 5.550781 L 48 5.550781 L 48 28 L 36 28 Z M 36 5.550781 " clip-rule="nonzero"/></clipPath><clipPath id="a19a112ac8"><path d="M 14 38 L 20 38 L 20 49.957031 L 14 49.957031 Z M 14 38 " clip-rule="nonzero"/></clipPath><clipPath id="941583ccfe"><path d="M 17 38 L 23 38 L 23 49.957031 L 17 49.957031 Z M 17 38 " clip-rule="nonzero"/></clipPath><clipPath id="faf2498f7f"><path d="M 34 38 L 40 38 L 40 49.957031 L 34 49.957031 Z M 34 38 " clip-rule="nonzero"/></clipPath><clipPath id="7cb2b99af0"><path d="M 38 38 L 43 38 L 43 49.957031 L 38 49.957031 Z M 38 38 " clip-rule="nonzero"/></clipPath></defs><path fill="#207ea2" d="M 28.640625 24.152344 C 26.128906 24.152344 24.085938 22.109375 24.085938 19.597656 C 24.085938 17.085938 26.128906 15.042969 28.640625 15.042969 C 31.148438 15.042969 33.191406 17.085938 33.191406 19.597656 C 33.191406 22.109375 31.148438 24.152344 28.640625 24.152344 Z M 28.640625 16.253906 C 26.796875 16.253906 25.296875 17.753906 25.296875 19.597656 C 25.296875 21.441406 26.796875 22.941406 28.640625 22.941406 C 30.484375 22.941406 31.984375 21.441406 31.984375 19.597656 C 31.984375 17.753906 30.484375 16.253906 28.640625 16.253906 Z M 28.640625 16.253906 " fill-opacity="1" fill-rule="nonzero"/><g clip-path="url(#48d15b0e7c)"><path fill="#207ea2" d="M 26.476562 49.957031 C 24.953125 49.957031 23.710938 48.714844 23.710938 47.191406 L 23.710938 36.90625 C 23.710938 36.574219 23.980469 36.300781 24.316406 36.300781 C 24.648438 36.300781 24.917969 36.574219 24.917969 36.90625 L 24.917969 47.191406 C 24.917969 48.050781 25.617188 48.746094 26.476562 48.746094 C 27.335938 48.746094 28.035156 48.050781 28.035156 47.191406 L 28.035156 38.566406 C 28.035156 38.230469 28.304688 37.960938 28.640625 37.960938 C 28.972656 37.960938 29.242188 38.230469 29.242188 38.566406 L 29.242188 47.191406 C 29.242188 48.714844 28.003906 49.957031 26.476562 49.957031 Z M 26.476562 49.957031 " fill-opacity="1" fill-rule="nonzero"/></g><path fill="#207ea2" d="M 34.972656 39.519531 C 33.53125 39.519531 32.359375 38.347656 32.359375 36.90625 L 32.359375 29.269531 C 32.359375 28.933594 32.628906 28.664062 32.964844 28.664062 C 33.296875 28.664062 33.566406 28.933594 33.566406 29.269531 L 33.566406 36.90625 C 33.566406 37.683594 34.199219 38.3125 34.972656 38.3125 C 35.746094 38.3125 36.375 37.679688 36.375 36.90625 L 36.375 29.359375 C 36.375 27.320312 34.71875 25.664062 32.679688 25.664062 L 24.601562 25.664062 C 22.5625 25.664062 20.902344 27.320312 20.902344 29.359375 L 20.902344 36.90625 C 20.902344 37.683594 21.53125 38.3125 22.304688 38.3125 C 23.082031 38.3125 23.710938 37.679688 23.710938 36.90625 L 23.710938 29.269531 C 23.710938 28.933594 23.980469 28.664062 24.316406 28.664062 C 24.648438 28.664062 24.917969 28.933594 24.917969 29.269531 L 24.917969 36.90625 C 24.917969 38.347656 23.746094 39.519531 22.304688 39.519531 C 20.863281 39.519531 19.691406 38.347656 19.691406 36.90625 L 19.691406 29.359375 C 19.691406 26.65625 21.894531 24.453125 24.597656 24.453125 L 32.679688 24.453125 C 35.382812 24.453125 37.585938 26.65625 37.585938 29.359375 L 37.585938 36.90625 C 37.585938 38.347656 36.414062 39.519531 34.972656 39.519531 Z M 34.972656 39.519531 " fill-opacity="1" fill-rule="nonzero"/><g clip-path="url(#3356be1869)"><path fill="#207ea2" d="M 30.800781 49.957031 C 29.277344 49.957031 28.035156 48.714844 28.035156 47.191406 L 28.035156 38.566406 C 28.035156 38.230469 28.304688 37.960938 28.640625 37.960938 C 28.972656 37.960938 29.242188 38.230469 29.242188 38.566406 L 29.242188 47.191406 C 29.242188 48.050781 29.941406 48.746094 30.800781 48.746094 C 31.660156 48.746094 32.359375 48.050781 32.359375 47.191406 L 32.359375 36.90625 C 32.359375 36.574219 32.628906 36.300781 32.964844 36.300781 C 33.296875 36.300781 33.570312 36.574219 33.570312 36.90625 L 33.570312 47.191406 C 33.570312 48.714844 32.328125 49.957031 30.800781 49.957031 Z M 30.800781 49.957031 " fill-opacity="1" fill-rule="nonzero"/></g><g clip-path="url(#2054853454)"><path fill="#207ea2" d="M 47.40625 49.957031 L 10.070312 49.957031 C 9.738281 49.957031 9.464844 49.6875 9.464844 49.351562 C 9.464844 49.019531 9.738281 48.75 10.070312 48.75 L 47.40625 48.75 C 47.738281 48.75 48.007812 49.019531 48.007812 49.351562 C 48.007812 49.6875 47.738281 49.957031 47.40625 49.957031 Z M 47.40625 49.957031 " fill-opacity="1" fill-rule="nonzero"/></g><g clip-path="url(#08fb70e469)"><path fill="#207ea2" d="M 12.496094 27.804688 C 12.160156 27.804688 11.890625 27.53125 11.890625 27.199219 L 11.890625 17.136719 L 8.359375 17.136719 C 8.050781 17.136719 7.773438 16.964844 7.636719 16.6875 C 7.5 16.414062 7.53125 16.089844 7.714844 15.84375 L 13.921875 7.660156 C 14.066406 7.472656 14.285156 7.355469 14.519531 7.34375 C 14.757812 7.335938 14.984375 7.421875 15.148438 7.597656 L 19.019531 11.691406 C 19.25 11.933594 19.238281 12.316406 18.996094 12.546875 C 18.753906 12.773438 18.371094 12.765625 18.140625 12.519531 L 14.597656 8.773438 L 9.171875 15.925781 L 12.292969 15.925781 C 12.738281 15.925781 13.097656 16.285156 13.097656 16.730469 L 13.097656 27.199219 C 13.097656 27.53125 12.828125 27.804688 12.496094 27.804688 Z M 12.496094 27.804688 " fill-opacity="1" fill-rule="nonzero"/></g><g clip-path="url(#032d95c5d1)"><path fill="#207ea2" d="M 43.996094 27.042969 L 41.632812 27.042969 C 41.300781 27.042969 41.027344 26.773438 41.027344 26.4375 C 41.027344 26.105469 41.300781 25.835938 41.632812 25.835938 L 43.445312 25.835938 L 43.445312 12.722656 C 43.445312 12.359375 43.742188 12.0625 44.105469 12.0625 L 45.988281 12.0625 L 42.007812 7.136719 L 38.597656 12.0625 L 39.109375 12.0625 C 39.445312 12.0625 39.714844 12.332031 39.714844 12.667969 C 39.714844 13 39.441406 13.269531 39.109375 13.269531 L 37.550781 13.269531 C 37.304688 13.269531 37.078125 13.136719 36.964844 12.917969 C 36.851562 12.699219 36.867188 12.4375 37.007812 12.234375 L 41.429688 5.84375 C 41.546875 5.671875 41.742188 5.566406 41.949219 5.558594 C 42.160156 5.550781 42.359375 5.644531 42.488281 5.804688 L 47.652344 12.195312 C 47.808594 12.394531 47.84375 12.667969 47.734375 12.894531 C 47.625 13.125 47.390625 13.269531 47.136719 13.269531 L 44.65625 13.269531 L 44.65625 26.382812 C 44.65625 26.746094 44.359375 27.042969 43.996094 27.042969 Z M 38.003906 12.921875 L 38.003906 12.925781 C 38.003906 12.921875 38.003906 12.921875 38.003906 12.921875 Z M 41.546875 6.5625 C 41.546875 6.566406 41.546875 6.566406 41.546875 6.566406 Z M 42.425781 6.53125 Z M 42.425781 6.53125 " fill-opacity="1" fill-rule="nonzero"/></g><path fill="#207ea2" d="M 17.519531 19.011719 C 17.183594 19.011719 16.914062 18.742188 16.914062 18.40625 L 16.914062 16.640625 C 16.914062 16.230469 17.246094 15.898438 17.65625 15.898438 L 19.171875 15.898438 C 19.503906 15.898438 19.773438 16.167969 19.773438 16.503906 C 19.773438 16.835938 19.503906 17.105469 19.171875 17.105469 L 18.125 17.105469 L 18.125 18.40625 C 18.121094 18.742188 17.851562 19.011719 17.519531 19.011719 Z M 17.519531 19.011719 " fill-opacity="1" fill-rule="nonzero"/><path fill="#207ea2" d="M 18.496094 28.476562 C 16.351562 28.476562 14.605469 26.730469 14.605469 24.585938 C 14.605469 22.4375 16.351562 20.695312 18.496094 20.695312 C 20.644531 20.695312 22.390625 22.4375 22.390625 24.585938 C 22.390625 26.730469 20.644531 28.476562 18.496094 28.476562 Z M 18.496094 21.902344 C 17.019531 21.902344 15.816406 23.105469 15.816406 24.585938 C 15.816406 26.0625 17.019531 27.265625 18.496094 27.265625 C 19.976562 27.265625 21.179688 26.0625 21.179688 24.585938 C 21.179688 23.105469 19.976562 21.902344 18.496094 21.902344 Z M 18.496094 21.902344 " fill-opacity="1" fill-rule="nonzero"/><g clip-path="url(#a19a112ac8)"><path fill="#207ea2" d="M 16.699219 49.957031 C 15.371094 49.957031 14.292969 48.878906 14.292969 47.554688 L 14.292969 38.992188 C 14.292969 38.660156 14.5625 38.390625 14.898438 38.390625 C 15.230469 38.390625 15.503906 38.660156 15.503906 38.992188 L 15.503906 47.554688 C 15.503906 48.210938 16.039062 48.746094 16.699219 48.746094 C 17.355469 48.746094 17.894531 48.210938 17.894531 47.554688 L 17.894531 40.375 C 17.894531 40.039062 18.164062 39.769531 18.496094 39.769531 C 18.832031 39.769531 19.101562 40.039062 19.101562 40.375 L 19.101562 47.554688 C 19.101562 48.878906 18.023438 49.957031 16.699219 49.957031 Z M 16.699219 49.957031 " fill-opacity="1" fill-rule="nonzero"/></g><path fill="#207ea2" d="M 13.226562 41.269531 C 11.972656 41.269531 10.949219 40.25 10.949219 38.992188 L 10.949219 32.714844 C 10.949219 30.40625 12.828125 28.527344 15.136719 28.527344 L 20.304688 28.527344 C 20.640625 28.527344 20.910156 28.796875 20.910156 29.132812 C 20.910156 29.464844 20.640625 29.734375 20.304688 29.734375 L 15.136719 29.734375 C 13.492188 29.734375 12.15625 31.070312 12.15625 32.714844 L 12.15625 38.992188 C 12.15625 39.582031 12.636719 40.0625 13.226562 40.0625 C 13.511719 40.0625 13.777344 39.949219 13.980469 39.75 C 14.179688 39.546875 14.292969 39.277344 14.292969 38.992188 L 14.292969 32.636719 C 14.292969 32.300781 14.5625 32.03125 14.898438 32.03125 C 15.230469 32.03125 15.5 32.300781 15.5 32.636719 L 15.5 38.992188 C 15.5 39.597656 15.265625 40.167969 14.835938 40.601562 C 14.40625 41.035156 13.835938 41.269531 13.226562 41.269531 Z M 13.226562 41.269531 " fill-opacity="1" fill-rule="nonzero"/><path fill="#207ea2" d="M 22.097656 39.597656 C 21.761719 39.597656 21.492188 39.328125 21.492188 38.992188 L 21.492188 38.90625 C 21.492188 38.570312 21.761719 38.300781 22.097656 38.300781 C 22.429688 38.300781 22.703125 38.570312 22.703125 38.90625 L 22.703125 38.992188 C 22.703125 39.328125 22.429688 39.597656 22.097656 39.597656 Z M 22.097656 39.597656 " fill-opacity="1" fill-rule="nonzero"/><g clip-path="url(#941583ccfe)"><path fill="#207ea2" d="M 20.296875 49.957031 C 18.972656 49.957031 17.894531 48.878906 17.894531 47.554688 L 17.894531 40.375 C 17.894531 40.039062 18.164062 39.769531 18.496094 39.769531 C 18.832031 39.769531 19.101562 40.039062 19.101562 40.375 L 19.101562 47.554688 C 19.101562 48.210938 19.636719 48.746094 20.296875 48.746094 C 20.957031 48.746094 21.492188 48.210938 21.492188 47.554688 L 21.492188 38.992188 C 21.492188 38.660156 21.761719 38.390625 22.097656 38.390625 C 22.429688 38.390625 22.703125 38.660156 22.703125 38.992188 L 22.703125 47.554688 C 22.703125 48.878906 21.625 49.957031 20.296875 49.957031 Z M 20.296875 49.957031 " fill-opacity="1" fill-rule="nonzero"/></g><path fill="#207ea2" d="M 38.746094 28.476562 C 36.597656 28.476562 34.851562 26.730469 34.851562 24.585938 C 34.851562 22.4375 36.597656 20.695312 38.746094 20.695312 C 40.890625 20.695312 42.636719 22.4375 42.636719 24.585938 C 42.636719 26.730469 40.890625 28.476562 38.746094 28.476562 Z M 38.746094 21.902344 C 37.265625 21.902344 36.0625 23.105469 36.0625 24.585938 C 36.0625 26.0625 37.265625 27.265625 38.746094 27.265625 C 40.222656 27.265625 41.425781 26.0625 41.425781 24.585938 C 41.425781 23.105469 40.222656 21.902344 38.746094 21.902344 Z M 38.746094 21.902344 " fill-opacity="1" fill-rule="nonzero"/><g clip-path="url(#faf2498f7f)"><path fill="#207ea2" d="M 36.945312 49.957031 C 35.617188 49.957031 34.539062 48.878906 34.539062 47.554688 L 34.539062 38.992188 C 34.539062 38.660156 34.8125 38.390625 35.144531 38.390625 C 35.480469 38.390625 35.75 38.660156 35.75 38.992188 L 35.75 47.554688 C 35.75 48.210938 36.285156 48.746094 36.945312 48.746094 C 37.605469 48.746094 38.140625 48.210938 38.140625 47.554688 L 38.140625 40.375 C 38.140625 40.039062 38.410156 39.769531 38.746094 39.769531 C 39.078125 39.769531 39.347656 40.039062 39.347656 40.375 L 39.347656 47.554688 C 39.351562 48.878906 38.269531 49.957031 36.945312 49.957031 Z M 36.945312 49.957031 " fill-opacity="1" fill-rule="nonzero"/></g><path fill="#207ea2" d="M 44.015625 41.269531 C 42.761719 41.269531 41.738281 40.25 41.738281 38.992188 L 41.738281 32.636719 C 41.738281 32.300781 42.007812 32.03125 42.34375 32.03125 C 42.675781 32.03125 42.949219 32.300781 42.949219 32.636719 L 42.949219 38.992188 C 42.949219 39.582031 43.425781 40.0625 44.015625 40.0625 C 44.304688 40.0625 44.570312 39.949219 44.769531 39.75 C 44.972656 39.546875 45.082031 39.28125 45.082031 38.992188 L 45.082031 32.714844 C 45.082031 31.070312 43.746094 29.734375 42.105469 29.734375 L 36.976562 29.734375 C 36.640625 29.734375 36.371094 29.464844 36.371094 29.132812 C 36.371094 28.796875 36.640625 28.527344 36.976562 28.527344 L 42.105469 28.527344 C 44.414062 28.527344 46.292969 30.40625 46.292969 32.714844 L 46.292969 38.992188 C 46.292969 39.601562 46.054688 40.175781 45.625 40.605469 C 45.199219 41.035156 44.628906 41.269531 44.015625 41.269531 Z M 44.015625 41.269531 " fill-opacity="1" fill-rule="nonzero"/><path fill="#207ea2" d="M 35.148438 39.597656 C 34.8125 39.597656 34.542969 39.328125 34.542969 38.992188 L 34.542969 38.90625 C 34.542969 38.570312 34.8125 38.300781 35.148438 38.300781 C 35.480469 38.300781 35.75 38.570312 35.75 38.90625 L 35.75 38.992188 C 35.75 39.328125 35.480469 39.597656 35.148438 39.597656 Z M 35.148438 39.597656 " fill-opacity="1" fill-rule="nonzero"/><g clip-path="url(#7cb2b99af0)"><path fill="#207ea2" d="M 40.542969 49.957031 C 39.21875 49.957031 38.140625 48.878906 38.140625 47.554688 L 38.140625 40.375 C 38.140625 40.039062 38.410156 39.769531 38.746094 39.769531 C 39.078125 39.769531 39.347656 40.039062 39.347656 40.375 L 39.347656 47.554688 C 39.347656 48.210938 39.886719 48.746094 40.542969 48.746094 C 41.203125 48.746094 41.738281 48.210938 41.738281 47.554688 L 41.738281 38.992188 C 41.738281 38.660156 42.011719 38.390625 42.34375 38.390625 C 42.675781 38.390625 42.949219 38.660156 42.949219 38.992188 L 42.949219 47.554688 C 42.949219 48.878906 41.871094 49.957031 40.542969 49.957031 Z M 40.542969 49.957031 " fill-opacity="1" fill-rule="nonzero"/></g><path fill="#207ea2" d="M 28.636719 13.066406 C 28.429688 13.066406 28.238281 12.988281 28.089844 12.839844 L 25.59375 10.34375 C 25.136719 9.886719 24.894531 9.257812 24.921875 8.613281 C 24.953125 7.96875 25.257812 7.363281 25.757812 6.949219 C 26.570312 6.28125 27.773438 6.289062 28.625 6.929688 C 29.0625 6.570312 29.621094 6.382812 30.1875 6.410156 C 30.832031 6.441406 31.4375 6.746094 31.851562 7.246094 C 32.59375 8.144531 32.503906 9.515625 31.648438 10.371094 L 29.179688 12.839844 C 29.035156 12.988281 28.839844 13.066406 28.636719 13.066406 Z M 28.324219 11.984375 C 28.324219 11.988281 28.324219 11.988281 28.324219 11.988281 Z M 28.945312 11.984375 L 28.949219 11.988281 C 28.945312 11.984375 28.945312 11.984375 28.945312 11.984375 Z M 27.1875 7.652344 C 26.949219 7.652344 26.714844 7.730469 26.527344 7.882812 C 26.289062 8.082031 26.144531 8.363281 26.132812 8.667969 C 26.117188 8.972656 26.234375 9.273438 26.449219 9.488281 L 28.636719 11.675781 L 30.792969 9.515625 C 31.210938 9.097656 31.265625 8.4375 30.917969 8.015625 C 30.71875 7.773438 30.441406 7.632812 30.132812 7.617188 C 29.824219 7.601562 29.53125 7.71875 29.316406 7.933594 L 28.636719 8.613281 L 28.03125 8.007812 C 27.796875 7.773438 27.488281 7.652344 27.1875 7.652344 Z M 27.1875 7.652344 " fill-opacity="1" fill-rule="nonzero"/></svg>