<svg xmlns="http://www.w3.org/2000/svg" xmlns:xlink="http://www.w3.org/1999/xlink" width="75" zoomAndPan="magnify" viewBox="0 0 56.25 56.249997" height="75" preserveAspectRatio="xMidYMid meet" version="1.0"><defs><clipPath id="20d732539e"><path d="M 27 11.074219 L 49.957031 11.074219 L 49.957031 37 L 27 37 Z M 27 11.074219 " clip-rule="nonzero"/></clipPath><clipPath id="de47c1a538"><path d="M 5.550781 38.730469 L 13 38.730469 L 13 44.378906 L 5.550781 44.378906 Z M 5.550781 38.730469 " clip-rule="nonzero"/></clipPath><clipPath id="8fdf444033"><path d="M 20.15625 38.730469 L 27.65625 38.730469 L 27.65625 44.378906 L 20.15625 44.378906 Z M 20.15625 38.730469 " clip-rule="nonzero"/></clipPath></defs><path fill="#207ea2" d="M 10.003906 38.523438 L 10.003906 33.996094 C 10.003906 33.09375 10.648438 32.304688 11.535156 32.128906 L 12.527344 31.929688 C 12.894531 31.855469 13.242188 31.726562 13.558594 31.550781 L 14.625 32.742188 L 13.726562 37.652344 C 13.703125 37.777344 13.71875 37.90625 13.765625 38.023438 L 14.398438 39.558594 L 11.042969 39.558594 C 10.46875 39.558594 10.003906 39.09375 10.003906 38.523438 Z M 16.589844 29.820312 C 17.066406 29.820312 17.527344 29.738281 17.957031 29.589844 L 18.042969 29.796875 C 18.183594 30.132812 18.375 30.441406 18.601562 30.714844 L 17.554688 31.882812 L 15.625 31.882812 L 14.578125 30.714844 C 14.804688 30.441406 14.996094 30.132812 15.136719 29.796875 L 15.222656 29.589844 C 15.652344 29.738281 16.109375 29.820312 16.589844 29.820312 Z M 13.714844 24.386719 C 13.714844 22.800781 15.003906 21.511719 16.589844 21.511719 C 18.175781 21.511719 19.464844 22.800781 19.464844 24.386719 L 19.464844 25.628906 C 19.464844 27.214844 18.175781 28.503906 16.589844 28.503906 C 15.003906 28.503906 13.714844 27.214844 13.714844 25.628906 Z M 15.820312 39.558594 L 15.058594 37.699219 L 15.878906 33.199219 L 17.300781 33.199219 L 18.121094 37.699219 L 17.359375 39.558594 Z M 21.644531 32.128906 C 22.53125 32.304688 23.175781 33.089844 23.175781 33.996094 L 23.175781 38.523438 C 23.175781 39.09375 22.710938 39.558594 22.136719 39.558594 L 18.78125 39.558594 L 19.414062 38.023438 C 19.460938 37.90625 19.476562 37.777344 19.453125 37.652344 L 18.554688 32.742188 L 19.621094 31.550781 C 19.9375 31.726562 20.285156 31.855469 20.652344 31.929688 Z M 24.492188 38.523438 L 24.492188 33.996094 C 24.492188 32.464844 23.402344 31.136719 21.902344 30.835938 L 20.910156 30.640625 C 20.167969 30.492188 19.550781 29.984375 19.257812 29.289062 L 19.125 28.96875 C 20.132812 28.199219 20.78125 26.988281 20.78125 25.628906 L 20.78125 24.386719 C 20.78125 22.078125 18.902344 20.195312 16.589844 20.195312 C 14.277344 20.195312 12.394531 22.078125 12.394531 24.386719 L 12.394531 25.628906 C 12.394531 26.988281 13.046875 28.199219 14.054688 28.96875 L 13.921875 29.289062 C 13.628906 29.984375 13.011719 30.492188 12.269531 30.640625 L 11.277344 30.835938 C 9.777344 31.136719 8.6875 32.464844 8.6875 33.996094 L 8.6875 38.523438 C 8.6875 39.820312 9.742188 40.878906 11.042969 40.878906 L 22.136719 40.878906 C 23.4375 40.878906 24.492188 39.820312 24.492188 38.523438 " fill-opacity="1" fill-rule="nonzero"/><g clip-path="url(#20d732539e)"><path fill="#207ea2" d="M 29.015625 21.363281 L 29.015625 20.125 C 29.015625 18.539062 30.304688 17.25 31.890625 17.25 C 33.476562 17.25 34.765625 18.539062 34.765625 20.125 L 34.765625 21.363281 C 34.765625 22.949219 33.476562 24.238281 31.890625 24.238281 C 30.304688 24.238281 29.015625 22.949219 29.015625 21.363281 Z M 39.179688 16.53125 L 39.179688 15.292969 C 39.179688 13.707031 40.46875 12.414062 42.054688 12.414062 C 43.640625 12.414062 44.929688 13.707031 44.929688 15.292969 L 44.929688 16.53125 C 44.929688 18.117188 43.640625 19.40625 42.054688 19.40625 C 40.46875 19.40625 39.179688 18.117188 39.179688 16.53125 Z M 47.367188 21.738281 L 46.375 21.539062 C 45.632812 21.390625 45.015625 20.886719 44.722656 20.191406 L 44.589844 19.867188 C 45.597656 19.101562 46.25 17.890625 46.25 16.53125 L 46.25 15.292969 C 46.25 12.980469 44.367188 11.097656 42.054688 11.097656 C 39.742188 11.097656 37.863281 12.980469 37.863281 15.292969 L 37.863281 16.53125 C 37.863281 17.890625 38.515625 19.101562 39.523438 19.867188 L 39.386719 20.1875 C 39.09375 20.886719 38.476562 21.390625 37.734375 21.539062 C 37.378906 21.613281 37.144531 21.957031 37.21875 22.316406 C 37.28125 22.628906 37.554688 22.84375 37.863281 22.84375 C 37.90625 22.84375 37.949219 22.839844 37.992188 22.832031 C 39.164062 22.597656 40.140625 21.800781 40.601562 20.699219 L 40.6875 20.492188 C 41.117188 20.640625 41.578125 20.722656 42.054688 20.722656 C 42.535156 20.722656 42.992188 20.640625 43.421875 20.492188 L 43.507812 20.699219 C 43.972656 21.800781 44.945312 22.597656 46.117188 22.832031 L 47.109375 23.03125 C 47.996094 23.207031 48.640625 23.992188 48.640625 24.898438 L 48.640625 29.425781 C 48.640625 29.996094 48.175781 30.460938 47.605469 30.460938 L 39.792969 30.460938 L 39.792969 29.734375 C 39.792969 28.203125 38.703125 26.875 37.203125 26.574219 L 36.210938 26.375 C 35.46875 26.226562 34.851562 25.722656 34.558594 25.023438 L 34.421875 24.703125 C 35.429688 23.9375 36.082031 22.726562 36.082031 21.363281 L 36.082031 20.125 C 36.082031 17.8125 34.203125 15.933594 31.890625 15.933594 C 29.578125 15.933594 27.695312 17.8125 27.695312 20.125 L 27.695312 21.363281 C 27.695312 22.726562 28.347656 23.9375 29.355469 24.703125 L 29.222656 25.023438 C 28.929688 25.722656 28.3125 26.226562 27.566406 26.375 C 27.210938 26.449219 26.980469 26.796875 27.050781 27.152344 C 27.113281 27.464844 27.390625 27.679688 27.695312 27.679688 C 27.738281 27.679688 27.785156 27.675781 27.828125 27.667969 C 29 27.433594 29.972656 26.632812 30.4375 25.53125 L 30.523438 25.328125 C 30.953125 25.476562 31.410156 25.558594 31.890625 25.558594 C 32.371094 25.558594 32.828125 25.476562 33.257812 25.328125 L 33.34375 25.535156 C 33.804688 26.632812 34.78125 27.433594 35.953125 27.667969 L 36.945312 27.863281 C 37.832031 28.042969 38.476562 28.828125 38.476562 29.734375 L 38.476562 34.257812 C 38.476562 34.832031 38.011719 35.296875 37.4375 35.296875 L 28.96875 35.296875 C 28.605469 35.296875 28.3125 35.589844 28.3125 35.953125 C 28.3125 36.320312 28.605469 36.613281 28.96875 36.613281 L 37.4375 36.613281 C 38.738281 36.613281 39.792969 35.558594 39.792969 34.257812 L 39.792969 31.78125 L 47.605469 31.78125 C 48.902344 31.78125 49.957031 30.722656 49.957031 29.425781 L 49.957031 24.898438 C 49.957031 23.367188 48.867188 22.039062 47.367188 21.738281 " fill-opacity="1" fill-rule="nonzero"/></g><path fill="#207ea2" d="M 8.679688 24.316406 C 9.042969 24.316406 9.339844 24.023438 9.339844 23.660156 L 9.339844 18.433594 L 13.015625 18.433594 C 13.382812 18.433594 13.675781 18.136719 13.675781 17.773438 C 13.675781 17.410156 13.382812 17.117188 13.015625 17.117188 L 8.679688 17.117188 C 8.316406 17.117188 8.019531 17.410156 8.019531 17.773438 L 8.019531 23.660156 C 8.019531 24.023438 8.316406 24.316406 8.679688 24.316406 " fill-opacity="1" fill-rule="nonzero"/><g clip-path="url(#de47c1a538)"><path fill="#207ea2" d="M 12.320312 43.089844 L 6.867188 43.089844 L 6.867188 39.410156 C 6.867188 39.046875 6.574219 38.75 6.210938 38.75 C 5.847656 38.75 5.550781 39.046875 5.550781 39.410156 L 5.550781 43.75 C 5.550781 44.113281 5.847656 44.40625 6.210938 44.40625 L 12.320312 44.40625 C 12.683594 44.40625 12.976562 44.113281 12.976562 43.75 C 12.976562 43.382812 12.683594 43.089844 12.320312 43.089844 " fill-opacity="1" fill-rule="nonzero"/></g><g clip-path="url(#8fdf444033)"><path fill="#207ea2" d="M 26.96875 38.75 C 26.605469 38.75 26.308594 39.046875 26.308594 39.410156 L 26.308594 43.089844 L 20.859375 43.089844 C 20.496094 43.089844 20.203125 43.382812 20.203125 43.75 C 20.203125 44.113281 20.496094 44.40625 20.859375 44.40625 L 26.96875 44.40625 C 27.332031 44.40625 27.628906 44.113281 27.628906 43.75 L 27.628906 39.410156 C 27.628906 39.046875 27.332031 38.75 26.96875 38.75 " fill-opacity="1" fill-rule="nonzero"/></g><path fill="#207ea2" d="M 20.160156 18.433594 L 23.839844 18.433594 L 23.839844 23.660156 C 23.839844 24.023438 24.136719 24.316406 24.5 24.316406 C 24.863281 24.316406 25.160156 24.023438 25.160156 23.660156 L 25.160156 17.773438 C 25.160156 17.410156 24.863281 17.117188 24.5 17.117188 L 20.160156 17.117188 C 19.796875 17.117188 19.503906 17.410156 19.503906 17.773438 C 19.503906 18.136719 19.796875 18.433594 20.160156 18.433594 " fill-opacity="1" fill-rule="nonzero"/></svg>