<svg xmlns="http://www.w3.org/2000/svg" xmlns:xlink="http://www.w3.org/1999/xlink" width="75" zoomAndPan="magnify" viewBox="0 0 56.25 56.249997" height="75" preserveAspectRatio="xMidYMid meet" version="1.0"><defs><clipPath id="1208faea33"><path d="M 52 20 L 55.511719 20 L 55.511719 22 L 52 22 Z M 52 20 " clip-rule="nonzero"/></clipPath><clipPath id="200b6b2d66"><path d="M 20 47 L 30 47 L 30 54.398438 L 20 54.398438 Z M 20 47 " clip-rule="nonzero"/></clipPath><clipPath id="a75b0e5898"><path d="M 24 1.109375 L 26 1.109375 L 26 4 L 24 4 Z M 24 1.109375 " clip-rule="nonzero"/></clipPath></defs><path fill="#207ea2" d="M 52.558594 20.851562 C 52.558594 20.054688 52.039062 19.375 51.320312 19.136719 L 51.320312 16.019531 C 51.320312 15.796875 51.1875 15.597656 50.984375 15.503906 C 50.78125 15.414062 50.542969 15.453125 50.378906 15.601562 L 49.742188 16.183594 C 48.546875 17.265625 47.078125 18.003906 45.492188 18.316406 C 45.453125 18.320312 45.414062 18.335938 45.375 18.351562 L 41.734375 18.351562 C 40.410156 18.351562 39.332031 19.425781 39.332031 20.75 L 39.332031 20.957031 C 39.332031 22.246094 40.351562 23.300781 41.625 23.355469 L 41.625 26.578125 C 41.625 27.332031 42.238281 27.945312 42.992188 27.945312 L 43.082031 27.945312 C 43.839844 27.945312 44.453125 27.332031 44.453125 26.578125 L 44.453125 23.359375 L 45.429688 23.359375 C 45.449219 23.363281 45.46875 23.371094 45.492188 23.375 C 47.074219 23.6875 48.542969 24.421875 49.738281 25.507812 L 50.378906 26.085938 C 50.484375 26.183594 50.617188 26.234375 50.757812 26.234375 C 50.832031 26.234375 50.910156 26.214844 50.984375 26.183594 C 51.1875 26.09375 51.316406 25.890625 51.316406 25.671875 L 51.320312 22.566406 C 52.039062 22.324219 52.558594 21.648438 52.558594 20.851562 Z M 40.457031 20.957031 L 40.457031 20.75 C 40.457031 20.042969 41.03125 19.472656 41.734375 19.472656 L 45.039062 19.472656 L 45.039062 20.703125 C 45.039062 20.722656 45.042969 20.738281 45.042969 20.753906 L 45.042969 20.925781 C 45.042969 20.945312 45.039062 20.960938 45.039062 20.976562 L 45.039062 22.230469 L 41.734375 22.230469 C 41.03125 22.230469 40.457031 21.660156 40.457031 20.957031 Z M 43.328125 26.574219 C 43.328125 26.710938 43.21875 26.820312 43.085938 26.820312 L 42.992188 26.820312 C 42.859375 26.820312 42.75 26.710938 42.75 26.574219 L 42.75 23.359375 L 43.328125 23.359375 Z M 46.164062 22.371094 L 46.164062 19.316406 C 47.644531 18.953125 49.027344 18.253906 50.195312 17.277344 L 50.199219 19.546875 C 50.195312 19.566406 50.195312 19.589844 50.195312 19.609375 L 50.195312 22.09375 C 50.195312 22.113281 50.195312 22.132812 50.199219 22.15625 L 50.195312 24.40625 C 49.027344 23.429688 47.644531 22.730469 46.164062 22.371094 Z M 51.320312 21.222656 L 51.320312 20.980469 C 51.320312 20.957031 51.320312 20.933594 51.316406 20.914062 L 51.316406 20.769531 C 51.320312 20.75 51.320312 20.726562 51.320312 20.703125 L 51.320312 20.472656 C 51.394531 20.582031 51.433594 20.710938 51.433594 20.847656 C 51.433594 20.988281 51.394531 21.117188 51.320312 21.222656 Z M 51.320312 21.222656 " fill-opacity="1" fill-rule="nonzero"/><g clip-path="url(#1208faea33)"><path fill="#207ea2" d="M 54.9375 20.136719 L 53.128906 20.136719 C 52.816406 20.136719 52.566406 20.390625 52.566406 20.699219 C 52.566406 21.011719 52.816406 21.261719 53.128906 21.261719 L 54.9375 21.261719 C 55.25 21.261719 55.5 21.011719 55.5 20.699219 C 55.5 20.390625 55.25 20.136719 54.9375 20.136719 Z M 54.9375 20.136719 " fill-opacity="1" fill-rule="nonzero"/></g><path fill="#207ea2" d="M 52.949219 20.007812 C 53.066406 20.007812 53.1875 19.972656 53.285156 19.894531 L 54.730469 18.800781 C 54.976562 18.613281 55.023438 18.261719 54.835938 18.015625 C 54.648438 17.765625 54.296875 17.71875 54.050781 17.90625 L 52.605469 19 C 52.359375 19.1875 52.3125 19.539062 52.5 19.785156 C 52.609375 19.929688 52.777344 20.007812 52.949219 20.007812 Z M 52.949219 20.007812 " fill-opacity="1" fill-rule="nonzero"/><path fill="#207ea2" d="M 54.730469 22.601562 L 53.289062 21.507812 C 53.039062 21.320312 52.6875 21.367188 52.5 21.613281 C 52.3125 21.859375 52.363281 22.214844 52.609375 22.402344 L 54.050781 23.496094 C 54.152344 23.574219 54.273438 23.609375 54.390625 23.609375 C 54.558594 23.609375 54.726562 23.53125 54.839844 23.386719 C 55.023438 23.140625 54.976562 22.785156 54.730469 22.601562 Z M 54.730469 22.601562 " fill-opacity="1" fill-rule="nonzero"/><g clip-path="url(#200b6b2d66)"><path fill="#207ea2" d="M 29.136719 47.027344 L 20.628906 47.027344 C 20.320312 47.027344 20.066406 47.28125 20.066406 47.589844 L 20.066406 53.839844 C 20.066406 53.851562 20.066406 53.863281 20.070312 53.875 C 20.070312 53.875 20.070312 53.878906 20.070312 53.882812 C 20.070312 53.890625 20.070312 53.902344 20.070312 53.910156 C 20.070312 53.914062 20.070312 53.914062 20.074219 53.917969 C 20.078125 53.941406 20.082031 53.964844 20.089844 53.988281 C 20.089844 53.988281 20.089844 53.992188 20.089844 53.992188 C 20.097656 54.027344 20.113281 54.0625 20.128906 54.097656 C 20.128906 54.097656 20.128906 54.097656 20.128906 54.101562 C 20.140625 54.121094 20.15625 54.144531 20.167969 54.164062 C 20.167969 54.164062 20.171875 54.167969 20.171875 54.167969 C 20.179688 54.179688 20.183594 54.183594 20.191406 54.195312 C 20.191406 54.195312 20.191406 54.195312 20.195312 54.195312 C 20.203125 54.207031 20.210938 54.214844 20.214844 54.222656 C 20.21875 54.222656 20.222656 54.226562 20.222656 54.230469 C 20.230469 54.234375 20.234375 54.242188 20.242188 54.246094 C 20.246094 54.25 20.246094 54.253906 20.25 54.253906 C 20.257812 54.261719 20.265625 54.269531 20.273438 54.277344 C 20.273438 54.277344 20.277344 54.277344 20.277344 54.277344 C 20.285156 54.285156 20.292969 54.289062 20.300781 54.296875 C 20.300781 54.296875 20.304688 54.300781 20.308594 54.300781 C 20.324219 54.3125 20.347656 54.328125 20.367188 54.339844 C 20.367188 54.339844 20.371094 54.339844 20.371094 54.339844 C 20.402344 54.355469 20.4375 54.371094 20.472656 54.378906 C 20.476562 54.378906 20.476562 54.378906 20.476562 54.378906 C 20.5 54.386719 20.523438 54.390625 20.546875 54.394531 C 20.550781 54.394531 20.550781 54.394531 20.554688 54.394531 C 20.5625 54.398438 20.574219 54.398438 20.582031 54.398438 C 20.585938 54.398438 20.589844 54.398438 20.589844 54.398438 C 20.601562 54.398438 20.613281 54.398438 20.625 54.398438 L 29.132812 54.398438 C 29.445312 54.398438 29.695312 54.148438 29.695312 53.835938 L 29.695312 47.589844 C 29.699219 47.28125 29.445312 47.027344 29.136719 47.027344 Z M 28.574219 48.152344 L 28.574219 51.140625 L 27.226562 50.167969 C 27 50 26.6875 50.03125 26.492188 50.234375 L 25.445312 51.332031 L 24.121094 49.277344 C 24.019531 49.117188 23.847656 49.023438 23.664062 49.019531 C 23.476562 49.011719 23.296875 49.101562 23.191406 49.253906 L 21.191406 52.074219 L 21.191406 48.152344 Z M 23.625 50.585938 L 24.867188 52.511719 C 24.871094 52.523438 24.878906 52.53125 24.882812 52.542969 L 25.359375 53.277344 L 21.71875 53.277344 Z M 28.574219 53.277344 L 26.695312 53.277344 L 26.070312 52.304688 L 26.964844 51.363281 L 28.574219 52.523438 Z M 28.574219 53.277344 " fill-opacity="1" fill-rule="nonzero"/></g><path fill="#207ea2" d="M 26.527344 49.304688 C 26.527344 49.433594 26.480469 49.542969 26.386719 49.636719 C 26.296875 49.726562 26.183594 49.773438 26.054688 49.773438 C 25.925781 49.773438 25.816406 49.726562 25.722656 49.636719 C 25.632812 49.542969 25.585938 49.433594 25.585938 49.304688 C 25.585938 49.175781 25.632812 49.0625 25.722656 48.972656 C 25.816406 48.878906 25.925781 48.832031 26.054688 48.832031 C 26.183594 48.832031 26.296875 48.878906 26.386719 48.972656 C 26.480469 49.0625 26.527344 49.175781 26.527344 49.304688 Z M 26.527344 49.304688 " fill-opacity="1" fill-rule="nonzero"/><path fill="#207ea2" d="M 1.53125 24.820312 C 2.011719 25.296875 2.566406 25.671875 3.1875 25.933594 C 3.832031 26.207031 4.511719 26.34375 5.214844 26.34375 C 5.921875 26.34375 6.601562 26.207031 7.246094 25.933594 C 7.867188 25.671875 8.421875 25.296875 8.902344 24.820312 C 9.378906 24.34375 9.753906 23.785156 10.015625 23.164062 C 10.289062 22.519531 10.425781 21.839844 10.425781 21.136719 C 10.425781 20.433594 10.289062 19.75 10.015625 19.109375 C 9.835938 18.679688 9.601562 18.28125 9.3125 17.917969 C 9.378906 17.960938 9.449219 17.984375 9.527344 17.984375 C 9.632812 17.984375 9.738281 17.9375 9.8125 17.847656 C 9.980469 17.632812 10.15625 17.417969 10.335938 17.210938 C 10.46875 17.058594 10.453125 16.828125 10.300781 16.695312 C 10.144531 16.566406 9.917969 16.582031 9.785156 16.734375 C 9.597656 16.949219 9.414062 17.171875 9.238281 17.394531 C 9.152344 17.503906 9.136719 17.648438 9.191406 17.769531 C 9.101562 17.660156 9.003906 17.554688 8.902344 17.453125 C 8.421875 16.972656 7.867188 16.597656 7.246094 16.335938 C 6.601562 16.066406 5.921875 15.925781 5.214844 15.925781 C 4.511719 15.925781 3.832031 16.066406 3.1875 16.335938 C 2.566406 16.597656 2.011719 16.972656 1.53125 17.453125 C 1.054688 17.929688 0.679688 18.488281 0.417969 19.109375 C 0.144531 19.75 0.0078125 20.433594 0.0078125 21.136719 C 0.0078125 21.835938 0.144531 22.519531 0.417969 23.164062 C 0.679688 23.785156 1.054688 24.34375 1.53125 24.820312 Z M 2.328125 18.25 C 3.097656 17.476562 4.125 17.054688 5.214844 17.054688 C 6.304688 17.054688 7.332031 17.476562 8.101562 18.25 C 8.875 19.019531 9.300781 20.046875 9.300781 21.136719 C 9.300781 22.226562 8.875 23.253906 8.101562 24.023438 C 7.332031 24.796875 6.304688 25.222656 5.214844 25.222656 C 4.125 25.222656 3.097656 24.796875 2.328125 24.023438 C 1.554688 23.253906 1.132812 22.226562 1.132812 21.136719 C 1.132812 20.046875 1.554688 19.019531 2.328125 18.25 Z M 2.328125 18.25 " fill-opacity="1" fill-rule="nonzero"/><path fill="#207ea2" d="M 3.179688 24.117188 C 3.269531 24.167969 3.367188 24.191406 3.460938 24.191406 C 3.558594 24.191406 3.65625 24.167969 3.742188 24.117188 L 8.0625 21.625 C 8.234375 21.523438 8.339844 21.335938 8.339844 21.136719 C 8.339844 20.9375 8.234375 20.75 8.0625 20.652344 L 3.742188 18.15625 C 3.566406 18.054688 3.355469 18.054688 3.179688 18.15625 C 3.007812 18.257812 2.898438 18.441406 2.898438 18.644531 L 2.898438 23.632812 C 2.902344 23.832031 3.007812 24.015625 3.179688 24.117188 Z M 4.023438 19.617188 L 6.65625 21.136719 L 4.023438 22.65625 Z M 4.023438 19.617188 " fill-opacity="1" fill-rule="nonzero"/><path fill="#207ea2" d="M 21.996094 10.765625 C 22.273438 11.128906 22.484375 11.53125 22.628906 11.957031 C 22.773438 12.386719 22.847656 12.832031 22.847656 13.28125 L 22.847656 13.335938 C 22.847656 13.648438 23.097656 13.898438 23.410156 13.898438 L 26.3125 13.898438 C 26.625 13.898438 26.875 13.648438 26.875 13.335938 L 26.875 13.28125 C 26.875 12.832031 26.949219 12.386719 27.09375 11.957031 C 27.238281 11.53125 27.449219 11.132812 27.722656 10.769531 C 28.191406 10.144531 28.441406 9.402344 28.441406 8.621094 C 28.441406 7.664062 28.070312 6.765625 27.394531 6.09375 C 26.71875 5.417969 25.824219 5.042969 24.871094 5.039062 C 24.867188 5.039062 24.863281 5.039062 24.863281 5.039062 C 23.914062 5.039062 23.023438 5.40625 22.351562 6.066406 C 21.675781 6.730469 21.296875 7.621094 21.285156 8.570312 C 21.273438 9.367188 21.519531 10.128906 21.996094 10.765625 Z M 22.40625 8.585938 C 22.417969 7.933594 22.675781 7.324219 23.136719 6.867188 C 23.597656 6.414062 24.210938 6.164062 24.863281 6.164062 C 24.863281 6.164062 24.867188 6.164062 24.867188 6.164062 C 25.523438 6.167969 26.136719 6.421875 26.601562 6.886719 C 27.0625 7.347656 27.316406 7.964844 27.316406 8.617188 C 27.316406 9.152344 27.148438 9.664062 26.828125 10.089844 C 26.480469 10.550781 26.214844 11.054688 26.03125 11.597656 C 25.902344 11.980469 25.816406 12.375 25.777344 12.773438 L 23.949219 12.773438 C 23.910156 12.375 23.824219 11.980469 23.691406 11.59375 C 23.511719 11.054688 23.242188 10.550781 22.898438 10.089844 C 22.570312 9.652344 22.402344 9.132812 22.40625 8.585938 Z M 22.40625 8.585938 " fill-opacity="1" fill-rule="nonzero"/><path fill="#207ea2" d="M 26.882812 14.914062 C 26.882812 14.601562 26.632812 14.351562 26.324219 14.351562 L 23.402344 14.351562 C 23.09375 14.351562 22.839844 14.601562 22.839844 14.914062 C 22.839844 15.226562 23.09375 15.476562 23.402344 15.476562 L 26.324219 15.476562 C 26.632812 15.476562 26.882812 15.226562 26.882812 14.914062 Z M 26.882812 14.914062 " fill-opacity="1" fill-rule="nonzero"/><path fill="#207ea2" d="M 23.734375 15.886719 C 23.425781 15.886719 23.171875 16.136719 23.171875 16.445312 C 23.171875 16.757812 23.425781 17.007812 23.734375 17.007812 L 23.933594 17.007812 C 23.96875 17.261719 24.367188 17.460938 24.847656 17.460938 C 25.335938 17.460938 25.730469 17.261719 25.761719 17.007812 L 25.972656 17.007812 C 26.28125 17.007812 26.535156 16.757812 26.535156 16.445312 C 26.535156 16.136719 26.28125 15.886719 25.972656 15.886719 Z M 23.734375 15.886719 " fill-opacity="1" fill-rule="nonzero"/><path fill="#207ea2" d="M 29.507812 8.414062 C 29.507812 8.726562 29.757812 8.976562 30.070312 8.976562 L 31.625 8.976562 C 31.9375 8.976562 32.1875 8.726562 32.1875 8.414062 C 32.1875 8.105469 31.9375 7.851562 31.625 7.851562 L 30.070312 7.851562 C 29.761719 7.851562 29.507812 8.105469 29.507812 8.414062 Z M 29.507812 8.414062 " fill-opacity="1" fill-rule="nonzero"/><path fill="#207ea2" d="M 18.140625 8.976562 L 19.695312 8.976562 C 20.007812 8.976562 20.257812 8.726562 20.257812 8.414062 C 20.257812 8.105469 20.007812 7.851562 19.695312 7.851562 L 18.140625 7.851562 C 17.832031 7.851562 17.578125 8.105469 17.578125 8.414062 C 17.578125 8.726562 17.832031 8.976562 18.140625 8.976562 Z M 18.140625 8.976562 " fill-opacity="1" fill-rule="nonzero"/><path fill="#207ea2" d="M 28.15625 11.6875 C 27.9375 11.90625 27.9375 12.261719 28.15625 12.480469 L 29.253906 13.578125 C 29.363281 13.6875 29.507812 13.746094 29.652344 13.746094 C 29.796875 13.746094 29.9375 13.6875 30.046875 13.578125 C 30.269531 13.359375 30.269531 13.003906 30.046875 12.785156 L 28.949219 11.6875 C 28.730469 11.464844 28.375 11.464844 28.15625 11.6875 Z M 28.15625 11.6875 " fill-opacity="1" fill-rule="nonzero"/><path fill="#207ea2" d="M 20.816406 5.144531 C 20.925781 5.253906 21.070312 5.308594 21.214844 5.308594 C 21.359375 5.308594 21.503906 5.253906 21.613281 5.144531 C 21.832031 4.925781 21.832031 4.570312 21.613281 4.351562 L 20.511719 3.25 C 20.292969 3.03125 19.9375 3.03125 19.71875 3.25 C 19.5 3.46875 19.5 3.824219 19.71875 4.046875 Z M 20.816406 5.144531 " fill-opacity="1" fill-rule="nonzero"/><g clip-path="url(#a75b0e5898)"><path fill="#207ea2" d="M 24.882812 3.789062 C 25.195312 3.789062 25.445312 3.539062 25.445312 3.226562 L 25.445312 1.671875 C 25.445312 1.363281 25.195312 1.109375 24.882812 1.109375 C 24.574219 1.109375 24.320312 1.363281 24.320312 1.671875 L 24.320312 3.226562 C 24.320312 3.539062 24.574219 3.789062 24.882812 3.789062 Z M 24.882812 3.789062 " fill-opacity="1" fill-rule="nonzero"/></g><path fill="#207ea2" d="M 28.550781 5.308594 C 28.695312 5.308594 28.839844 5.253906 28.949219 5.144531 L 30.046875 4.046875 C 30.269531 3.824219 30.269531 3.46875 30.046875 3.25 C 29.828125 3.03125 29.472656 3.03125 29.253906 3.25 L 28.15625 4.351562 C 27.9375 4.570312 27.9375 4.925781 28.15625 5.144531 C 28.265625 5.253906 28.40625 5.308594 28.550781 5.308594 Z M 28.550781 5.308594 " fill-opacity="1" fill-rule="nonzero"/><path fill="#207ea2" d="M 20.117188 13.746094 C 20.261719 13.746094 20.40625 13.6875 20.515625 13.578125 L 21.613281 12.480469 C 21.832031 12.261719 21.832031 11.90625 21.613281 11.6875 C 21.394531 11.464844 21.039062 11.464844 20.820312 11.6875 L 19.71875 12.785156 C 19.5 13.003906 19.5 13.359375 19.71875 13.578125 C 19.828125 13.6875 19.972656 13.746094 20.117188 13.746094 Z M 20.117188 13.746094 " fill-opacity="1" fill-rule="nonzero"/><path fill="#207ea2" d="M 23.425781 9.550781 L 23.871094 9.84375 C 24.058594 9.964844 24.300781 9.964844 24.488281 9.84375 L 24.628906 9.75 L 24.765625 9.84375 C 24.953125 9.964844 25.195312 9.964844 25.382812 9.84375 L 25.523438 9.75 L 25.664062 9.84375 C 25.757812 9.90625 25.863281 9.933594 25.96875 9.933594 C 26.152344 9.933594 26.332031 9.84375 26.441406 9.679688 C 26.609375 9.417969 26.539062 9.070312 26.277344 8.902344 L 25.832031 8.609375 C 25.644531 8.488281 25.402344 8.488281 25.214844 8.609375 L 25.074219 8.703125 L 24.933594 8.609375 C 24.75 8.488281 24.507812 8.488281 24.320312 8.609375 L 24.179688 8.703125 L 24.039062 8.609375 C 23.78125 8.441406 23.429688 8.511719 23.261719 8.773438 C 23.09375 9.035156 23.164062 9.382812 23.425781 9.550781 Z M 23.425781 9.550781 " fill-opacity="1" fill-rule="nonzero"/><path fill="#207ea2" d="M 46.164062 38.226562 L 40.796875 38.226562 C 40.488281 38.226562 40.234375 38.476562 40.234375 38.785156 L 40.234375 42.890625 C 39.972656 42.785156 39.679688 42.730469 39.378906 42.730469 C 38.875 42.730469 38.398438 42.886719 38.03125 43.167969 C 37.628906 43.480469 37.398438 43.925781 37.398438 44.390625 C 37.398438 44.851562 37.628906 45.300781 38.03125 45.609375 C 38.398438 45.894531 38.875 46.050781 39.378906 46.050781 C 39.882812 46.050781 40.359375 45.894531 40.726562 45.609375 C 41.128906 45.300781 41.359375 44.855469 41.359375 44.390625 L 41.359375 41.089844 L 45.601562 41.089844 L 45.601562 42.890625 C 45.335938 42.785156 45.046875 42.730469 44.746094 42.730469 C 44.242188 42.730469 43.761719 42.886719 43.398438 43.167969 C 42.992188 43.480469 42.761719 43.925781 42.761719 44.390625 C 42.761719 44.851562 42.992188 45.300781 43.398438 45.609375 C 43.761719 45.894531 44.242188 46.050781 44.746094 46.050781 C 45.25 46.050781 45.726562 45.894531 46.09375 45.609375 C 46.496094 45.300781 46.726562 44.855469 46.726562 44.390625 L 46.726562 38.785156 C 46.726562 38.476562 46.476562 38.226562 46.164062 38.226562 Z M 39.378906 44.925781 C 38.875 44.925781 38.523438 44.644531 38.523438 44.390625 C 38.523438 44.136719 38.875 43.851562 39.378906 43.851562 C 39.882812 43.851562 40.234375 44.136719 40.234375 44.390625 C 40.234375 44.644531 39.882812 44.925781 39.378906 44.925781 Z M 41.359375 39.96875 L 41.359375 39.347656 L 45.601562 39.347656 L 45.601562 39.96875 Z M 44.746094 44.925781 C 44.238281 44.925781 43.886719 44.644531 43.886719 44.390625 C 43.886719 44.136719 44.238281 43.851562 44.746094 43.851562 C 45.25 43.851562 45.601562 44.136719 45.601562 44.390625 C 45.601562 44.644531 45.25 44.925781 44.746094 44.925781 Z M 44.746094 44.925781 " fill-opacity="1" fill-rule="nonzero"/><path fill="#207ea2" d="M 21.652344 28.722656 L 30.332031 28.722656 C 30.644531 28.722656 30.894531 28.472656 30.894531 28.160156 C 30.894531 27.851562 30.644531 27.597656 30.332031 27.597656 L 21.652344 27.597656 C 21.34375 27.597656 21.089844 27.851562 21.089844 28.160156 C 21.089844 28.472656 21.34375 28.722656 21.652344 28.722656 Z M 21.652344 28.722656 " fill-opacity="1" fill-rule="nonzero"/><path fill="#207ea2" d="M 21.652344 31.800781 L 30.332031 31.800781 C 30.644531 31.800781 30.894531 31.550781 30.894531 31.238281 C 30.894531 30.929688 30.644531 30.675781 30.332031 30.675781 L 21.652344 30.675781 C 21.34375 30.675781 21.089844 30.929688 21.089844 31.238281 C 21.089844 31.550781 21.34375 31.800781 21.652344 31.800781 Z M 21.652344 31.800781 " fill-opacity="1" fill-rule="nonzero"/><path fill="#207ea2" d="M 15.4375 28.953125 C 14.308594 28.507812 13.03125 29.0625 12.585938 30.191406 C 12.367188 30.738281 12.378906 31.335938 12.613281 31.875 C 12.847656 32.414062 13.273438 32.828125 13.820312 33.046875 C 14.082031 33.148438 14.355469 33.199219 14.628906 33.199219 C 14.925781 33.199219 15.222656 33.140625 15.503906 33.019531 C 16.042969 32.785156 16.457031 32.355469 16.675781 31.808594 C 17.121094 30.679688 16.566406 29.398438 15.4375 28.953125 Z M 15.628906 31.394531 C 15.523438 31.660156 15.320312 31.871094 15.054688 31.984375 C 14.792969 32.097656 14.5 32.105469 14.234375 32 C 13.964844 31.894531 13.753906 31.691406 13.640625 31.425781 C 13.527344 31.164062 13.523438 30.871094 13.628906 30.605469 C 13.792969 30.183594 14.199219 29.925781 14.628906 29.925781 C 14.761719 29.925781 14.894531 29.949219 15.023438 30 C 15.574219 30.21875 15.84375 30.84375 15.628906 31.394531 Z M 15.628906 31.394531 " fill-opacity="1" fill-rule="nonzero"/><path fill="#207ea2" d="M 39.070312 28.570312 C 39.09375 28.53125 39.117188 28.492188 39.132812 28.449219 L 40.417969 26.59375 C 40.597656 26.339844 40.535156 25.988281 40.277344 25.8125 L 38.3125 24.449219 C 38.191406 24.363281 38.039062 24.332031 37.890625 24.355469 C 37.746094 24.382812 37.613281 24.464844 37.53125 24.589844 L 36.167969 26.554688 L 33.992188 29.6875 L 33.992188 26.75 C 33.992188 26.601562 33.929688 26.457031 33.824219 26.351562 L 29.644531 22.171875 C 29.636719 22.160156 29.625 22.15625 29.617188 22.144531 C 29.613281 22.144531 29.613281 22.140625 29.609375 22.140625 C 29.601562 22.132812 29.59375 22.125 29.585938 22.121094 C 29.582031 22.117188 29.582031 22.117188 29.582031 22.117188 C 29.570312 22.109375 29.5625 22.105469 29.550781 22.097656 C 29.550781 22.09375 29.546875 22.09375 29.542969 22.089844 C 29.535156 22.085938 29.523438 22.078125 29.515625 22.074219 C 29.515625 22.074219 29.511719 22.074219 29.511719 22.070312 C 29.5 22.066406 29.492188 22.0625 29.480469 22.054688 C 29.476562 22.054688 29.472656 22.050781 29.46875 22.050781 C 29.457031 22.046875 29.449219 22.042969 29.4375 22.039062 C 29.4375 22.039062 29.433594 22.039062 29.433594 22.039062 C 29.425781 22.035156 29.414062 22.03125 29.402344 22.027344 C 29.398438 22.027344 29.394531 22.027344 29.390625 22.023438 C 29.382812 22.023438 29.371094 22.019531 29.359375 22.015625 C 29.359375 22.015625 29.355469 22.015625 29.355469 22.015625 C 29.34375 22.011719 29.332031 22.011719 29.320312 22.011719 C 29.316406 22.011719 29.3125 22.007812 29.308594 22.007812 C 29.300781 22.007812 29.289062 22.007812 29.277344 22.003906 C 29.277344 22.003906 29.273438 22.003906 29.273438 22.003906 C 29.261719 22.003906 29.253906 22.003906 29.246094 22.003906 L 18.554688 22.003906 C 18.242188 22.003906 17.992188 22.253906 17.992188 22.566406 L 17.992188 26.535156 C 17.832031 26.4375 17.628906 26.425781 17.457031 26.511719 L 16.398438 27.035156 L 16.042969 26.894531 L 15.632812 25.792969 C 15.550781 25.570312 15.339844 25.425781 15.105469 25.425781 C 15.101562 25.425781 15.097656 25.425781 15.097656 25.425781 L 13.976562 25.445312 C 13.738281 25.449219 13.53125 25.601562 13.453125 25.828125 L 13.078125 26.945312 L 12.726562 27.09375 L 11.652344 26.605469 C 11.4375 26.507812 11.179688 26.554688 11.015625 26.726562 L 10.238281 27.53125 C 10.074219 27.703125 10.03125 27.957031 10.140625 28.171875 L 10.660156 29.226562 L 10.519531 29.582031 L 9.417969 29.996094 C 9.195312 30.078125 9.046875 30.292969 9.050781 30.53125 L 9.070312 31.648438 C 9.074219 31.886719 9.226562 32.097656 9.453125 32.175781 L 10.570312 32.550781 L 10.722656 32.902344 L 10.230469 33.972656 C 10.132812 34.191406 10.179688 34.445312 10.351562 34.609375 L 11.15625 35.390625 C 11.328125 35.554688 11.585938 35.59375 11.796875 35.488281 L 12.851562 34.964844 L 13.207031 35.105469 L 13.621094 36.210938 C 13.703125 36.429688 13.914062 36.574219 14.148438 36.574219 C 14.152344 36.574219 14.152344 36.574219 14.15625 36.574219 L 15.277344 36.558594 C 15.511719 36.554688 15.722656 36.402344 15.800781 36.175781 L 16.175781 35.058594 L 16.527344 34.90625 L 17.601562 35.394531 C 17.726562 35.453125 17.867188 35.460938 17.992188 35.421875 L 17.992188 41.222656 C 17.992188 41.535156 18.242188 41.785156 18.554688 41.785156 L 33.425781 41.785156 C 33.738281 41.785156 33.988281 41.535156 33.988281 41.222656 L 33.988281 35.882812 Z M 31.632812 35.917969 L 31.882812 36.089844 L 31.628906 36.1875 Z M 32.925781 35.445312 L 31.871094 34.714844 L 36.769531 27.65625 L 37.824219 28.390625 Z M 38.132812 25.691406 L 39.175781 26.414062 L 38.453125 27.457031 L 37.410156 26.734375 Z M 31.859375 26.007812 L 29.808594 26.007812 L 29.808594 23.933594 Z M 17.472656 33.050781 L 17.933594 33.972656 L 17.707031 34.207031 L 16.769531 33.78125 C 16.625 33.714844 16.457031 33.714844 16.3125 33.777344 L 15.5 34.125 C 15.355469 34.1875 15.242188 34.3125 15.191406 34.460938 L 14.863281 35.441406 L 14.535156 35.445312 L 14.175781 34.480469 C 14.121094 34.332031 14.003906 34.210938 13.855469 34.152344 L 13.035156 33.828125 C 12.890625 33.769531 12.722656 33.777344 12.582031 33.847656 L 11.65625 34.308594 L 11.421875 34.082031 L 11.851562 33.140625 C 11.917969 32.996094 11.917969 32.832031 11.855469 32.683594 L 11.503906 31.875 C 11.441406 31.730469 11.320312 31.617188 11.167969 31.566406 L 10.191406 31.238281 L 10.183594 30.910156 L 11.152344 30.550781 C 11.300781 30.496094 11.417969 30.378906 11.476562 30.230469 L 11.800781 29.410156 C 11.859375 29.265625 11.851562 29.097656 11.78125 28.957031 L 11.324219 28.03125 L 11.550781 27.796875 L 12.488281 28.226562 C 12.632812 28.292969 12.800781 28.292969 12.945312 28.230469 L 13.753906 27.878906 C 13.902344 27.816406 14.015625 27.695312 14.066406 27.542969 L 14.394531 26.566406 L 14.71875 26.558594 L 15.082031 27.527344 C 15.136719 27.675781 15.253906 27.792969 15.402344 27.851562 L 16.21875 28.175781 C 16.21875 28.175781 16.21875 28.175781 16.222656 28.175781 C 16.226562 28.179688 16.234375 28.179688 16.238281 28.183594 C 16.25 28.1875 16.261719 28.191406 16.273438 28.195312 C 16.28125 28.195312 16.289062 28.199219 16.296875 28.199219 C 16.300781 28.199219 16.300781 28.199219 16.300781 28.199219 C 16.304688 28.199219 16.316406 28.203125 16.324219 28.203125 C 16.332031 28.207031 16.339844 28.207031 16.347656 28.207031 C 16.351562 28.207031 16.351562 28.207031 16.351562 28.207031 C 16.359375 28.210938 16.367188 28.210938 16.375 28.210938 C 16.375 28.210938 16.378906 28.210938 16.378906 28.210938 C 16.386719 28.210938 16.394531 28.210938 16.402344 28.210938 C 16.402344 28.210938 16.40625 28.210938 16.410156 28.210938 C 16.414062 28.210938 16.421875 28.210938 16.425781 28.210938 C 16.429688 28.210938 16.433594 28.210938 16.4375 28.210938 C 16.441406 28.210938 16.445312 28.210938 16.449219 28.210938 C 16.457031 28.210938 16.460938 28.210938 16.464844 28.210938 C 16.46875 28.210938 16.472656 28.210938 16.476562 28.210938 C 16.480469 28.210938 16.488281 28.210938 16.492188 28.210938 C 16.496094 28.210938 16.496094 28.207031 16.5 28.207031 C 16.507812 28.207031 16.511719 28.207031 16.519531 28.207031 C 16.519531 28.207031 16.523438 28.203125 16.523438 28.203125 C 16.53125 28.203125 16.539062 28.199219 16.546875 28.199219 C 16.546875 28.199219 16.546875 28.199219 16.550781 28.199219 C 16.558594 28.195312 16.566406 28.195312 16.570312 28.191406 C 16.574219 28.191406 16.574219 28.191406 16.578125 28.191406 C 16.582031 28.1875 16.589844 28.1875 16.597656 28.183594 C 16.601562 28.183594 16.601562 28.183594 16.601562 28.183594 C 16.609375 28.179688 16.617188 28.175781 16.625 28.175781 C 16.628906 28.171875 16.628906 28.171875 16.632812 28.171875 C 16.640625 28.167969 16.644531 28.167969 16.652344 28.164062 C 16.660156 28.160156 16.667969 28.15625 16.675781 28.152344 L 17.601562 27.695312 L 17.832031 27.921875 L 17.40625 28.859375 C 17.339844 29.003906 17.339844 29.171875 17.402344 29.316406 L 17.75 30.125 C 17.804688 30.246094 17.890625 30.335938 17.992188 30.394531 L 17.992188 31.507812 C 17.898438 31.570312 17.820312 31.660156 17.777344 31.773438 L 17.453125 32.589844 C 17.398438 32.742188 17.402344 32.90625 17.472656 33.050781 Z M 19.117188 40.660156 L 19.117188 34.324219 C 19.191406 34.171875 19.195312 33.992188 19.117188 33.835938 L 19.117188 23.132812 L 28.683594 23.132812 L 28.683594 26.570312 C 28.683594 26.882812 28.9375 27.132812 29.246094 27.132812 L 32.867188 27.132812 L 32.867188 31.25 C 32.867188 31.265625 32.867188 31.285156 32.871094 31.304688 L 30.875 34.175781 C 30.8125 33.933594 30.59375 33.753906 30.332031 33.753906 L 21.652344 33.753906 C 21.34375 33.753906 21.089844 34.003906 21.089844 34.316406 C 21.089844 34.625 21.34375 34.875 21.652344 34.875 L 30.332031 34.875 C 30.402344 34.875 30.464844 34.863281 30.527344 34.839844 C 30.527344 34.84375 30.527344 34.847656 30.527344 34.847656 L 30.492188 36.851562 C 30.441406 36.835938 30.386719 36.828125 30.332031 36.828125 L 21.652344 36.828125 C 21.34375 36.828125 21.089844 37.078125 21.089844 37.390625 C 21.089844 37.703125 21.34375 37.953125 21.652344 37.953125 L 30.332031 37.953125 C 30.589844 37.953125 30.804688 37.78125 30.871094 37.546875 C 30.929688 37.566406 30.992188 37.578125 31.054688 37.578125 C 31.125 37.578125 31.195312 37.566406 31.257812 37.539062 L 32.867188 36.910156 L 32.867188 40.660156 Z M 19.117188 40.660156 " fill-opacity="1" fill-rule="nonzero"/><path fill="#207ea2" d="M 30.6875 10.90625 C 30.847656 10.90625 30.996094 10.796875 31.039062 10.632812 C 31.089844 10.4375 30.972656 10.242188 30.777344 10.1875 C 30.503906 10.117188 30.222656 10.050781 29.949219 9.992188 C 29.75 9.949219 29.558594 10.074219 29.515625 10.269531 C 29.472656 10.464844 29.597656 10.660156 29.792969 10.703125 C 30.058594 10.761719 30.332031 10.824219 30.59375 10.894531 C 30.625 10.902344 30.65625 10.90625 30.6875 10.90625 Z M 30.6875 10.90625 " fill-opacity="1" fill-rule="nonzero"/><path fill="#207ea2" d="M 35.105469 12.683594 C 35.570312 12.9375 36.03125 13.210938 36.476562 13.5 C 36.535156 13.542969 36.605469 13.558594 36.671875 13.558594 C 36.792969 13.558594 36.910156 13.503906 36.980469 13.394531 C 37.089844 13.226562 37.042969 13 36.875 12.890625 C 36.414062 12.589844 35.9375 12.304688 35.457031 12.042969 C 35.277344 11.945312 35.058594 12.011719 34.960938 12.1875 C 34.863281 12.363281 34.929688 12.585938 35.105469 12.683594 Z M 35.105469 12.683594 " fill-opacity="1" fill-rule="nonzero"/><path fill="#207ea2" d="M 37.804688 14.449219 C 38.222656 14.773438 38.632812 15.121094 39.027344 15.476562 C 39.09375 15.539062 39.183594 15.570312 39.269531 15.570312 C 39.371094 15.570312 39.46875 15.53125 39.539062 15.453125 C 39.675781 15.300781 39.667969 15.070312 39.515625 14.9375 C 39.113281 14.566406 38.6875 14.207031 38.253906 13.871094 C 38.09375 13.75 37.867188 13.777344 37.742188 13.9375 C 37.617188 14.097656 37.648438 14.324219 37.804688 14.449219 Z M 37.804688 14.449219 " fill-opacity="1" fill-rule="nonzero"/><path fill="#207ea2" d="M 31.933594 10.90625 C 31.867188 11.097656 31.96875 11.304688 32.160156 11.375 C 32.65625 11.546875 33.15625 11.746094 33.640625 11.960938 C 33.6875 11.980469 33.738281 11.992188 33.789062 11.992188 C 33.929688 11.992188 34.0625 11.910156 34.121094 11.773438 C 34.203125 11.589844 34.121094 11.375 33.9375 11.292969 C 33.433594 11.070312 32.917969 10.867188 32.402344 10.683594 C 32.210938 10.617188 32.003906 10.714844 31.933594 10.90625 Z M 31.933594 10.90625 " fill-opacity="1" fill-rule="nonzero"/><path fill="#207ea2" d="M 40.738281 17.238281 C 40.808594 17.324219 40.910156 17.367188 41.015625 17.367188 C 41.101562 17.367188 41.183594 17.335938 41.253906 17.28125 C 41.40625 17.148438 41.425781 16.917969 41.292969 16.765625 C 41.109375 16.550781 40.917969 16.335938 40.722656 16.128906 C 40.585938 15.980469 40.355469 15.972656 40.207031 16.109375 C 40.0625 16.246094 40.054688 16.476562 40.191406 16.625 C 40.375 16.828125 40.558594 17.03125 40.738281 17.238281 Z M 40.738281 17.238281 " fill-opacity="1" fill-rule="nonzero"/><path fill="#207ea2" d="M 11.21875 16.101562 C 11.3125 16.101562 11.40625 16.066406 11.476562 15.996094 C 11.863281 15.617188 12.269531 15.25 12.683594 14.902344 C 12.835938 14.773438 12.859375 14.542969 12.730469 14.386719 C 12.597656 14.234375 12.371094 14.214844 12.214844 14.339844 C 11.785156 14.699219 11.367188 15.082031 10.964844 15.472656 C 10.820312 15.613281 10.820312 15.84375 10.960938 15.988281 C 11.03125 16.0625 11.125 16.101562 11.21875 16.101562 Z M 11.21875 16.101562 " fill-opacity="1" fill-rule="nonzero"/><path fill="#207ea2" d="M 13.796875 13.953125 C 13.871094 13.953125 13.941406 13.929688 14.007812 13.886719 C 14.449219 13.574219 14.910156 13.277344 15.375 13.003906 C 15.546875 12.902344 15.605469 12.679688 15.503906 12.503906 C 15.402344 12.332031 15.179688 12.273438 15.003906 12.375 C 14.523438 12.65625 14.046875 12.964844 13.585938 13.289062 C 13.421875 13.402344 13.382812 13.628906 13.5 13.796875 C 13.570312 13.898438 13.679688 13.953125 13.796875 13.953125 Z M 13.796875 13.953125 " fill-opacity="1" fill-rule="nonzero"/><path fill="#207ea2" d="M 16.6875 12.257812 C 16.742188 12.257812 16.796875 12.246094 16.847656 12.21875 C 17.332031 11.988281 17.835938 11.769531 18.339844 11.574219 C 18.527344 11.5 18.621094 11.292969 18.550781 11.101562 C 18.476562 10.914062 18.265625 10.820312 18.078125 10.894531 C 17.554688 11.09375 17.035156 11.316406 16.53125 11.5625 C 16.351562 11.648438 16.273438 11.867188 16.359375 12.050781 C 16.421875 12.179688 16.554688 12.257812 16.6875 12.257812 Z M 16.6875 12.257812 " fill-opacity="1" fill-rule="nonzero"/><path fill="#207ea2" d="M 19.921875 11.042969 C 20.183594 10.964844 20.453125 10.894531 20.71875 10.828125 C 20.914062 10.78125 21.03125 10.582031 20.984375 10.386719 C 20.9375 10.191406 20.738281 10.074219 20.542969 10.121094 C 20.265625 10.1875 19.988281 10.261719 19.71875 10.34375 C 19.523438 10.398438 19.414062 10.601562 19.46875 10.796875 C 19.515625 10.953125 19.664062 11.058594 19.820312 11.058594 C 19.851562 11.054688 19.886719 11.050781 19.921875 11.042969 Z M 19.921875 11.042969 " fill-opacity="1" fill-rule="nonzero"/><path fill="#207ea2" d="M 5.640625 36.335938 C 5.6875 36.492188 5.832031 36.59375 5.988281 36.59375 C 6.023438 36.59375 6.058594 36.589844 6.09375 36.578125 C 6.285156 36.519531 6.398438 36.316406 6.339844 36.125 C 6.257812 35.863281 6.183594 35.59375 6.113281 35.328125 C 6.0625 35.132812 5.863281 35.015625 5.667969 35.066406 C 5.472656 35.117188 5.355469 35.316406 5.40625 35.511719 C 5.480469 35.785156 5.558594 36.0625 5.640625 36.335938 Z M 5.640625 36.335938 " fill-opacity="1" fill-rule="nonzero"/><path fill="#207ea2" d="M 4.769531 29.304688 C 4.753906 29.632812 4.75 29.964844 4.75 30.296875 C 4.75 30.480469 4.75 30.667969 4.753906 30.851562 C 4.761719 31.046875 4.921875 31.203125 5.121094 31.203125 C 5.125 31.203125 5.125 31.203125 5.128906 31.203125 C 5.332031 31.199219 5.492188 31.03125 5.484375 30.832031 C 5.480469 30.652344 5.476562 30.472656 5.476562 30.296875 C 5.476562 29.976562 5.484375 29.65625 5.5 29.339844 C 5.507812 29.136719 5.355469 28.96875 5.152344 28.957031 C 4.953125 28.949219 4.78125 29.105469 4.769531 29.304688 Z M 4.769531 29.304688 " fill-opacity="1" fill-rule="nonzero"/><path fill="#207ea2" d="M 5.070312 33.960938 C 5.101562 34.140625 5.257812 34.261719 5.429688 34.261719 C 5.453125 34.261719 5.472656 34.261719 5.496094 34.257812 C 5.691406 34.222656 5.824219 34.03125 5.789062 33.835938 C 5.703125 33.347656 5.632812 32.851562 5.582031 32.359375 C 5.5625 32.15625 5.382812 32.011719 5.183594 32.03125 C 4.984375 32.054688 4.835938 32.230469 4.859375 32.433594 C 4.910156 32.945312 4.980469 33.457031 5.070312 33.960938 Z M 5.070312 33.960938 " fill-opacity="1" fill-rule="nonzero"/><path fill="#207ea2" d="M 5.269531 28.136719 C 5.449219 28.136719 5.605469 28 5.628906 27.816406 C 5.664062 27.542969 5.703125 27.269531 5.75 27 C 5.78125 26.800781 5.644531 26.613281 5.449219 26.582031 C 5.25 26.546875 5.058594 26.683594 5.027344 26.882812 C 4.980469 27.160156 4.941406 27.445312 4.90625 27.726562 C 4.882812 27.925781 5.023438 28.109375 5.222656 28.132812 C 5.238281 28.132812 5.253906 28.136719 5.269531 28.136719 Z M 5.269531 28.136719 " fill-opacity="1" fill-rule="nonzero"/><path fill="#207ea2" d="M 19.5625 49.441406 C 19.300781 49.359375 19.039062 49.273438 18.78125 49.179688 C 18.589844 49.113281 18.382812 49.210938 18.3125 49.402344 C 18.246094 49.589844 18.34375 49.800781 18.535156 49.867188 C 18.800781 49.964844 19.074219 50.054688 19.34375 50.140625 C 19.382812 50.152344 19.417969 50.15625 19.453125 50.15625 C 19.609375 50.15625 19.753906 50.054688 19.800781 49.898438 C 19.863281 49.707031 19.757812 49.503906 19.5625 49.441406 Z M 19.5625 49.441406 " fill-opacity="1" fill-rule="nonzero"/><path fill="#207ea2" d="M 14.234375 46.867188 C 13.777344 46.550781 13.324219 46.214844 12.890625 45.863281 C 12.734375 45.738281 12.503906 45.761719 12.378906 45.917969 C 12.25 46.074219 12.273438 46.304688 12.429688 46.429688 C 12.878906 46.792969 13.347656 47.144531 13.824219 47.46875 C 13.886719 47.511719 13.957031 47.53125 14.03125 47.53125 C 14.148438 47.53125 14.261719 47.476562 14.332031 47.375 C 14.445312 47.207031 14.402344 46.976562 14.234375 46.867188 Z M 14.234375 46.867188 " fill-opacity="1" fill-rule="nonzero"/><path fill="#207ea2" d="M 17.191406 48.53125 C 16.683594 48.300781 16.183594 48.046875 15.699219 47.773438 C 15.523438 47.671875 15.296875 47.734375 15.199219 47.910156 C 15.101562 48.085938 15.164062 48.308594 15.339844 48.410156 C 15.839844 48.691406 16.363281 48.957031 16.886719 49.199219 C 16.9375 49.21875 16.988281 49.230469 17.039062 49.230469 C 17.175781 49.230469 17.308594 49.152344 17.371094 49.019531 C 17.453125 48.832031 17.371094 48.617188 17.191406 48.53125 Z M 17.191406 48.53125 " fill-opacity="1" fill-rule="nonzero"/><path fill="#207ea2" d="M 11.023438 44.136719 C 10.914062 44.019531 10.742188 43.996094 10.601562 44.0625 L 10.601562 37.398438 C 10.601562 37.089844 10.351562 36.835938 10.039062 36.835938 L 0.59375 36.835938 C 0.28125 36.835938 0.03125 37.089844 0.03125 37.398438 L 0.03125 44.65625 C 0.03125 44.964844 0.28125 45.21875 0.59375 45.21875 L 2.746094 45.21875 L 2.746094 47.660156 C 2.746094 47.894531 2.890625 48.101562 3.105469 48.183594 C 3.171875 48.210938 3.242188 48.222656 3.308594 48.222656 C 3.464844 48.222656 3.613281 48.160156 3.722656 48.042969 L 6.320312 45.21875 L 10.039062 45.21875 C 10.320312 45.21875 10.550781 45.015625 10.597656 44.75 C 10.761719 44.917969 10.929688 45.085938 11.097656 45.25 C 11.167969 45.320312 11.261719 45.351562 11.351562 45.351562 C 11.445312 45.351562 11.542969 45.316406 11.613281 45.242188 C 11.753906 45.097656 11.75 44.863281 11.605469 44.726562 C 11.40625 44.53125 11.214844 44.335938 11.023438 44.136719 Z M 9.480469 44.089844 L 6.074219 44.089844 C 5.917969 44.089844 5.769531 44.15625 5.660156 44.273438 L 3.871094 46.21875 L 3.871094 44.652344 C 3.871094 44.34375 3.621094 44.089844 3.308594 44.089844 L 1.15625 44.089844 L 1.15625 37.960938 L 9.480469 37.960938 Z M 9.480469 44.089844 " fill-opacity="1" fill-rule="nonzero"/><path fill="#207ea2" d="M 37.738281 46.195312 C 37.519531 46.363281 37.296875 46.527344 37.074219 46.683594 C 36.910156 46.800781 36.867188 47.027344 36.984375 47.191406 C 37.058594 47.292969 37.167969 47.347656 37.285156 47.347656 C 37.355469 47.347656 37.429688 47.324219 37.492188 47.28125 C 37.726562 47.117188 37.957031 46.945312 38.179688 46.773438 C 38.339844 46.652344 38.371094 46.421875 38.25 46.261719 C 38.125 46.101562 37.898438 46.074219 37.738281 46.195312 Z M 37.738281 46.195312 " fill-opacity="1" fill-rule="nonzero"/><path fill="#207ea2" d="M 35.894531 47.457031 C 35.503906 47.695312 35.097656 47.917969 34.691406 48.128906 C 34.515625 48.21875 34.445312 48.441406 34.535156 48.621094 C 34.601562 48.746094 34.726562 48.820312 34.859375 48.820312 C 34.917969 48.820312 34.972656 48.804688 35.027344 48.777344 C 35.445312 48.5625 35.863281 48.328125 36.269531 48.082031 C 36.441406 47.976562 36.496094 47.753906 36.394531 47.582031 C 36.289062 47.410156 36.066406 47.351562 35.894531 47.457031 Z M 35.894531 47.457031 " fill-opacity="1" fill-rule="nonzero"/><path fill="#207ea2" d="M 33.417969 48.730469 C 33 48.910156 32.566406 49.078125 32.136719 49.226562 C 31.949219 49.296875 31.847656 49.503906 31.914062 49.691406 C 31.964844 49.84375 32.109375 49.9375 32.257812 49.9375 C 32.296875 49.9375 32.339844 49.929688 32.378906 49.917969 C 32.824219 49.761719 33.269531 49.585938 33.707031 49.402344 C 33.890625 49.324219 33.976562 49.109375 33.898438 48.921875 C 33.820312 48.734375 33.605469 48.648438 33.417969 48.730469 Z M 33.417969 48.730469 " fill-opacity="1" fill-rule="nonzero"/><path fill="#207ea2" d="M 30.789062 49.644531 C 30.527344 49.71875 30.257812 49.785156 29.992188 49.84375 C 29.792969 49.890625 29.671875 50.085938 29.714844 50.28125 C 29.753906 50.453125 29.902344 50.566406 30.070312 50.566406 C 30.097656 50.566406 30.125 50.5625 30.152344 50.558594 C 30.429688 50.496094 30.710938 50.425781 30.984375 50.351562 C 31.175781 50.296875 31.292969 50.097656 31.238281 49.902344 C 31.183594 49.707031 30.984375 49.59375 30.789062 49.644531 Z M 30.789062 49.644531 " fill-opacity="1" fill-rule="nonzero"/><path fill="#207ea2" d="M 46.011719 26.8125 C 45.976562 26.617188 45.789062 26.480469 45.589844 26.515625 C 45.394531 26.546875 45.257812 26.738281 45.292969 26.933594 C 45.335938 27.207031 45.378906 27.480469 45.410156 27.75 C 45.433594 27.933594 45.59375 28.070312 45.773438 28.070312 C 45.789062 28.070312 45.804688 28.070312 45.820312 28.066406 C 46.019531 28.042969 46.164062 27.859375 46.136719 27.660156 C 46.101562 27.378906 46.058594 27.09375 46.011719 26.8125 Z M 46.011719 26.8125 " fill-opacity="1" fill-rule="nonzero"/><path fill="#207ea2" d="M 45.386719 35.03125 C 45.414062 35.039062 45.441406 35.042969 45.46875 35.042969 C 45.636719 35.042969 45.785156 34.925781 45.824219 34.753906 C 45.949219 34.183594 46.050781 33.601562 46.125 33.019531 C 46.152344 32.820312 46.011719 32.636719 45.8125 32.609375 C 45.613281 32.585938 45.429688 32.726562 45.402344 32.925781 C 45.332031 33.484375 45.230469 34.046875 45.109375 34.597656 C 45.066406 34.792969 45.191406 34.988281 45.386719 35.03125 Z M 45.386719 35.03125 " fill-opacity="1" fill-rule="nonzero"/><path fill="#207ea2" d="M 45.902344 31.570312 C 45.910156 31.570312 45.914062 31.570312 45.917969 31.570312 C 46.113281 31.570312 46.273438 31.417969 46.285156 31.21875 C 46.296875 30.914062 46.304688 30.605469 46.304688 30.296875 C 46.304688 30.019531 46.296875 29.738281 46.289062 29.460938 C 46.28125 29.257812 46.109375 29.101562 45.910156 29.109375 C 45.707031 29.117188 45.550781 29.289062 45.558594 29.488281 C 45.566406 29.757812 45.574219 30.027344 45.574219 30.296875 C 45.574219 30.59375 45.566406 30.894531 45.554688 31.1875 C 45.542969 31.390625 45.699219 31.5625 45.902344 31.570312 Z M 45.902344 31.570312 " fill-opacity="1" fill-rule="nonzero"/><path fill="#207ea2" d="M 44.664062 36.28125 C 44.582031 36.542969 44.496094 36.808594 44.402344 37.0625 C 44.332031 37.253906 44.433594 37.460938 44.621094 37.53125 C 44.664062 37.546875 44.703125 37.554688 44.746094 37.554688 C 44.894531 37.554688 45.035156 37.460938 45.085938 37.3125 C 45.183594 37.042969 45.273438 36.769531 45.359375 36.5 C 45.417969 36.308594 45.3125 36.101562 45.121094 36.042969 C 44.929688 35.984375 44.722656 36.089844 44.664062 36.28125 Z M 44.664062 36.28125 " fill-opacity="1" fill-rule="nonzero"/><path fill="#207ea2" d="M 2.230469 43.625 C 2.519531 43.730469 2.84375 43.578125 2.949219 43.289062 L 3.167969 42.679688 L 4.433594 42.679688 L 4.65625 43.289062 C 4.738281 43.515625 4.953125 43.660156 5.183594 43.660156 C 5.246094 43.660156 5.3125 43.648438 5.375 43.625 C 5.628906 43.535156 5.777344 43.273438 5.738281 43.015625 C 6.015625 43.433594 6.484375 43.707031 7.019531 43.707031 C 7.265625 43.707031 7.496094 43.648438 7.703125 43.546875 C 7.796875 43.617188 7.910156 43.65625 8.039062 43.65625 C 8.347656 43.65625 8.601562 43.40625 8.601562 43.09375 L 8.601562 39.292969 C 8.601562 38.980469 8.347656 38.730469 8.039062 38.730469 C 7.726562 38.730469 7.476562 38.980469 7.476562 39.292969 L 7.476562 40.707031 C 7.332031 40.660156 7.175781 40.636719 7.019531 40.636719 C 6.171875 40.636719 5.484375 41.324219 5.484375 42.171875 C 5.484375 42.214844 5.488281 42.257812 5.492188 42.296875 L 4.332031 39.101562 C 4.25 38.878906 4.039062 38.730469 3.800781 38.730469 C 3.566406 38.730469 3.355469 38.878906 3.273438 39.101562 L 1.894531 42.902344 C 1.785156 43.195312 1.9375 43.519531 2.230469 43.625 Z M 7.019531 41.761719 C 7.246094 41.761719 7.433594 41.945312 7.433594 42.171875 C 7.433594 42.398438 7.246094 42.582031 7.019531 42.582031 C 6.796875 42.582031 6.609375 42.398438 6.609375 42.171875 C 6.609375 41.945312 6.796875 41.761719 7.019531 41.761719 Z M 4.027344 41.554688 L 3.578125 41.554688 L 3.804688 40.941406 Z M 4.027344 41.554688 " fill-opacity="1" fill-rule="nonzero"/></svg>