<svg xmlns="http://www.w3.org/2000/svg" xmlns:xlink="http://www.w3.org/1999/xlink" width="100" zoomAndPan="magnify" viewBox="0 0 75 37.5" height="50" preserveAspectRatio="xMidYMid meet" version="1.0"><defs><clipPath id="4972dc5434"><path d="M 0.492188 0 L 74.503906 0 L 74.503906 37.007812 L 0.492188 37.007812 Z M 0.492188 0 " clip-rule="nonzero"/></clipPath><clipPath id="ff5e186705"><path d="M 33 8 L 67.53125 8 L 67.53125 33.304688 L 33 33.304688 Z M 33 8 " clip-rule="nonzero"/></clipPath><clipPath id="a0d8ebcdd5"><path d="M 7.578125 10 L 34 10 L 34 28 L 7.578125 28 Z M 7.578125 10 " clip-rule="nonzero"/></clipPath><clipPath id="9c85671927"><path d="M 33 3.699219 L 58 3.699219 L 58 25 L 33 25 Z M 33 3.699219 " clip-rule="nonzero"/></clipPath></defs><g clip-path="url(#4972dc5434)"><path fill="#ffffff" d="M 0.492188 0 L 74.507812 0 L 74.507812 37.007812 L 0.492188 37.007812 Z M 0.492188 0 " fill-opacity="1" fill-rule="nonzero"/><path fill="#207ea0" d="M 0.492188 0 L 74.507812 0 L 74.507812 37.007812 L 0.492188 37.007812 Z M 0.492188 0 " fill-opacity="1" fill-rule="nonzero"/></g><g clip-path="url(#ff5e186705)"><path fill="#000c11" d="M 34.339844 13.882812 C 34.050781 14.4375 33.78125 15.101562 33.617188 15.652344 C 33.546875 15.886719 33.464844 16.191406 33.433594 16.335938 C 33.242188 17.207031 33.167969 17.914062 33.175781 18.789062 C 33.179688 19.117188 33.222656 19.664062 33.273438 20.019531 C 33.367188 20.699219 33.558594 21.476562 33.785156 22.089844 C 34.15625 23.101562 34.644531 24.003906 35.277344 24.828125 C 35.984375 25.753906 36.800781 26.511719 37.820312 27.183594 C 38.003906 27.304688 38.613281 27.65625 38.804688 27.75 C 39.679688 28.175781 40.457031 28.445312 41.355469 28.625 C 42.53125 28.863281 43.726562 28.890625 44.929688 28.707031 C 45.710938 28.589844 46.570312 28.351562 47.289062 28.050781 C 47.972656 27.769531 48.53125 27.46875 49.132812 27.0625 C 49.789062 26.621094 50.371094 26.121094 50.910156 25.542969 C 51.253906 25.167969 51.597656 24.734375 51.867188 24.328125 L 51.917969 24.253906 L 52.542969 24.613281 L 53.171875 24.972656 L 53.0625 25.164062 C 52.980469 25.308594 52.949219 25.367188 52.9375 25.40625 C 52.890625 25.578125 52.933594 25.769531 53.054688 25.902344 C 53.101562 25.957031 53.101562 25.957031 53.339844 26.097656 C 53.472656 26.175781 56.324219 27.816406 59.679688 29.742188 C 65.023438 32.8125 65.789062 33.25 65.839844 33.269531 C 65.910156 33.292969 66.03125 33.300781 66.105469 33.285156 C 66.171875 33.273438 66.25 33.238281 66.3125 33.195312 C 66.414062 33.125 66.390625 33.15625 66.972656 32.140625 L 67.503906 31.210938 L 67.515625 31.148438 C 67.527344 31.058594 67.523438 30.988281 67.5 30.90625 C 67.476562 30.820312 67.449219 30.769531 67.390625 30.699219 L 67.355469 30.652344 L 66.167969 29.96875 C 65.511719 29.589844 62.644531 27.941406 59.792969 26.304688 L 54.605469 23.328125 L 54.546875 23.316406 C 54.378906 23.285156 54.21875 23.328125 54.085938 23.441406 C 54.035156 23.480469 54.03125 23.488281 53.914062 23.6875 L 53.792969 23.890625 L 53.730469 23.847656 C 53.695312 23.824219 53.414062 23.660156 53.105469 23.484375 L 52.546875 23.164062 L 52.613281 23.027344 C 52.691406 22.871094 52.777344 22.671875 52.878906 22.425781 C 52.945312 22.257812 52.964844 22.207031 53.050781 21.964844 C 53.289062 21.285156 53.464844 20.5 53.546875 19.75 C 53.566406 19.570312 53.597656 19.113281 53.601562 18.957031 C 53.609375 18.777344 53.609375 18.71875 53.609375 18.605469 C 53.597656 16.980469 53.203125 15.375 52.460938 13.9375 C 52.167969 13.371094 51.8125 12.820312 51.417969 12.320312 C 50.789062 11.515625 50.03125 10.808594 49.199219 10.234375 C 48.738281 9.917969 48.226562 9.625 47.726562 9.390625 C 45.898438 8.535156 43.851562 8.246094 41.851562 8.554688 C 40.636719 8.742188 39.457031 9.144531 38.398438 9.734375 C 37.527344 10.222656 36.792969 10.78125 36.074219 11.507812 C 35.914062 11.667969 35.664062 11.949219 35.492188 12.15625 C 35.378906 12.292969 35.328125 12.363281 35.160156 12.582031 C 34.933594 12.875 34.539062 13.507812 34.339844 13.882812 Z M 37.128906 14.375 C 37.589844 13.707031 38.09375 13.164062 38.71875 12.671875 C 39.457031 12.09375 40.292969 11.660156 41.199219 11.386719 C 41.371094 11.332031 41.378906 11.332031 41.570312 11.285156 C 42.027344 11.171875 42.421875 11.109375 42.894531 11.078125 C 44.144531 10.996094 45.390625 11.226562 46.542969 11.753906 C 46.871094 11.902344 47.355469 12.175781 47.621094 12.355469 C 48.382812 12.878906 48.972656 13.441406 49.5 14.144531 C 50.386719 15.339844 50.90625 16.8125 50.96875 18.300781 C 51.023438 19.582031 50.75 20.847656 50.171875 22 C 50.09375 22.160156 49.824219 22.628906 49.738281 22.761719 C 49.597656 22.96875 49.453125 23.171875 49.355469 23.296875 C 49.328125 23.332031 49.28125 23.390625 49.25 23.429688 C 48.867188 23.90625 48.308594 24.425781 47.773438 24.804688 C 47.464844 25.027344 47.171875 25.203125 46.816406 25.382812 C 44.90625 26.351562 42.652344 26.460938 40.648438 25.679688 C 40.257812 25.527344 40.050781 25.425781 39.621094 25.179688 C 39.195312 24.933594 39.03125 24.828125 38.699219 24.570312 C 37.195312 23.394531 36.191406 21.683594 35.898438 19.789062 C 35.777344 19.011719 35.78125 18.21875 35.90625 17.433594 C 36.023438 16.703125 36.261719 15.960938 36.589844 15.308594 C 36.628906 15.230469 36.671875 15.144531 36.683594 15.121094 C 36.734375 15.011719 37.042969 14.503906 37.128906 14.375 Z M 37.128906 14.375 " fill-opacity="1" fill-rule="nonzero"/></g><g clip-path="url(#a0d8ebcdd5)"><path fill="#000000" d="M 13.253906 10.144531 C 12.675781 10.160156 12.484375 10.175781 12.367188 10.222656 C 12.285156 10.25 12.113281 10.292969 11.984375 10.3125 C 11.855469 10.328125 11.664062 10.367188 11.566406 10.394531 C 11.136719 10.519531 10.609375 10.691406 10.546875 10.726562 C 10.507812 10.75 10.382812 10.808594 10.265625 10.859375 C 10.148438 10.90625 10.015625 10.972656 9.964844 11.003906 C 9.917969 11.039062 9.746094 11.152344 9.589844 11.253906 C 8.910156 11.695312 8.253906 12.488281 7.988281 13.191406 C 7.949219 13.304688 7.894531 13.441406 7.871094 13.496094 C 7.847656 13.554688 7.816406 13.660156 7.804688 13.730469 C 7.792969 13.804688 7.753906 13.964844 7.71875 14.09375 C 7.636719 14.417969 7.578125 15.398438 7.621094 15.851562 C 7.679688 16.429688 7.714844 16.699219 7.769531 16.832031 C 7.796875 16.902344 7.855469 17.089844 7.902344 17.246094 C 8.03125 17.671875 8.496094 18.410156 8.804688 18.675781 C 8.839844 18.703125 8.953125 18.800781 9.054688 18.886719 C 9.410156 19.195312 10.089844 19.597656 10.496094 19.746094 C 10.617188 19.789062 10.742188 19.84375 10.78125 19.867188 C 10.816406 19.890625 10.90625 19.921875 10.980469 19.941406 C 11.054688 19.957031 11.21875 20.007812 11.347656 20.046875 C 11.855469 20.207031 13.335938 20.550781 13.851562 20.632812 C 13.925781 20.640625 14.085938 20.679688 14.203125 20.710938 C 14.324219 20.75 14.589844 20.804688 14.789062 20.847656 C 14.992188 20.886719 15.214844 20.945312 15.289062 20.980469 C 15.363281 21.015625 15.5 21.058594 15.589844 21.078125 C 15.816406 21.128906 16.328125 21.378906 16.5 21.527344 C 16.695312 21.695312 16.855469 21.921875 16.964844 22.195312 C 17.050781 22.410156 17.0625 22.464844 17.0625 22.828125 C 17.0625 23.191406 17.050781 23.25 16.964844 23.46875 C 16.71875 24.074219 16.175781 24.488281 15.375 24.679688 C 15.308594 24.695312 15.105469 24.734375 14.921875 24.769531 C 14.324219 24.878906 12.820312 24.839844 12.117188 24.699219 C 11.988281 24.675781 11.816406 24.640625 11.730469 24.628906 C 11.648438 24.617188 11.484375 24.582031 11.363281 24.546875 C 11.242188 24.511719 11.011719 24.449219 10.847656 24.410156 C 10.683594 24.371094 10.476562 24.300781 10.390625 24.257812 C 10.300781 24.21875 10.207031 24.179688 10.183594 24.179688 C 10.113281 24.179688 9.628906 24.019531 9.578125 23.980469 C 9.554688 23.964844 9.441406 23.917969 9.324219 23.878906 C 9.101562 23.808594 9.054688 23.785156 8.367188 23.464844 C 8.109375 23.339844 7.941406 23.28125 7.902344 23.292969 C 7.847656 23.3125 7.847656 23.371094 7.867188 24.089844 C 7.878906 24.515625 7.890625 25.269531 7.890625 25.769531 C 7.890625 26.816406 7.875 26.769531 8.222656 26.867188 C 8.324219 26.894531 8.460938 26.941406 8.523438 26.964844 C 8.589844 26.992188 8.703125 27.027344 8.773438 27.046875 C 8.847656 27.066406 9.023438 27.113281 9.160156 27.152344 C 9.296875 27.1875 9.5 27.242188 9.609375 27.269531 C 9.71875 27.296875 9.90625 27.34375 10.027344 27.382812 C 10.148438 27.417969 10.34375 27.464844 10.460938 27.480469 C 10.582031 27.5 10.738281 27.53125 10.8125 27.546875 C 10.886719 27.566406 11 27.582031 11.0625 27.582031 C 11.128906 27.582031 11.289062 27.621094 11.414062 27.664062 C 11.585938 27.726562 11.71875 27.75 11.90625 27.75 C 12.046875 27.75 12.347656 27.773438 12.574219 27.800781 C 12.921875 27.847656 13.21875 27.855469 14.472656 27.839844 C 15.796875 27.820312 15.988281 27.8125 16.226562 27.753906 C 16.371094 27.71875 16.582031 27.679688 16.695312 27.667969 C 16.804688 27.65625 16.976562 27.621094 17.078125 27.589844 C 17.179688 27.5625 17.34375 27.519531 17.445312 27.496094 C 17.96875 27.371094 18.738281 27.03125 19.234375 26.699219 C 19.558594 26.480469 20.085938 25.957031 20.3125 25.617188 C 20.617188 25.167969 20.953125 24.410156 20.953125 24.175781 C 20.953125 24.132812 20.988281 24.03125 21.03125 23.945312 C 21.074219 23.863281 21.128906 23.726562 21.152344 23.636719 C 21.203125 23.445312 21.242188 23.414062 21.285156 23.523438 C 21.300781 23.570312 21.328125 24.449219 21.339844 25.480469 C 21.359375 26.980469 21.375 27.363281 21.410156 27.398438 C 21.445312 27.433594 21.65625 27.441406 22.5 27.429688 C 23.070312 27.421875 24.625 27.398438 25.949219 27.382812 C 27.269531 27.363281 28.78125 27.339844 29.304688 27.332031 C 29.832031 27.320312 30.972656 27.304688 31.847656 27.296875 C 32.722656 27.28125 33.460938 27.261719 33.480469 27.25 C 33.515625 27.226562 33.515625 26.90625 33.488281 25.699219 C 33.46875 24.863281 33.441406 24.164062 33.429688 24.144531 C 33.410156 24.109375 32.601562 24.113281 30.023438 24.164062 C 29.566406 24.171875 28.425781 24.191406 27.484375 24.199219 C 25.785156 24.21875 25.78125 24.21875 25.691406 24.152344 C 25.632812 24.105469 25.597656 24.035156 25.585938 23.953125 C 25.574219 23.886719 25.5625 23.011719 25.558594 22.007812 L 25.546875 20.183594 L 25.625 20.105469 L 25.699219 20.027344 L 28.097656 20.003906 C 29.414062 19.988281 30.980469 19.964844 31.578125 19.953125 L 32.664062 19.929688 L 32.675781 18.398438 C 32.679688 17.234375 32.671875 16.859375 32.640625 16.820312 C 32.605469 16.777344 32.511719 16.773438 32.046875 16.789062 C 31.742188 16.800781 30.609375 16.816406 29.523438 16.828125 C 28.441406 16.835938 27.148438 16.855469 26.648438 16.863281 C 25.714844 16.882812 25.601562 16.875 25.535156 16.75 C 25.488281 16.664062 25.46875 16.117188 25.460938 14.746094 L 25.453125 13.597656 L 25.542969 13.519531 C 25.628906 13.449219 25.664062 13.441406 26.042969 13.441406 C 26.265625 13.441406 26.757812 13.433594 27.132812 13.425781 C 27.511719 13.417969 28.976562 13.394531 30.390625 13.375 C 32.46875 13.347656 32.972656 13.332031 33.007812 13.296875 C 33.042969 13.257812 33.046875 12.984375 33.027344 11.730469 C 33.007812 10.378906 32.996094 10.203125 32.949219 10.179688 C 32.921875 10.167969 32.421875 10.164062 31.84375 10.179688 C 31.265625 10.1875 29.386719 10.21875 27.667969 10.238281 C 21.394531 10.316406 21.226562 10.320312 21.171875 10.375 C 21.132812 10.417969 21.128906 10.679688 21.152344 12.277344 C 21.183594 14.257812 21.261719 19.898438 21.265625 20.480469 C 21.269531 21.027344 21.199219 21.242188 21.117188 20.9375 C 21.097656 20.859375 21.054688 20.765625 21.019531 20.730469 C 20.984375 20.691406 20.914062 20.527344 20.855469 20.363281 C 20.558594 19.453125 19.902344 18.75 18.832031 18.203125 C 18.632812 18.097656 18.359375 17.976562 18.230469 17.925781 C 18.101562 17.878906 17.976562 17.824219 17.953125 17.804688 C 17.929688 17.785156 17.828125 17.746094 17.730469 17.722656 C 17.628906 17.699219 17.464844 17.65625 17.367188 17.632812 C 17.269531 17.609375 17.148438 17.566406 17.09375 17.539062 C 17.039062 17.507812 16.898438 17.46875 16.777344 17.449219 C 16.328125 17.375 16 17.3125 15.832031 17.265625 C 15.734375 17.238281 15.566406 17.203125 15.457031 17.195312 C 15.347656 17.179688 15.171875 17.152344 15.074219 17.128906 C 14.972656 17.105469 14.824219 17.074219 14.738281 17.0625 C 14.472656 17.027344 13.464844 16.8125 13.085938 16.707031 C 12.863281 16.648438 12.664062 16.566406 12.28125 16.394531 C 12.058594 16.289062 11.75 16.003906 11.648438 15.808594 C 11.605469 15.722656 11.546875 15.527344 11.519531 15.375 C 11.480469 15.136719 11.480469 15.046875 11.515625 14.792969 C 11.566406 14.441406 11.625 14.285156 11.796875 14.054688 C 12.109375 13.644531 12.746094 13.347656 13.535156 13.253906 C 14.613281 13.121094 14.914062 13.113281 15.390625 13.191406 C 15.558594 13.21875 15.796875 13.242188 15.925781 13.242188 C 16.054688 13.242188 16.25 13.257812 16.359375 13.28125 C 16.46875 13.296875 16.691406 13.332031 16.847656 13.359375 C 17.007812 13.382812 17.167969 13.417969 17.207031 13.441406 C 17.246094 13.460938 17.386719 13.5 17.519531 13.523438 C 17.851562 13.585938 18.554688 13.785156 18.933594 13.929688 C 19.0625 13.976562 19.242188 14.042969 19.332031 14.078125 C 19.425781 14.109375 19.585938 14.171875 19.691406 14.21875 C 19.875 14.300781 19.882812 14.304688 19.914062 14.246094 C 19.933594 14.210938 19.941406 13.578125 19.925781 12.5625 C 19.910156 11.144531 19.902344 10.929688 19.855469 10.871094 C 19.816406 10.824219 19.730469 10.796875 19.558594 10.777344 C 19.429688 10.761719 19.304688 10.738281 19.28125 10.726562 C 19.261719 10.710938 19.140625 10.6875 19.011719 10.671875 C 18.886719 10.65625 18.742188 10.621094 18.691406 10.59375 C 18.636719 10.570312 18.507812 10.539062 18.398438 10.527344 C 18.285156 10.515625 18.070312 10.484375 17.914062 10.457031 C 16.183594 10.167969 15.109375 10.09375 13.253906 10.144531 Z M 13.253906 10.144531 " fill-opacity="1" fill-rule="nonzero"/></g><g clip-path="url(#9c85671927)"><path fill="#000000" d="M 57.539062 3.707031 C 57.28125 3.707031 56.203125 4.15625 52.609375 5.695312 C 49.902344 6.863281 47.730469 7.84375 47.800781 7.871094 C 47.867188 7.902344 48.890625 8.058594 50.078125 8.203125 C 51.265625 8.351562 52.246094 8.488281 52.265625 8.5 C 52.28125 8.515625 51.691406 9.695312 50.746094 11.546875 C 50.363281 12.292969 49.925781 13.144531 49.445312 14.074219 C 49.445312 14.074219 49.445312 14.078125 49.445312 14.078125 C 48.953125 15.03125 48.417969 16.0625 47.859375 17.140625 L 46.984375 18.816406 L 43.089844 16.152344 L 39.199219 13.484375 L 38.25 14.613281 C 37.457031 15.566406 36.636719 16.558594 35.902344 17.457031 C 34.542969 19.113281 33.472656 20.445312 33.371094 20.597656 C 33.363281 20.605469 33.363281 20.613281 33.363281 20.613281 C 33.363281 20.613281 33.367188 20.609375 33.371094 20.609375 C 33.371094 20.609375 33.371094 20.605469 33.371094 20.605469 L 33.375 20.605469 C 33.414062 20.578125 33.441406 20.558594 33.464844 20.558594 C 33.53125 20.558594 33.535156 20.714844 33.535156 21.226562 L 33.535156 21.300781 C 33.613281 21.578125 33.695312 21.847656 33.785156 22.089844 C 33.824219 22.203125 33.867188 22.316406 33.914062 22.425781 L 35.84375 20.175781 C 35.878906 20.136719 35.910156 20.097656 35.945312 20.058594 C 37.6875 18.035156 39.121094 16.394531 39.171875 16.394531 C 39.230469 16.394531 39.757812 16.863281 40.347656 17.445312 C 45.261719 22.203125 47.230469 24.058594 47.371094 24.058594 C 47.375 24.058594 47.375 24.058594 47.378906 24.058594 C 47.4375 23.996094 48.71875 21.753906 50.933594 17.828125 C 51.484375 16.84375 52.097656 15.757812 52.761719 14.574219 C 52.878906 14.363281 53 14.152344 53.121094 13.9375 C 54.132812 12.132812 55.015625 10.59375 55.074219 10.527344 C 55.082031 10.519531 55.09375 10.515625 55.105469 10.515625 C 55.230469 10.515625 55.585938 10.929688 56.558594 12.210938 C 57.304688 13.191406 57.925781 13.984375 57.960938 13.984375 C 58.007812 13.945312 57.667969 3.882812 57.605469 3.738281 C 57.597656 3.71875 57.578125 3.707031 57.539062 3.707031 Z M 57.539062 3.707031 " fill-opacity="1" fill-rule="nonzero"/></g></svg>