<svg xmlns="http://www.w3.org/2000/svg" xmlns:xlink="http://www.w3.org/1999/xlink" width="175" zoomAndPan="magnify" viewBox="0 0 131.25 93.749997" height="125" preserveAspectRatio="xMidYMid meet" version="1.0"><defs><clipPath id="7d1fc207ee"><path d="M 0 0.140625 L 130.503906 0.140625 L 130.503906 93.359375 L 0 93.359375 Z M 0 0.140625 " clip-rule="nonzero"/></clipPath><clipPath id="ac616d9dbd"><path d="M 22 33 L 67 33 L 67 69.121094 L 22 69.121094 Z M 22 33 " clip-rule="nonzero"/></clipPath><clipPath id="edbf9e1211"><path d="M 112 5.734375 L 121.183594 5.734375 L 121.183594 15 L 112 15 Z M 112 5.734375 " clip-rule="nonzero"/></clipPath><clipPath id="76b2077503"><path d="M 9.320312 33 L 49 33 L 49 69.121094 L 9.320312 69.121094 Z M 9.320312 33 " clip-rule="nonzero"/></clipPath><clipPath id="ac4c8bc0b7"><path d="M 35.605469 58 L 95 58 L 95 84 L 35.605469 84 Z M 35.605469 58 " clip-rule="nonzero"/></clipPath></defs><g clip-path="url(#7d1fc207ee)"><path fill="#ffffff" d="M 0 0.140625 L 130.503906 0.140625 L 130.503906 93.359375 L 0 93.359375 Z M 0 0.140625 " fill-opacity="1" fill-rule="nonzero"/><path fill="#f0f0f0" d="M 0 0.140625 L 130.503906 0.140625 L 130.503906 93.359375 L 0 93.359375 Z M 0 0.140625 " fill-opacity="1" fill-rule="nonzero"/></g><g clip-path="url(#ac616d9dbd)"><path fill="#005ea2" d="M 66.570312 44.40625 L 63.652344 47.328125 L 55.699219 39.375 L 51.875 43.195312 L 48.953125 46.117188 L 25.730469 69.347656 L 22.808594 66.425781 L 46.035156 43.195312 L 48.953125 40.277344 L 55.695312 33.53125 Z M 66.570312 44.40625 " fill-opacity="1" fill-rule="nonzero"/></g><path fill="#005ea2" d="M 117.0625 13.054688 L 74.78125 55.527344 L 73.320312 56.996094 L 63.652344 47.328125 L 66.570312 44.40625 L 73.3125 51.148438 L 114.136719 10.140625 Z M 117.0625 13.054688 " fill-opacity="1" fill-rule="nonzero"/><path fill="#757575" d="M 96.515625 17.179688 L 88.289062 19.5 L 94.410156 25.464844 Z M 96.515625 17.179688 " fill-opacity="1" fill-rule="nonzero"/><g clip-path="url(#edbf9e1211)"><path fill="#005ea2" d="M 121.183594 5.75 L 112.957031 8.066406 L 119.078125 14.03125 Z M 121.183594 5.75 " fill-opacity="1" fill-rule="nonzero"/></g><g clip-path="url(#76b2077503)"><path fill="#757575" d="M 42.210938 33.53125 L 48.953125 40.277344 L 46.035156 43.195312 L 42.210938 39.375 L 12.242188 69.347656 L 9.320312 66.425781 Z M 42.210938 33.53125 " fill-opacity="1" fill-rule="nonzero"/></g><path fill="#757575" d="M 92.359375 24.445312 L 69.492188 47.324219 L 66.570312 50.246094 L 61.292969 55.53125 L 59.832031 56.992188 L 48.953125 46.117188 L 51.875 43.195312 L 59.828125 51.152344 L 63.652344 47.328125 L 66.570312 44.40625 L 89.4375 21.527344 Z M 92.359375 24.445312 " fill-opacity="1" fill-rule="nonzero"/><g clip-path="url(#ac4c8bc0b7)"><path fill="#005ea2" d="M 59.070312 75.390625 C 59.316406 75.386719 59.5625 75.464844 59.785156 75.601562 C 60.414062 75.984375 60.640625 76.851562 60.257812 77.582031 L 58.550781 80.785156 C 58.164062 81.511719 57.359375 81.730469 56.734375 81.335938 C 56.105469 80.945312 55.878906 80.085938 56.269531 79.355469 L 57.976562 76.148438 C 58.253906 75.625 58.660156 75.398438 59.070312 75.390625 Z M 54.898438 74.050781 C 55.136719 74.050781 55.394531 74.121094 55.667969 74.246094 C 56.339844 74.554688 56.519531 75.492188 56.128906 76.21875 L 54.429688 79.425781 C 54.039062 80.15625 53.242188 80.367188 52.617188 79.972656 C 51.988281 79.582031 51.761719 78.722656 52.144531 77.996094 L 53.851562 74.792969 C 54.132812 74.261719 54.492188 74.050781 54.898438 74.050781 Z M 50.148438 73.71875 C 50.390625 73.714844 50.648438 73.789062 50.902344 73.9375 C 51.539062 74.3125 51.753906 75.191406 51.367188 75.914062 L 49.664062 79.121094 C 49.273438 79.851562 48.476562 80.070312 47.851562 79.675781 C 47.222656 79.285156 46.992188 78.421875 47.382812 77.695312 L 49.089844 74.488281 C 49.367188 73.960938 49.742188 73.726562 50.148438 73.71875 Z M 45.539062 73.066406 C 45.78125 73.066406 46.039062 73.132812 46.308594 73.257812 C 46.980469 73.566406 47.246094 74.34375 46.773438 75.238281 L 45.066406 78.441406 C 44.679688 79.167969 43.886719 79.390625 43.257812 78.996094 C 42.628906 78.601562 42.40625 77.746094 42.792969 77.015625 L 44.496094 73.8125 C 44.773438 73.285156 45.136719 73.074219 45.539062 73.066406 Z M 53.164062 59.746094 C 53.605469 59.757812 54.027344 59.921875 54.40625 60.277344 L 57.410156 63.089844 L 54.039062 63.410156 C 53.957031 63.414062 53.875 63.433594 53.800781 63.464844 L 47.398438 66.242188 C 46.699219 66.550781 46.292969 66.292969 46.039062 65.90625 C 45.789062 65.523438 45.742188 65.097656 46.199219 64.714844 L 50.925781 60.734375 C 51.65625 60.125 52.4375 59.726562 53.164062 59.746094 Z M 53.421875 58.234375 C 52.199219 58.152344 50.910156 58.691406 49.914062 59.527344 L 46.582031 62.328125 L 36.761719 61.742188 C 35.75 61.679688 35.730469 63.273438 36.746094 63.324219 L 44.890625 63.8125 C 44.144531 64.6875 44.160156 65.929688 44.722656 66.78125 C 45.34375 67.726562 46.703125 68.269531 48.027344 67.6875 L 54.308594 64.960938 L 59.21875 64.496094 L 66.171875 64.828125 C 66.289062 64.832031 66.410156 64.8125 66.523438 64.761719 C 66.523438 64.761719 73.023438 62.015625 76.265625 60.605469 C 78.117188 59.796875 79.988281 59.984375 81.222656 61.144531 C 81.578125 61.484375 82.082031 61.96875 82.550781 62.414062 L 79.957031 62.570312 C 79.195312 62.617188 78.585938 62.789062 78.109375 63.105469 C 77.636719 63.421875 77.332031 63.90625 77.222656 64.375 C 77.011719 65.324219 77.382812 66.136719 77.859375 66.683594 L 88.144531 78.492188 C 89.359375 79.882812 87.171875 81.671875 85.847656 80.441406 L 79.152344 74.238281 C 78.996094 74.097656 78.789062 74.015625 78.578125 74.027344 C 77.871094 74.058594 77.558594 74.925781 78.082031 75.394531 L 83.195312 80.136719 C 83.285156 80.445312 83.105469 80.703125 82.894531 80.914062 C 82.566406 81.242188 82.132812 81.445312 81.265625 80.769531 L 76.15625 76.765625 C 76.007812 76.644531 75.824219 76.585938 75.640625 76.589844 C 74.890625 76.597656 74.574219 77.554688 75.171875 78.007812 L 78.554688 80.648438 C 78.75 80.9375 78.695312 81.28125 78.472656 81.488281 C 78.222656 81.71875 77.703125 81.9375 76.5625 81.125 L 71.839844 77.757812 C 71.691406 77.648438 71.507812 77.59375 71.324219 77.605469 C 70.578125 77.660156 70.316406 78.621094 70.925781 79.042969 L 73.414062 80.816406 C 74.535156 81.613281 73.339844 82.960938 71.773438 81.746094 L 64.820312 76.339844 C 64.664062 76.222656 64.476562 76.164062 64.277344 76.179688 L 61.898438 76.34375 C 61.757812 75.484375 61.289062 74.683594 60.527344 74.207031 C 59.570312 73.609375 58.449219 73.691406 57.582031 74.269531 C 57.347656 73.699219 56.953125 73.191406 56.410156 72.851562 C 55.121094 72.042969 53.523438 72.460938 52.691406 73.699219 C 52.449219 73.238281 52.105469 72.832031 51.644531 72.546875 C 50.464844 71.808594 49.015625 72.089844 48.144531 73.101562 C 47.898438 72.605469 47.535156 72.171875 47.050781 71.867188 C 46.535156 71.542969 45.964844 71.414062 45.414062 71.457031 C 44.503906 71.527344 43.640625 72.070312 43.15625 72.972656 L 41.453125 76.175781 C 41.179688 76.699219 41.066406 77.273438 41.089844 77.84375 L 36.695312 78.425781 C 35.632812 78.535156 35.839844 80.144531 36.898438 79.984375 L 41.546875 79.371094 C 41.785156 79.773438 42.105469 80.132812 42.511719 80.390625 C 43.691406 81.132812 45.144531 80.839844 46.023438 79.832031 C 46.261719 80.328125 46.628906 80.765625 47.113281 81.066406 C 48.402344 81.875 50 81.460938 50.832031 80.214844 C 51.074219 80.679688 51.417969 81.085938 51.875 81.367188 C 52.828125 81.96875 53.957031 81.890625 54.816406 81.308594 C 55.054688 81.882812 55.449219 82.386719 55.992188 82.726562 C 57.367188 83.585938 59.128906 83.074219 59.882812 81.617188 L 61.789062 77.933594 L 64.085938 77.769531 L 70.8125 82.988281 C 71.59375 83.59375 72.335938 83.898438 73.042969 83.90625 C 73.75 83.910156 74.371094 83.574219 74.753906 83.113281 C 75 82.816406 75.160156 82.472656 75.253906 82.117188 L 75.652344 82.40625 C 77.164062 83.480469 78.683594 83.441406 79.546875 82.636719 C 79.789062 82.414062 79.957031 82.132812 80.078125 81.835938 L 80.296875 82.011719 C 81.617188 83.046875 83.140625 82.839844 83.96875 82.070312 C 84.195312 81.859375 84.371094 81.621094 84.511719 81.355469 L 84.777344 81.601562 C 85.429688 82.210938 86.175781 82.523438 86.894531 82.539062 C 87.613281 82.558594 88.261719 82.277344 88.765625 81.867188 C 89.492188 81.269531 89.988281 80.402344 90.085938 79.476562 L 93.664062 79.984375 C 94.707031 80.132812 94.929688 78.5625 93.886719 78.421875 L 89.652344 77.820312 L 79.046875 65.652344 C 78.152344 64.621094 79.113281 64.199219 80.054688 64.144531 L 93.820312 63.324219 C 94.820312 63.25 94.78125 61.6875 93.777344 61.742188 L 84.699219 62.289062 C 84.375 61.964844 83.113281 60.710938 82.308594 60.003906 C 81.164062 59.007812 79.996094 58.546875 78.699219 58.546875 C 77.410156 58.546875 76.539062 58.773438 75.640625 59.15625 C 72.445312 60.523438 66.261719 63.152344 66.058594 63.242188 L 59.546875 62.929688 L 55.484375 59.132812 C 54.875 58.5625 54.160156 58.28125 53.421875 58.234375 Z M 53.421875 58.234375 " fill-opacity="1" fill-rule="nonzero"/></g></svg>