<svg xmlns="http://www.w3.org/2000/svg" xmlns:xlink="http://www.w3.org/1999/xlink" width="400" zoomAndPan="magnify" viewBox="0 0 300 82.499998" height="110" preserveAspectRatio="xMidYMid meet" version="1.0"><defs><g/><clipPath id="7c8703dde0"><path d="M 43 28 L 56.628906 28 L 56.628906 47 L 43 47 Z M 43 28 " clip-rule="nonzero"/></clipPath><clipPath id="e9689cb094"><path d="M 39 50 L 56.628906 50 L 56.628906 68 L 39 68 Z M 39 50 " clip-rule="nonzero"/></clipPath></defs><path fill="#207ea0" d="M 19.558594 2.074219 C 19.300781 2.074219 18.746094 1.992188 18.015625 1.34375 C 17.515625 1.34375 17.011719 1.34375 16.507812 1.34375 C 16.457031 1.667969 16.328125 1.832031 16.003906 1.992188 C 16.101562 2.578125 16.183594 3.226562 16.28125 3.972656 C 17.984375 4.71875 17.984375 6.652344 16.652344 7.203125 C 16.261719 7.367188 14.703125 7.660156 14.023438 6.148438 C 13.113281 6.148438 12.203125 6.148438 11.328125 6.148438 C 10.140625 7.773438 8.226562 7.578125 7.984375 6.507812 C 7.675781 5.109375 9.980469 3.292969 11.132812 4.007812 C 11.523438 4.25 11.605469 4.65625 11.636719 4.867188 C 12.449219 4.867188 13.261719 4.867188 14.105469 4.867188 C 14.363281 4.394531 14.625 4.152344 15.09375 3.957031 C 15.09375 3.226562 15.09375 2.5625 15.078125 1.976562 C 13.941406 1.441406 14.476562 0.386719 15.046875 0.15625 C 15.257812 0.0585938 15.710938 0.0117188 16.230469 0.613281 C 16.652344 0.613281 17.074219 0.613281 17.480469 0.613281 C 17.335938 0.207031 17.417969 0.125 17.660156 0.09375 C 18.375 0.15625 19.332031 0.710938 19.738281 1.148438 C 20.210938 1.652344 20.113281 2.058594 19.558594 2.074219 Z M 19.558594 2.074219 " fill-opacity="1" fill-rule="nonzero"/><path fill="#207ea0" d="M 28.488281 7.316406 C 28.328125 7.367188 27.402344 7.5625 25.8125 6.148438 C 25.046875 6.148438 24.253906 6.148438 23.441406 6.148438 C 23.570312 7.660156 21.898438 7.609375 20.808594 6.796875 C 19.445312 5.777344 19.414062 4.136719 20.421875 3.890625 C 20.648438 3.84375 21.492188 3.746094 22.710938 4.882812 C 23.457031 4.882812 24.171875 4.882812 24.871094 4.882812 C 24.675781 4.394531 24.675781 4.167969 24.871094 3.972656 C 24.171875 3.242188 23.441406 2.578125 22.675781 1.992188 C 21.230469 1.523438 19.785156 0.386719 19.65625 0.175781 C 19.722656 0.140625 19.949219 0.0117188 21.523438 0.628906 C 21.847656 0.628906 22.175781 0.628906 22.480469 0.628906 C 21.703125 0.269531 21.605469 0.222656 21.492188 0.140625 C 21.507812 0.125 21.523438 0.125 21.523438 0.109375 C 22.109375 0.175781 23.75 0.613281 25.015625 1.164062 C 26.054688 1.617188 26.25 1.878906 26.332031 1.976562 C 26.332031 1.992188 26.3125 2.023438 26.3125 2.042969 C 26.039062 2.105469 25.601562 2.007812 24.042969 1.328125 C 23.667969 1.328125 23.292969 1.328125 22.886719 1.328125 C 23.308594 1.636719 23.441406 1.8125 23.390625 1.976562 C 24.21875 2.5625 25.015625 3.210938 25.777344 3.957031 C 28.164062 4.816406 29.625 6.945312 28.488281 7.316406 Z M 28.488281 7.316406 " fill-opacity="1" fill-rule="nonzero"/><path fill="#207ea0" d="M 34.546875 6.148438 L 32.988281 6.148438 C 33.914062 7.238281 33.394531 7.351562 33.117188 7.351562 C 31.753906 7.351562 28.066406 4.347656 28.878906 3.890625 C 28.894531 3.875 29.367188 3.632812 31.414062 4.882812 L 32.824219 4.882812 C 32.222656 4.378906 31.996094 4.152344 31.914062 3.972656 C 32.875 3.925781 37.304688 6.667969 37.09375 7.316406 C 36.820312 7.398438 36.316406 7.300781 34.546875 6.148438 Z M 34.546875 6.148438 " fill-opacity="1" fill-rule="nonzero"/><path fill="#207ea0" d="M 9.183594 20.113281 C 10.582031 20.113281 11.992188 20.113281 13.421875 20.113281 C 13.828125 19.285156 14.28125 18.878906 15.144531 18.503906 C 15.144531 17.175781 15.144531 15.890625 15.144531 14.671875 C 12.59375 13.519531 13.488281 10.859375 15.0625 10.242188 C 15.257812 10.160156 17.074219 9.511719 18.277344 11.507812 C 19.429688 11.507812 20.550781 11.507812 21.652344 11.507812 C 21.898438 10.550781 22.367188 10.144531 23.328125 10.0625 C 25.582031 10.289062 26.332031 12.320312 26.410156 12.855469 C 26.6875 14.753906 24.527344 15.535156 22.808594 14.152344 C 22.417969 13.84375 22.191406 13.503906 22.011719 13.246094 C 20.84375 13.246094 19.65625 13.246094 18.457031 13.246094 C 18.195312 13.960938 17.824219 14.332031 17.089844 14.671875 C 17.15625 15.890625 17.207031 17.175781 17.269531 18.503906 C 20.191406 19.835938 19.59375 23.050781 17.53125 23.914062 C 17.496094 23.929688 14.703125 25 13.375 22.222656 C 11.894531 22.222656 10.433594 22.222656 8.988281 22.222656 C 7.367188 25.097656 4.070312 24.382812 3.566406 22.304688 C 2.949219 19.835938 5.789062 17.449219 7.964844 18.585938 C 8.761719 19.023438 9.054688 19.753906 9.183594 20.113281 Z M 9.183594 20.113281 " fill-opacity="1" fill-rule="nonzero"/><path fill="#207ea0" d="M 38.539062 14.820312 C 37.859375 14.691406 37.078125 14.152344 36.21875 13.246094 C 35.359375 13.246094 34.449219 13.246094 33.507812 13.246094 C 33.621094 13.960938 33.492188 14.332031 33.035156 14.671875 C 33.589844 15.890625 34.109375 17.175781 34.578125 18.503906 C 37.648438 19.984375 37.746094 23.585938 35.878906 24.089844 C 35.570312 24.171875 33.976562 24.464844 32.515625 22.222656 C 31.28125 22.222656 30 22.222656 28.683594 22.222656 C 27.9375 25.113281 24.527344 24.382812 23.441406 22.304688 C 22.253906 20.082031 23.960938 17.726562 26.25 18.441406 C 27.402344 18.796875 27.988281 19.691406 28.261719 20.113281 C 29.527344 20.113281 30.78125 20.113281 31.980469 20.113281 C 32.078125 19.285156 32.320312 18.863281 32.890625 18.503906 C 32.453125 17.175781 31.980469 15.890625 31.476562 14.671875 C 28.636719 13.390625 28.3125 10.46875 29.59375 10.109375 C 29.886719 10.03125 30.941406 9.882812 32.53125 11.507812 C 33.425781 11.507812 34.285156 11.507812 35.097656 11.507812 C 34.773438 10.53125 34.886719 10.144531 35.535156 10.0625 C 37.339844 10.304688 38.847656 12.320312 39.15625 12.855469 C 39.90625 14.136719 39.628906 15.03125 38.539062 14.820312 Z M 38.539062 14.820312 " fill-opacity="1" fill-rule="nonzero"/><path fill="#207ea0" d="M 48.949219 24.15625 C 48.605469 24.171875 47.859375 23.945312 46.675781 22.238281 C 45.894531 22.238281 45.050781 22.238281 44.160156 22.238281 C 44.386719 24.660156 42.648438 24.351562 41.65625 23.636719 C 39.695312 22.222656 38.832031 18.878906 40.308594 18.375 C 40.601562 18.277344 41.691406 18.097656 43.25 20.113281 C 44.125 20.113281 44.9375 20.113281 45.683594 20.113281 C 45.472656 19.285156 45.472656 18.863281 45.683594 18.503906 C 44.9375 17.175781 44.125 15.890625 43.25 14.671875 C 41.089844 13.472656 39.109375 10.484375 39.660156 10.109375 C 39.742188 10.046875 40.292969 9.835938 42.195312 11.507812 C 42.679688 11.507812 43.121094 11.507812 43.492188 11.507812 C 42.695312 10.53125 42.566406 10.257812 42.601562 10.09375 C 42.617188 10.09375 42.648438 10.078125 42.664062 10.0625 C 43.460938 10.273438 45.214844 11.996094 45.976562 12.855469 C 47.195312 14.25 47.210938 14.65625 47.210938 14.804688 C 47.015625 14.902344 46.644531 14.789062 45.085938 13.261719 C 44.695312 13.261719 44.222656 13.261719 43.71875 13.261719 C 44.160156 13.976562 44.273438 14.347656 44.175781 14.691406 C 45.066406 15.90625 45.910156 17.191406 46.691406 18.523438 C 49.109375 20.046875 50.410156 24.089844 48.949219 24.15625 Z M 48.949219 24.15625 " fill-opacity="1" fill-rule="nonzero"/><path fill="#207ea0" d="M 6.585938 39.726562 C 7.609375 40.261719 8.015625 41.1875 8.210938 41.625 C 9.832031 41.625 11.472656 41.625 13.144531 41.625 C 13.601562 40.605469 14.121094 40.066406 15.144531 39.613281 C 15.144531 37.925781 15.144531 36.269531 15.144531 34.628906 C 11.914062 33.101562 12.691406 29.433594 15.046875 28.476562 C 15.160156 28.425781 17.9375 27.339844 19.445312 30.292969 C 21.019531 30.292969 22.5625 30.292969 24.074219 30.292969 C 24.625 28.914062 25.390625 28.34375 26.800781 28.214844 C 30.324219 28.589844 30.144531 32.128906 30.144531 32.160156 C 29.871094 34.953125 26.542969 35.8125 24.738281 33.574219 C 24.542969 33.328125 24.367188 32.972656 24.21875 32.710938 C 22.675781 32.710938 21.117188 32.710938 19.527344 32.710938 C 19.105469 33.6875 18.617188 34.191406 17.644531 34.628906 C 17.660156 36.253906 17.675781 37.925781 17.675781 39.613281 C 20.988281 41.238281 20.175781 45.167969 17.757812 46.207031 C 17.726562 46.222656 14.6875 47.472656 13.144531 44.222656 C 11.472656 44.222656 9.816406 44.222656 8.210938 44.222656 C 6.699219 47.585938 3.0625 46.757812 2.105469 44.320312 C 0.902344 41.269531 3.84375 38.265625 6.585938 39.726562 Z M 6.585938 39.726562 " fill-opacity="1" fill-rule="nonzero"/><path fill="#207ea0" d="M 24.496094 44.320312 C 23.425781 41.511719 25.828125 38.605469 28.441406 39.53125 C 29.738281 39.988281 30.210938 41.089844 30.4375 41.625 C 31.914062 41.625 33.359375 41.625 34.773438 41.625 C 35.148438 40.605469 35.570312 40.066406 36.382812 39.613281 C 36.332031 37.925781 36.234375 36.269531 36.089844 34.628906 C 33.003906 32.921875 33.554688 28.832031 35.699219 28.28125 C 36.152344 28.167969 37.746094 27.957031 39.027344 30.292969 C 40.261719 30.292969 41.429688 30.292969 42.550781 30.292969 C 42.746094 28.914062 43.214844 28.34375 44.207031 28.214844 C 46.804688 28.589844 47.128906 32.128906 47.128906 32.160156 C 47.257812 34.546875 45.621094 35.652344 44.042969 34.253906 C 43.476562 33.75 43.214844 33.214844 42.972656 32.710938 C 41.835938 32.710938 40.636719 32.710938 39.386719 32.710938 C 39.171875 33.6875 38.832031 34.191406 38.085938 34.628906 C 38.25 36.253906 38.363281 37.925781 38.410156 39.613281 C 41.367188 41.398438 40.132812 45.847656 37.90625 46.417969 C 37.402344 46.546875 35.699219 46.757812 34.757812 44.242188 C 33.359375 44.242188 31.914062 44.242188 30.4375 44.242188 C 28.960938 47.585938 25.421875 46.757812 24.496094 44.320312 Z M 24.496094 44.320312 " fill-opacity="1" fill-rule="nonzero"/><g clip-path="url(#7c8703dde0)"><path fill="#207ea0" d="M 55.882812 34.808594 C 55.539062 34.644531 55.152344 33.929688 54.695312 32.695312 C 54.175781 32.695312 53.574219 32.695312 52.894531 32.695312 C 52.910156 33.671875 52.78125 34.175781 52.40625 34.613281 C 52.667969 36.234375 52.84375 37.910156 52.941406 39.597656 C 54.808594 41.511719 53.964844 46.433594 52.261719 46.464844 C 51.789062 46.480469 51.15625 46.089844 50.765625 44.207031 C 49.890625 44.207031 48.933594 44.207031 47.925781 44.207031 C 46.886719 47.359375 44.710938 46.871094 43.867188 44.921875 C 42.679688 42.164062 44.46875 38.523438 46.496094 39.53125 C 47.421875 39.988281 47.761719 41.089844 47.925781 41.625 C 48.933594 41.625 49.890625 41.625 50.765625 41.625 C 50.996094 40.605469 51.238281 40.066406 51.707031 39.613281 C 51.609375 37.925781 51.449219 36.269531 51.1875 34.628906 C 49.0625 32.859375 48.785156 28.265625 50.34375 28.214844 C 50.703125 28.199219 51.449219 28.457031 52.308594 30.292969 C 52.976562 30.292969 53.574219 30.292969 54.078125 30.292969 C 53.917969 28.914062 53.980469 28.34375 54.355469 28.214844 C 55.460938 28.605469 56.207031 32.128906 56.207031 32.160156 C 56.578125 33.914062 56.433594 35.082031 55.882812 34.808594 Z M 55.882812 34.808594 " fill-opacity="1" fill-rule="nonzero"/></g><path fill="#207ea0" d="M 7.480469 61.824219 C 8.4375 62.28125 8.875 63.042969 9.070312 63.398438 C 10.484375 63.398438 11.929688 63.398438 13.390625 63.398438 C 13.78125 62.554688 14.234375 62.117188 15.144531 61.710938 C 15.144531 60.28125 15.144531 58.789062 15.144531 57.277344 C 11.929688 55.800781 12.722656 52.164062 15.0625 51.191406 C 15.09375 51.175781 18.097656 49.972656 19.496094 53.058594 C 21.085938 53.058594 22.644531 53.058594 24.171875 53.058594 C 24.886719 51.660156 25.777344 51.042969 27.257812 50.914062 C 30.292969 51.253906 30.195312 53.984375 29.917969 54.910156 C 29.058594 57.816406 25.421875 58.433594 24.203125 55.867188 C 24.136719 55.738281 24.089844 55.558594 24.023438 55.429688 C 22.515625 55.429688 20.988281 55.429688 19.429688 55.429688 C 18.976562 56.351562 18.472656 56.839844 17.53125 57.246094 C 17.496094 58.773438 17.449219 60.25 17.417969 61.679688 C 20.191406 62.996094 19.382812 66.160156 17.285156 67.003906 C 17.1875 67.039062 14.785156 67.960938 13.453125 65.445312 C 12.042969 65.445312 10.644531 65.445312 9.28125 65.445312 C 8.160156 68.402344 4.75 67.28125 3.875 64.992188 C 2.949219 62.621094 5.109375 60.703125 7.480469 61.824219 Z M 7.480469 61.824219 " fill-opacity="1" fill-rule="nonzero"/><path fill="#207ea0" d="M 33.816406 67.199219 C 33.261719 67.328125 31.933594 67.394531 31.6875 65.496094 C 30.503906 65.496094 29.285156 65.496094 28.035156 65.496094 C 26.234375 68.171875 23.539062 67.492188 23.019531 65.574219 C 22.320312 63.058594 25.242188 60.574219 27.417969 61.839844 C 28.199219 62.296875 28.390625 63.058594 28.488281 63.417969 C 29.789062 63.417969 31.039062 63.417969 32.273438 63.417969 C 32.824219 62.570312 33.3125 62.117188 34.15625 61.726562 C 34.515625 60.300781 34.839844 58.804688 35.113281 57.296875 C 32.515625 55.65625 34.238281 51.53125 36.445312 51.011719 C 36.964844 50.882812 38.671875 50.671875 39.222656 53.089844 C 40.457031 53.089844 41.640625 53.089844 42.777344 53.089844 C 43.492188 51.695312 44.207031 51.078125 45.261719 50.945312 C 47.4375 51.289062 46.871094 54.195312 46.609375 54.941406 C 45.734375 57.375 43.507812 58.335938 42.632812 56.644531 C 42.421875 56.257812 42.371094 55.800781 42.324219 55.460938 C 41.203125 55.460938 40.035156 55.460938 38.816406 55.460938 C 38.3125 56.386719 37.84375 56.871094 37.015625 57.277344 C 36.707031 58.804688 36.363281 60.28125 35.957031 61.710938 C 38.070312 63.207031 35.957031 66.730469 33.816406 67.199219 Z M 33.816406 67.199219 " fill-opacity="1" fill-rule="nonzero"/><g clip-path="url(#e9689cb094)"><path fill="#207ea0" d="M 45.359375 67.230469 C 44.792969 67.003906 45.101562 65.867188 45.214844 65.496094 C 44.46875 65.496094 43.671875 65.496094 42.8125 65.496094 C 41.007812 67.769531 39.269531 67.703125 39.191406 66.046875 C 39.042969 63.5625 42.160156 60.476562 43.460938 61.824219 C 43.898438 62.28125 43.800781 63.042969 43.769531 63.398438 C 44.644531 63.398438 45.488281 63.398438 46.253906 63.398438 C 46.855469 62.539062 47.292969 62.101562 47.910156 61.710938 C 48.527344 60.28125 49.078125 58.789062 49.550781 57.277344 C 48.234375 55.542969 50.132812 50.945312 51.691406 50.929688 C 52.082031 50.929688 52.714844 51.191406 52.667969 53.074219 C 53.332031 53.074219 53.933594 53.074219 54.453125 53.074219 C 55.003906 51.660156 55.394531 51.058594 55.832031 50.929688 C 56.628906 51.269531 55.832031 54.175781 55.589844 54.925781 C 55.039062 56.566406 54.160156 57.960938 53.804688 57.34375 C 53.574219 56.953125 53.722656 55.929688 53.804688 55.445312 C 53.285156 55.445312 52.699219 55.445312 52.035156 55.445312 C 51.578125 56.371094 51.222656 56.855469 50.652344 57.261719 C 50.167969 58.789062 49.597656 60.265625 48.949219 61.695312 C 49.890625 63.515625 46.546875 67.6875 45.359375 67.230469 Z M 45.359375 67.230469 " fill-opacity="1" fill-rule="nonzero"/></g><path fill="#207ea0" d="M 9.71875 77.964844 C 10.386719 78.0625 10.96875 78.453125 11.457031 79.101562 C 12.300781 79.101562 13.164062 79.101562 14.054688 79.101562 C 14.265625 78.582031 14.542969 78.320312 15.109375 78.0625 C 15.109375 77.167969 15.109375 76.195312 15.128906 75.171875 C 12.933594 74.179688 13.195312 71.601562 15.0625 70.851562 C 15.679688 70.609375 17.628906 70.316406 18.375 72.214844 C 19.558594 72.214844 20.710938 72.214844 21.847656 72.214844 C 22.546875 71.195312 23.308594 70.738281 24.445312 70.65625 C 26.738281 70.902344 26.167969 72.882812 25.777344 73.546875 C 24.722656 75.414062 22.140625 76.097656 21.539062 74.214844 C 21.507812 74.132812 21.492188 74.003906 21.476562 73.90625 C 20.402344 73.90625 19.300781 73.90625 18.195312 73.90625 C 17.824219 74.554688 17.449219 74.878906 16.785156 75.15625 C 16.703125 76.195312 16.636719 77.152344 16.554688 78.046875 C 18.261719 78.875 17.433594 80.691406 16.261719 81.148438 C 16.050781 81.226562 14.914062 81.585938 14.167969 80.285156 C 13.375 80.285156 12.59375 80.285156 11.816406 80.285156 C 11.507812 81.992188 9.492188 81.148438 8.679688 80.027344 C 7.722656 78.777344 8.46875 77.769531 9.71875 77.964844 Z M 9.71875 77.964844 " fill-opacity="1" fill-rule="nonzero"/><path fill="#207ea0" d="M 22.9375 78.273438 C 23.164062 78.550781 23.132812 78.824219 23.097656 79.101562 C 23.878906 79.101562 24.625 79.101562 25.371094 79.101562 C 25.957031 78.582031 26.394531 78.304688 27.027344 78.0625 C 27.679688 77.167969 28.3125 76.195312 28.914062 75.171875 C 27.351562 73.90625 29.933594 70.675781 31.949219 70.65625 C 32.453125 70.65625 33.261719 70.851562 33.050781 72.214844 C 33.976562 72.214844 34.855469 72.214844 35.699219 72.214844 C 36.707031 71.195312 37.46875 70.738281 38.3125 70.65625 C 39.757812 70.886719 38.605469 72.703125 37.824219 73.546875 C 36.398438 75.089844 34.351562 75.96875 34.351562 74.734375 C 34.351562 74.472656 34.464844 74.148438 34.546875 73.921875 C 33.75 73.921875 32.90625 73.921875 32.046875 73.921875 C 31.414062 74.570312 30.941406 74.894531 30.226562 75.171875 C 29.578125 76.210938 28.878906 77.167969 28.164062 78.0625 C 29.042969 79.035156 25.941406 81.277344 24.691406 81.277344 C 23.976562 81.277344 24.300781 80.578125 24.414062 80.300781 C 23.75 80.300781 23.066406 80.300781 22.351562 80.300781 C 20.792969 81.714844 19.527344 81.472656 19.511719 80.351562 C 19.496094 78.597656 22.125 77.316406 22.9375 78.273438 Z M 22.9375 78.273438 " fill-opacity="1" fill-rule="nonzero"/><path fill="#207ea0" d="M 32.824219 78.128906 C 32.90625 78.402344 32.46875 78.890625 32.273438 79.101562 C 32.808594 79.101562 33.296875 79.101562 33.765625 79.101562 C 34.609375 78.566406 35.097656 78.304688 35.652344 78.0625 C 36.769531 77.167969 37.859375 76.195312 38.882812 75.171875 C 38.734375 73.792969 42.859375 69.878906 43.507812 70.773438 C 43.753906 71.097656 43.25 71.890625 43.039062 72.214844 C 43.542969 72.214844 43.980469 72.214844 44.371094 72.214844 C 45.488281 71.160156 46.042969 70.738281 46.433594 70.65625 C 46.464844 70.675781 46.496094 70.691406 46.527344 70.707031 C 46.496094 71.484375 44.386719 73.46875 44.304688 73.546875 C 44.125 73.710938 42.601562 75.125 41.867188 75.316406 C 41.851562 75.285156 41.820312 75.253906 41.804688 75.21875 C 41.902344 74.976562 42.046875 74.734375 42.761719 73.921875 C 42.390625 73.921875 41.984375 73.921875 41.496094 73.921875 C 40.75 74.554688 40.277344 74.878906 39.660156 75.171875 C 38.589844 76.210938 37.484375 77.167969 36.316406 78.0625 C 36.007812 79.003906 31.609375 81.617188 31.039062 81.210938 C 31.21875 80.953125 31.25 80.902344 32.011719 80.300781 C 31.589844 80.300781 31.136719 80.300781 30.664062 80.300781 C 29.058594 81.226562 27.96875 81.535156 28.117188 81.015625 C 28.410156 80.042969 32.53125 77.039062 32.824219 78.128906 Z M 32.824219 78.128906 " fill-opacity="1" fill-rule="nonzero"/><g fill="#ffffff" fill-opacity="1"><g transform="translate(56.631495, 70.075296)"><g><path d="M 7.078125 -58.9375 L 19.03125 -58.9375 L 46.65625 -22.65625 L 46.65625 -58.9375 L 59.453125 -58.9375 L 59.453125 0 L 48.421875 0 L 19.875 -37.46875 L 19.875 0 L 7.078125 0 Z M 7.078125 -58.9375 "/></g></g></g><g fill="#ffffff" fill-opacity="1"><g transform="translate(123.143821, 70.075296)"><g><path d="M 27.28125 -59.359375 L 39.234375 -59.359375 L 64.5 0 L 50.9375 0 L 45.546875 -13.21875 L 20.625 -13.21875 L 15.234375 0 L 2.015625 0 Z M 40.921875 -24.671875 L 33.09375 -43.78125 L 25.265625 -24.671875 Z M 40.921875 -24.671875 "/></g></g></g><g fill="#ffffff" fill-opacity="1"><g transform="translate(189.656147, 70.075296)"><g><path d="M 20.796875 -46.984375 L 2.859375 -46.984375 L 2.859375 -58.9375 L 51.703125 -58.9375 L 51.703125 -46.984375 L 33.765625 -46.984375 L 33.765625 0 L 20.796875 0 Z M 20.796875 -46.984375 "/></g></g></g><g fill="#ffffff" fill-opacity="1"><g transform="translate(244.213099, 70.075296)"><g><path d="M 7.078125 -58.9375 L 31.15625 -58.9375 C 34.6875 -58.9375 37.84375 -58.445312 40.625 -57.46875 C 43.40625 -56.488281 45.765625 -55.097656 47.703125 -53.296875 C 49.640625 -51.503906 51.125 -49.359375 52.15625 -46.859375 C 53.195312 -44.359375 53.71875 -41.59375 53.71875 -38.5625 L 53.71875 -38.390625 C 53.71875 -34.972656 53.097656 -31.972656 51.859375 -29.390625 C 50.628906 -26.804688 48.929688 -24.644531 46.765625 -22.90625 C 44.609375 -21.164062 42.082031 -19.859375 39.1875 -18.984375 C 36.300781 -18.117188 33.203125 -17.6875 29.890625 -17.6875 L 20.046875 -17.6875 L 20.046875 0 L 7.078125 0 Z M 30.3125 -29.21875 C 33.570312 -29.21875 36.097656 -30.070312 37.890625 -31.78125 C 39.691406 -33.5 40.59375 -35.617188 40.59375 -38.140625 L 40.59375 -38.3125 C 40.59375 -41.226562 39.648438 -43.441406 37.765625 -44.953125 C 35.878906 -46.472656 33.3125 -47.234375 30.0625 -47.234375 L 20.046875 -47.234375 L 20.046875 -29.21875 Z M 30.3125 -29.21875 "/></g></g></g></svg>