<svg xmlns="http://www.w3.org/2000/svg" xmlns:xlink="http://www.w3.org/1999/xlink" width="75" zoomAndPan="magnify" viewBox="0 0 56.25 56.249997" height="75" preserveAspectRatio="xMidYMid meet" version="1.0"><defs><clipPath id="f7f30fb8c1"><path d="M 9.019531 5.550781 L 46.765625 5.550781 L 46.765625 49.957031 L 9.019531 49.957031 Z M 9.019531 5.550781 " clip-rule="nonzero"/></clipPath></defs><g clip-path="url(#f7f30fb8c1)"><path fill="#207ea2" d="M 31.613281 23.605469 L 36.1875 19.960938 L 30.34375 19.699219 C 30.101562 19.6875 29.890625 19.535156 29.804688 19.308594 L 27.75 13.832031 L 25.699219 19.308594 C 25.613281 19.535156 25.402344 19.6875 25.160156 19.699219 L 19.316406 19.960938 L 23.890625 23.605469 C 24.082031 23.757812 24.160156 24.003906 24.097656 24.238281 L 22.539062 29.875 L 27.410156 26.660156 C 27.429688 26.644531 27.453125 26.628906 27.476562 26.617188 C 27.5625 26.574219 27.65625 26.550781 27.75 26.550781 C 27.84375 26.550781 27.9375 26.574219 28.023438 26.617188 C 28.046875 26.628906 28.070312 26.644531 28.09375 26.660156 L 32.964844 29.875 L 31.40625 24.238281 C 31.34375 24.007812 31.421875 23.757812 31.613281 23.605469 Z M 17.382812 49.960938 L 24.316406 36.6875 L 23.277344 35.308594 C 22.796875 34.675781 22.070312 34.378906 21.289062 34.484375 L 18.304688 34.898438 C 17.246094 35.042969 16.246094 34.707031 15.492188 33.953125 C 15.402344 33.863281 15.320312 33.769531 15.242188 33.675781 L 9.015625 45.59375 L 16.109375 41.074219 C 16.292969 40.960938 16.523438 40.949219 16.714844 41.050781 C 16.90625 41.148438 17.027344 41.34375 17.035156 41.558594 Z M 37.199219 34.898438 L 34.214844 34.484375 C 33.429688 34.378906 32.707031 34.679688 32.226562 35.308594 L 31.183594 36.6875 L 38.121094 49.960938 L 38.464844 41.558594 C 38.472656 41.34375 38.597656 41.148438 38.789062 41.050781 C 38.980469 40.949219 39.210938 40.960938 39.394531 41.078125 L 46.488281 45.59375 L 40.261719 33.675781 C 40.183594 33.769531 40.101562 33.863281 40.015625 33.949219 C 39.257812 34.707031 38.257812 35.042969 37.199219 34.898438 Z M 30.792969 18.511719 L 37.847656 18.828125 C 38.101562 18.835938 38.320312 19.003906 38.394531 19.242188 C 38.472656 19.480469 38.394531 19.746094 38.199219 19.902344 L 32.675781 24.300781 L 34.558594 31.109375 C 34.625 31.351562 34.535156 31.609375 34.332031 31.757812 C 34.222656 31.832031 34.101562 31.871094 33.976562 31.871094 C 33.859375 31.871094 33.742188 31.839844 33.644531 31.773438 L 27.75 27.878906 L 21.859375 31.773438 C 21.648438 31.910156 21.375 31.90625 21.171875 31.757812 C 20.96875 31.609375 20.878906 31.351562 20.945312 31.109375 L 22.828125 24.300781 L 17.304688 19.902344 C 17.109375 19.746094 17.027344 19.480469 17.105469 19.242188 C 17.183594 19.003906 17.402344 18.835938 17.652344 18.828125 L 24.707031 18.511719 L 27.1875 11.902344 C 27.222656 11.800781 27.285156 11.714844 27.363281 11.652344 C 27.402344 11.621094 27.441406 11.59375 27.488281 11.570312 C 27.542969 11.542969 27.605469 11.523438 27.667969 11.515625 C 27.695312 11.511719 27.71875 11.511719 27.742188 11.507812 C 27.742188 11.507812 27.746094 11.507812 27.746094 11.507812 C 27.777344 11.507812 27.8125 11.511719 27.84375 11.515625 C 27.90625 11.527344 27.964844 11.546875 28.023438 11.574219 C 28.0625 11.59375 28.097656 11.617188 28.132812 11.644531 C 28.210938 11.710938 28.277344 11.796875 28.316406 11.902344 Z M 37.363281 33.703125 L 34.382812 33.289062 C 33.152344 33.121094 32.015625 33.589844 31.265625 34.582031 L 29.449219 36.980469 C 29.03125 37.53125 28.441406 37.824219 27.75 37.824219 C 27.058594 37.824219 26.472656 37.53125 26.054688 36.980469 L 24.238281 34.582031 C 23.589844 33.722656 22.648438 33.257812 21.613281 33.257812 C 21.449219 33.257812 21.285156 33.269531 21.121094 33.289062 L 18.140625 33.703125 C 17.453125 33.796875 16.832031 33.585938 16.34375 33.097656 C 15.855469 32.609375 15.644531 31.988281 15.742188 31.300781 L 16.152344 28.320312 C 16.320312 27.089844 15.851562 25.953125 14.859375 25.203125 L 12.460938 23.386719 C 11.910156 22.96875 11.617188 22.382812 11.617188 21.691406 C 11.617188 20.996094 11.910156 20.410156 12.460938 19.992188 L 14.859375 18.175781 C 15.851562 17.425781 16.320312 16.289062 16.152344 15.058594 L 15.742188 12.078125 C 15.644531 11.394531 15.855469 10.769531 16.34375 10.28125 C 16.832031 9.792969 17.453125 9.585938 18.140625 9.679688 L 21.121094 10.089844 C 22.351562 10.261719 23.488281 9.789062 24.238281 8.800781 L 26.054688 6.402344 C 26.472656 5.847656 27.058594 5.558594 27.75 5.558594 C 28.441406 5.558594 29.03125 5.847656 29.449219 6.398438 L 31.265625 8.800781 C 32.015625 9.789062 33.152344 10.261719 34.382812 10.089844 L 37.363281 9.679688 C 38.046875 9.585938 38.667969 9.792969 39.160156 10.28125 C 39.648438 10.773438 39.855469 11.394531 39.761719 12.078125 L 39.351562 15.058594 C 39.179688 16.289062 39.652344 17.425781 40.640625 18.175781 L 43.039062 19.992188 C 43.589844 20.410156 43.882812 21 43.882812 21.691406 C 43.882812 22.382812 43.589844 22.96875 43.039062 23.386719 L 40.640625 25.207031 C 39.652344 25.953125 39.179688 27.089844 39.351562 28.320312 L 39.761719 31.300781 C 39.855469 31.988281 39.648438 32.609375 39.160156 33.097656 C 38.667969 33.585938 38.046875 33.796875 37.363281 33.703125 Z M 37.363281 33.703125 " fill-opacity="1" fill-rule="evenodd"/></g></svg>