<svg xmlns="http://www.w3.org/2000/svg" xmlns:xlink="http://www.w3.org/1999/xlink" width="75" zoomAndPan="magnify" viewBox="0 0 56.25 56.249997" height="75" preserveAspectRatio="xMidYMid meet" version="1.0"><defs><clipPath id="86bf4d0b99"><path d="M 7 16 L 29 16 L 29 49.71875 L 7 49.71875 Z M 7 16 " clip-rule="nonzero"/></clipPath><clipPath id="1ab3616219"><path d="M 43 6.050781 L 49.957031 6.050781 L 49.957031 15 L 43 15 Z M 43 6.050781 " clip-rule="nonzero"/></clipPath><clipPath id="eaa403fe18"><path d="M 7 6.050781 L 49 6.050781 L 49 49.71875 L 7 49.71875 Z M 7 6.050781 " clip-rule="nonzero"/></clipPath></defs><g clip-path="url(#86bf4d0b99)"><path fill="#207ea2" d="M 28.546875 27.238281 C 28.191406 26.992188 27.703125 27.089844 27.460938 27.441406 C 27.445312 27.46875 25.703125 29.980469 23.429688 30.371094 L 18.464844 30.382812 C 18.035156 30.386719 17.6875 30.734375 17.6875 31.167969 L 17.6875 35.054688 C 17.6875 35.066406 17.691406 35.074219 17.691406 35.085938 C 17.691406 35.09375 17.6875 35.101562 17.6875 35.113281 C 17.6875 35.546875 18.035156 35.898438 18.46875 35.898438 L 21.152344 35.898438 C 22.566406 35.898438 22.703125 36.710938 22.710938 36.949219 L 22.710938 41.734375 C 22.679688 41.886719 22.519531 42.375 21.78125 42.375 C 21.320312 42.375 21.085938 41.914062 21.007812 41.726562 L 21.007812 39.230469 C 21.023438 39.019531 21.027344 38.457031 20.640625 38.007812 C 20.453125 37.785156 20.101562 37.519531 19.496094 37.503906 L 15.792969 37.503906 C 15.585938 37.503906 15.386719 37.585938 15.238281 37.734375 C 15.09375 37.878906 15.011719 38.078125 15.011719 38.285156 L 15.023438 46.992188 C 15.023438 47.488281 14.621094 47.890625 14.121094 47.890625 C 13.628906 47.890625 13.226562 47.488281 13.226562 46.992188 L 13.226562 32.804688 C 13.226562 32.375 12.875 32.023438 12.441406 32.023438 C 12.171875 32.023438 11.945312 32.167969 11.804688 32.378906 C 11.765625 32.410156 11.722656 32.433594 11.6875 32.476562 C 11.410156 32.824219 11.167969 33.574219 10.59375 35.464844 C 10.277344 36.507812 9.757812 38.226562 9.507812 38.617188 C 9.429688 38.664062 9.324219 38.652344 8.921875 38.34375 C 8.171875 37.757812 9.378906 33.492188 10.507812 31.226562 C 11.0625 30.109375 12.101562 28.972656 13.027344 28.449219 C 13.410156 28.644531 13.808594 28.8125 14.238281 28.925781 C 14.304688 28.941406 14.371094 28.949219 14.4375 28.949219 C 14.785156 28.949219 15.101562 28.71875 15.195312 28.367188 C 15.300781 27.945312 15.050781 27.519531 14.632812 27.410156 C 12.617188 26.886719 11.207031 25.0625 11.207031 22.976562 C 11.207031 20.449219 13.261719 18.394531 15.789062 18.394531 C 18.316406 18.394531 20.371094 20.449219 20.371094 22.976562 C 20.371094 24.785156 19.300781 26.429688 17.648438 27.164062 C 17.308594 27.316406 17.144531 27.679688 17.214844 28.027344 C 17.207031 28.074219 17.1875 28.121094 17.1875 28.167969 C 17.1875 28.601562 17.535156 28.949219 17.96875 28.949219 L 22.101562 28.949219 C 22.109375 28.949219 22.125 28.949219 22.140625 28.949219 C 22.449219 28.949219 23.976562 28.839844 26.367188 26.855469 C 26.699219 26.578125 26.742188 26.085938 26.46875 25.753906 C 26.191406 25.421875 25.699219 25.378906 25.367188 25.652344 C 23.324219 27.351562 22.15625 27.386719 22.132812 27.386719 L 20.046875 27.386719 C 21.226562 26.246094 21.933594 24.671875 21.933594 22.976562 C 21.933594 19.589844 19.175781 16.832031 15.789062 16.832031 C 12.398438 16.832031 9.644531 19.589844 9.644531 22.976562 C 9.644531 24.742188 10.398438 26.363281 11.632812 27.5 C 10.53125 28.324219 9.601562 29.535156 9.109375 30.527344 C 9.074219 30.597656 5.644531 37.773438 7.960938 39.574219 C 8.226562 39.78125 8.777344 40.210938 9.453125 40.210938 C 9.789062 40.210938 10.152344 40.101562 10.527344 39.804688 C 10.878906 39.523438 11.152344 38.910156 11.660156 37.304688 L 11.660156 46.992188 C 11.660156 48.347656 12.765625 49.453125 14.121094 49.453125 C 15.480469 49.453125 16.585938 48.347656 16.585938 46.992188 L 16.574219 39.066406 L 19.449219 39.070312 C 19.449219 39.082031 19.449219 39.089844 19.449219 39.09375 C 19.445312 39.125 19.441406 39.160156 19.441406 39.195312 L 19.441406 41.855469 C 19.441406 41.929688 19.453125 42.003906 19.472656 42.070312 C 19.671875 42.765625 20.378906 43.9375 21.78125 43.9375 C 23.539062 43.9375 24.179688 42.605469 24.269531 41.898438 C 24.273438 41.863281 24.277344 41.832031 24.277344 41.796875 L 24.277344 36.949219 C 24.277344 36.21875 23.714844 34.332031 21.152344 34.332031 L 19.25 34.332031 L 19.25 31.945312 L 23.496094 31.933594 C 23.535156 31.933594 23.574219 31.929688 23.617188 31.925781 C 26.59375 31.460938 28.667969 28.449219 28.753906 28.324219 C 28.996094 27.964844 28.902344 27.480469 28.546875 27.238281 Z M 28.546875 27.238281 " fill-opacity="1" fill-rule="nonzero"/></g><path fill="#207ea2" d="M 14.75 29.488281 L 13.535156 33.332031 C 13.445312 33.613281 13.523438 33.917969 13.730469 34.125 L 14.90625 35.277344 C 15.058594 35.429688 15.257812 35.503906 15.453125 35.503906 C 15.652344 35.503906 15.851562 35.429688 16 35.28125 L 17.179688 34.125 C 17.386719 33.921875 17.464844 33.621094 17.382812 33.34375 L 16.246094 29.5 C 16.148438 29.171875 15.847656 28.945312 15.503906 28.941406 C 15.167969 28.972656 14.855469 29.160156 14.75 29.488281 Z M 15.472656 32.394531 L 15.75 33.335938 L 15.457031 33.625 L 15.167969 33.34375 Z M 15.472656 32.394531 " fill-opacity="1" fill-rule="nonzero"/><path fill="#207ea2" d="M 17.554688 25.019531 C 18.121094 25.019531 18.75 24.859375 19.371094 24.414062 C 19.71875 24.164062 19.800781 23.675781 19.550781 23.324219 C 19.296875 22.972656 18.808594 22.890625 18.457031 23.144531 C 17.539062 23.800781 16.722656 23.230469 16.628906 23.160156 C 16.289062 22.898438 15.800781 22.960938 15.535156 23.296875 C 15.269531 23.636719 15.328125 24.128906 15.667969 24.394531 C 16.03125 24.679688 16.730469 25.019531 17.554688 25.019531 Z M 17.554688 25.019531 " fill-opacity="1" fill-rule="nonzero"/><path fill="#207ea2" d="M 16.933594 21.457031 C 16.933594 21.699219 16.847656 21.90625 16.675781 22.074219 C 16.503906 22.246094 16.296875 22.332031 16.054688 22.332031 C 15.816406 22.332031 15.609375 22.246094 15.4375 22.074219 C 15.265625 21.90625 15.179688 21.699219 15.179688 21.457031 C 15.179688 21.214844 15.265625 21.007812 15.4375 20.835938 C 15.609375 20.664062 15.816406 20.578125 16.054688 20.578125 C 16.296875 20.578125 16.503906 20.664062 16.675781 20.835938 C 16.847656 21.007812 16.933594 21.214844 16.933594 21.457031 Z M 16.933594 21.457031 " fill-opacity="1" fill-rule="nonzero"/><path fill="#207ea2" d="M 19.882812 21.457031 C 19.882812 21.699219 19.796875 21.902344 19.628906 22.074219 C 19.457031 22.246094 19.25 22.332031 19.007812 22.332031 C 18.765625 22.332031 18.558594 22.246094 18.386719 22.074219 C 18.21875 21.902344 18.132812 21.699219 18.132812 21.457031 C 18.132812 21.214844 18.21875 21.007812 18.386719 20.835938 C 18.558594 20.664062 18.765625 20.578125 19.007812 20.578125 C 19.25 20.578125 19.457031 20.664062 19.628906 20.835938 C 19.796875 21.007812 19.882812 21.214844 19.882812 21.457031 Z M 19.882812 21.457031 " fill-opacity="1" fill-rule="nonzero"/><g clip-path="url(#1ab3616219)"><path fill="#207ea2" d="M 49.324219 8.046875 L 45.019531 6.160156 C 44.78125 6.058594 44.5 6.078125 44.28125 6.222656 C 44.058594 6.367188 43.925781 6.613281 43.925781 6.878906 L 43.925781 10.652344 C 43.925781 10.652344 43.925781 10.65625 43.925781 10.65625 L 43.925781 14.066406 C 43.925781 14.496094 44.277344 14.847656 44.707031 14.847656 C 45.140625 14.847656 45.488281 14.496094 45.488281 14.066406 L 45.488281 11.160156 L 49.324219 9.480469 C 49.609375 9.355469 49.792969 9.074219 49.792969 8.765625 C 49.792969 8.453125 49.609375 8.175781 49.324219 8.046875 Z M 45.488281 9.453125 L 45.488281 8.074219 L 47.0625 8.765625 Z M 45.488281 9.453125 " fill-opacity="1" fill-rule="nonzero"/></g><path fill="#207ea2" d="M 34.378906 25.335938 C 34.183594 25.335938 33.984375 25.261719 33.832031 25.113281 L 32.65625 23.960938 C 32.445312 23.753906 32.367188 23.445312 32.457031 23.164062 L 33.675781 19.320312 C 33.777344 18.996094 34.078125 18.773438 34.421875 18.773438 C 34.421875 18.773438 34.425781 18.773438 34.429688 18.773438 C 34.773438 18.777344 35.074219 19.007812 35.171875 19.335938 L 36.308594 23.179688 C 36.390625 23.457031 36.3125 23.757812 36.105469 23.960938 L 34.925781 25.113281 C 34.773438 25.261719 34.578125 25.335938 34.378906 25.335938 Z M 34.09375 23.179688 L 34.378906 23.460938 L 34.675781 23.171875 L 34.394531 22.226562 Z M 34.09375 23.179688 " fill-opacity="1" fill-rule="nonzero"/><path fill="#207ea2" d="M 30.644531 12.929688 C 30.644531 13.410156 31.039062 13.804688 31.519531 13.804688 C 32.003906 13.804688 32.398438 13.410156 32.398438 12.929688 C 32.398438 12.445312 32.003906 12.050781 31.519531 12.050781 C 31.039062 12.050781 30.644531 12.445312 30.644531 12.929688 Z M 30.644531 12.929688 " fill-opacity="1" fill-rule="nonzero"/><path fill="#207ea2" d="M 35.347656 12.929688 C 35.347656 13.171875 35.261719 13.375 35.09375 13.546875 C 34.921875 13.71875 34.714844 13.804688 34.472656 13.804688 C 34.230469 13.804688 34.023438 13.71875 33.855469 13.546875 C 33.683594 13.375 33.597656 13.171875 33.597656 12.929688 C 33.597656 12.6875 33.683594 12.480469 33.855469 12.308594 C 34.023438 12.136719 34.230469 12.050781 34.472656 12.050781 C 34.714844 12.050781 34.921875 12.136719 35.09375 12.308594 C 35.261719 12.480469 35.347656 12.6875 35.347656 12.929688 Z M 35.347656 12.929688 " fill-opacity="1" fill-rule="nonzero"/><g clip-path="url(#eaa403fe18)"><path fill="#207ea2" d="M 48.097656 33.9375 L 42.46875 33.9375 C 42.894531 33.507812 43.097656 32.972656 43.144531 32.601562 C 43.148438 32.570312 43.152344 32.535156 43.152344 32.5 L 43.152344 26.941406 C 43.152344 26.214844 42.589844 24.328125 40.046875 24.328125 L 38.125 24.28125 L 38.125 21.941406 L 42.371094 21.929688 C 44.570312 21.929688 45.359375 20.171875 45.410156 20.058594 L 47.066406 15.617188 C 47.109375 15.496094 47.125 15.367188 47.105469 15.242188 C 47.035156 14.695312 46.621094 13.6875 45.535156 13.371094 C 44.5 13.070312 43.539062 13.625 43.132812 14.003906 C 43.054688 14.078125 42.992188 14.167969 42.953125 14.265625 C 42.9375 14.300781 42.597656 15.09375 42.078125 16.609375 C 41.828125 17.335938 41.085938 17.378906 41.007812 17.378906 L 38.921875 17.378906 C 40.097656 16.242188 40.808594 14.664062 40.808594 12.96875 C 40.808594 9.582031 38.054688 6.824219 34.664062 6.824219 C 31.273438 6.824219 28.519531 9.582031 28.519531 12.96875 C 28.519531 14.734375 29.273438 16.355469 30.507812 17.492188 C 29.402344 18.316406 28.476562 19.527344 27.984375 20.519531 C 27.859375 20.769531 27.640625 21.132812 27.378906 21.574219 C 25.960938 23.941406 24.023438 27.183594 25.777344 28.546875 C 26.167969 28.851562 26.648438 29.003906 27.132812 29.003906 C 27.648438 29.003906 28.171875 28.835938 28.597656 28.492188 C 28.972656 28.191406 29.496094 27.355469 30.535156 25.550781 L 30.535156 36.984375 C 30.535156 37.621094 30.78125 38.195312 31.175781 38.628906 L 27.457031 38.628906 L 27.457031 43.066406 L 17.746094 43.066406 L 17.746094 47.914062 L 8.359375 47.914062 C 7.925781 47.914062 7.578125 48.261719 7.578125 48.695312 C 7.578125 49.125 7.925781 49.476562 8.359375 49.476562 L 19.308594 49.476562 L 19.308594 44.632812 L 29.023438 44.632812 L 29.023438 40.195312 L 38.601562 40.195312 L 38.601562 35.503906 L 48.097656 35.503906 C 48.527344 35.503906 48.878906 35.152344 48.878906 34.722656 C 48.878906 34.289062 48.527344 33.9375 48.097656 33.9375 Z M 37.039062 33.9375 L 37.039062 38.632812 L 34.816406 38.632812 C 35.214844 38.195312 35.460938 37.621094 35.460938 36.984375 L 35.449219 29.0625 L 38.324219 29.066406 C 38.324219 29.074219 38.324219 29.085938 38.324219 29.089844 C 38.320312 29.121094 38.316406 29.15625 38.316406 29.1875 L 38.316406 32.5625 C 38.316406 32.632812 38.328125 32.707031 38.347656 32.773438 C 38.441406 33.113281 38.664062 33.5625 39.023438 33.9375 Z M 41.585938 32.429688 C 41.539062 32.65625 41.351562 33.078125 40.65625 33.078125 C 40.195312 33.078125 39.960938 32.621094 39.882812 32.429688 L 39.882812 29.226562 C 39.898438 29.015625 39.902344 28.453125 39.515625 28.003906 C 39.324219 27.78125 38.976562 27.515625 38.371094 27.5 L 34.667969 27.5 C 34.457031 27.5 34.257812 27.582031 34.113281 27.726562 C 33.964844 27.875 33.882812 28.074219 33.882812 28.28125 L 33.894531 36.988281 C 33.894531 37.484375 33.492188 37.886719 32.996094 37.886719 C 32.503906 37.886719 32.097656 37.484375 32.097656 36.988281 L 32.097656 22.800781 C 32.097656 22.367188 31.75 22.019531 31.316406 22.019531 C 31.046875 22.019531 30.820312 22.164062 30.679688 22.375 C 30.640625 22.40625 30.597656 22.429688 30.5625 22.472656 C 30.351562 22.738281 30.003906 23.339844 29.40625 24.382812 C 28.878906 25.304688 27.894531 27.011719 27.617188 27.273438 C 27.300781 27.527344 26.910156 27.453125 26.738281 27.316406 C 26.492188 27.121094 26.417969 26.226562 28.722656 22.375 C 29.007812 21.894531 29.25 21.492188 29.382812 21.21875 C 29.9375 20.105469 30.976562 18.96875 31.902344 18.445312 C 32.285156 18.636719 32.6875 18.808594 33.117188 18.917969 C 33.179688 18.9375 33.246094 18.945312 33.3125 18.945312 C 33.660156 18.945312 33.976562 18.710938 34.066406 18.359375 C 34.175781 17.941406 33.925781 17.515625 33.507812 17.40625 C 32.546875 17.15625 31.738281 16.597656 31.140625 15.871094 C 31.507812 16.15625 32.203125 16.488281 33.023438 16.488281 C 33.589844 16.488281 34.214844 16.332031 34.835938 15.886719 C 35.183594 15.636719 35.265625 15.144531 35.015625 14.796875 C 34.761719 14.445312 34.273438 14.363281 33.921875 14.617188 C 33.007812 15.273438 32.191406 14.703125 32.09375 14.632812 C 31.753906 14.371094 31.265625 14.429688 31.003906 14.769531 C 30.808594 15.011719 30.792969 15.332031 30.921875 15.59375 C 30.394531 14.84375 30.082031 13.9375 30.082031 12.972656 C 30.082031 10.445312 32.136719 8.390625 34.664062 8.390625 C 37.191406 8.390625 39.246094 10.445312 39.246094 12.972656 C 39.246094 14.78125 38.175781 16.425781 36.523438 17.160156 C 36.183594 17.308594 36.019531 17.671875 36.089844 18.023438 C 36.078125 18.070312 36.0625 18.113281 36.0625 18.164062 C 36.0625 18.59375 36.410156 18.945312 36.84375 18.945312 L 41.007812 18.945312 C 41.722656 18.945312 43.058594 18.558594 43.554688 17.117188 C 43.917969 16.066406 44.191406 15.371094 44.316406 15.0625 C 44.480469 14.953125 44.796875 14.785156 45.097656 14.875 C 45.339844 14.945312 45.457031 15.15625 45.511719 15.300781 L 43.964844 19.464844 C 43.917969 19.554688 43.507812 20.363281 42.367188 20.363281 L 37.339844 20.378906 C 36.910156 20.382812 36.558594 20.730469 36.558594 21.160156 L 36.558594 25.050781 C 36.558594 25.484375 36.910156 25.832031 37.34375 25.832031 C 37.382812 25.832031 37.417969 25.816406 37.457031 25.808594 C 37.492188 25.816406 37.523438 25.832031 37.558594 25.832031 L 40.027344 25.890625 C 41.4375 25.890625 41.578125 26.707031 41.585938 26.941406 Z M 41.585938 32.429688 " fill-opacity="1" fill-rule="nonzero"/></g></svg>