<svg xmlns="http://www.w3.org/2000/svg" xmlns:xlink="http://www.w3.org/1999/xlink" width="150" zoomAndPan="magnify" viewBox="0 0 112.5 112.499997" height="150" preserveAspectRatio="xMidYMid meet" version="1.0"><defs><clipPath id="3cef09246a"><path d="M 11.199219 25 L 78 25 L 78 98.617188 L 11.199219 98.617188 Z M 11.199219 25 " clip-rule="nonzero"/></clipPath><clipPath id="f2a66babea"><path d="M 21 13.496094 L 78 13.496094 L 78 57 L 21 57 Z M 21 13.496094 " clip-rule="nonzero"/></clipPath><clipPath id="0ebcf57579"><path d="M 11.199219 13.496094 L 24 13.496094 L 24 28 L 11.199219 28 Z M 11.199219 13.496094 " clip-rule="nonzero"/></clipPath><clipPath id="52556af640"><path d="M 67 27 L 100.800781 27 L 100.800781 85 L 67 85 Z M 67 27 " clip-rule="nonzero"/></clipPath></defs><g clip-path="url(#3cef09246a)"><path fill="#207ea2" d="M 76.839844 98.5 L 12.324219 98.5 C 11.773438 98.5 11.328125 98.054688 11.328125 97.507812 L 11.328125 26.882812 C 11.328125 26.332031 11.773438 25.886719 12.324219 25.886719 C 12.871094 25.886719 13.316406 26.332031 13.316406 26.882812 L 13.316406 96.511719 L 75.84375 96.511719 L 75.84375 78.03125 C 75.84375 77.480469 76.289062 77.035156 76.839844 77.035156 C 77.390625 77.035156 77.835938 77.480469 77.835938 78.03125 L 77.835938 97.507812 C 77.835938 98.054688 77.390625 98.5 76.839844 98.5 Z M 76.839844 98.5 " fill-opacity="1" fill-rule="nonzero"/></g><g clip-path="url(#f2a66babea)"><path fill="#207ea2" d="M 76.839844 56.601562 C 76.289062 56.601562 75.84375 56.15625 75.84375 55.605469 L 75.84375 15.570312 L 22.859375 15.570312 C 22.3125 15.570312 21.867188 15.125 21.867188 14.574219 C 21.867188 14.023438 22.3125 13.578125 22.859375 13.578125 L 76.839844 13.578125 C 77.390625 13.578125 77.835938 14.023438 77.835938 14.574219 L 77.835938 55.605469 C 77.835938 56.15625 77.390625 56.601562 76.839844 56.601562 Z M 76.839844 56.601562 " fill-opacity="1" fill-rule="nonzero"/></g><g clip-path="url(#0ebcf57579)"><path fill="#207ea2" d="M 22.859375 27.875 L 12.324219 27.875 C 11.933594 27.875 11.582031 27.652344 11.417969 27.296875 C 11.257812 26.945312 11.3125 26.53125 11.566406 26.234375 L 22.105469 13.925781 C 22.375 13.609375 22.816406 13.496094 23.207031 13.640625 C 23.597656 13.785156 23.855469 14.15625 23.855469 14.574219 L 23.855469 26.882812 C 23.855469 27.429688 23.410156 27.875 22.859375 27.875 Z M 14.484375 25.886719 L 21.867188 25.886719 L 21.867188 17.265625 Z M 14.484375 25.886719 " fill-opacity="1" fill-rule="nonzero"/></g><path fill="#207ea2" d="M 57.191406 34.441406 C 56.730469 34.441406 56.316406 34.121094 56.21875 33.652344 C 56.105469 33.113281 56.453125 32.585938 56.988281 32.472656 C 58.941406 32.066406 60.359375 30.324219 60.359375 28.324219 C 60.359375 25.988281 58.457031 24.085938 56.121094 24.085938 C 53.785156 24.085938 51.882812 25.988281 51.882812 28.324219 C 51.882812 30.324219 53.300781 32.066406 55.253906 32.472656 C 55.792969 32.585938 56.136719 33.113281 56.027344 33.652344 C 55.914062 34.1875 55.386719 34.535156 54.851562 34.421875 C 51.976562 33.824219 49.894531 31.261719 49.894531 28.324219 C 49.894531 24.890625 52.6875 22.097656 56.121094 22.097656 C 59.554688 22.097656 62.351562 24.890625 62.351562 28.324219 C 62.351562 31.261719 60.265625 33.824219 57.394531 34.421875 C 57.328125 34.4375 57.257812 34.441406 57.191406 34.441406 Z M 57.191406 34.441406 " fill-opacity="1" fill-rule="nonzero"/><path fill="#207ea2" d="M 66.289062 48.5625 L 45.957031 48.5625 C 45.40625 48.5625 44.960938 48.117188 44.960938 47.566406 L 44.960938 43.558594 C 44.960938 37.402344 49.96875 32.394531 56.121094 32.394531 C 62.277344 32.394531 67.285156 37.402344 67.285156 43.558594 L 67.285156 47.566406 C 67.285156 48.117188 66.839844 48.5625 66.289062 48.5625 Z M 46.949219 46.570312 L 65.296875 46.570312 L 65.296875 43.558594 C 65.296875 38.5 61.179688 34.386719 56.121094 34.386719 C 51.066406 34.386719 46.949219 38.5 46.949219 43.558594 Z M 46.949219 46.570312 " fill-opacity="1" fill-rule="nonzero"/><path fill="#207ea2" d="M 72.914062 51.785156 L 39.332031 51.785156 C 38.78125 51.785156 38.335938 51.339844 38.335938 50.789062 L 38.335938 19.699219 C 38.335938 19.152344 38.78125 18.707031 39.332031 18.707031 L 72.914062 18.707031 C 73.464844 18.707031 73.910156 19.152344 73.910156 19.699219 L 73.910156 50.789062 C 73.910156 51.339844 73.464844 51.785156 72.914062 51.785156 Z M 40.324219 49.796875 L 71.917969 49.796875 L 71.917969 20.695312 L 40.324219 20.695312 Z M 40.324219 49.796875 " fill-opacity="1" fill-rule="nonzero"/><path fill="#207ea2" d="M 71.027344 58.308594 L 18.136719 58.308594 C 17.585938 58.308594 17.140625 57.863281 17.140625 57.316406 C 17.140625 56.765625 17.585938 56.320312 18.136719 56.320312 L 71.027344 56.320312 C 71.578125 56.320312 72.023438 56.765625 72.023438 57.316406 C 72.023438 57.863281 71.578125 58.308594 71.027344 58.308594 Z M 71.027344 58.308594 " fill-opacity="1" fill-rule="nonzero"/><path fill="#207ea2" d="M 71.027344 64.832031 L 18.136719 64.832031 C 17.585938 64.832031 17.140625 64.386719 17.140625 63.839844 C 17.140625 63.289062 17.585938 62.84375 18.136719 62.84375 L 71.027344 62.84375 C 71.578125 62.84375 72.023438 63.289062 72.023438 63.839844 C 72.023438 64.386719 71.578125 64.832031 71.027344 64.832031 Z M 71.027344 64.832031 " fill-opacity="1" fill-rule="nonzero"/><path fill="#207ea2" d="M 69.421875 71.359375 L 18.136719 71.359375 C 17.585938 71.359375 17.140625 70.910156 17.140625 70.363281 C 17.140625 69.8125 17.585938 69.367188 18.136719 69.367188 L 69.421875 69.367188 C 69.972656 69.367188 70.417969 69.8125 70.417969 70.363281 C 70.417969 70.910156 69.972656 71.359375 69.421875 71.359375 Z M 69.421875 71.359375 " fill-opacity="1" fill-rule="nonzero"/><path fill="#207ea2" d="M 68.96875 77.882812 L 18.136719 77.882812 C 17.585938 77.882812 17.140625 77.4375 17.140625 76.886719 C 17.140625 76.335938 17.585938 75.890625 18.136719 75.890625 L 68.96875 75.890625 C 69.519531 75.890625 69.964844 76.335938 69.964844 76.886719 C 69.964844 77.4375 69.519531 77.882812 68.96875 77.882812 Z M 68.96875 77.882812 " fill-opacity="1" fill-rule="nonzero"/><path fill="#207ea2" d="M 69.253906 84.40625 L 18.136719 84.40625 C 17.585938 84.40625 17.140625 83.960938 17.140625 83.410156 C 17.140625 82.859375 17.585938 82.414062 18.136719 82.414062 L 69.253906 82.414062 C 69.804688 82.414062 70.25 82.859375 70.25 83.410156 C 70.25 83.960938 69.804688 84.40625 69.253906 84.40625 Z M 69.253906 84.40625 " fill-opacity="1" fill-rule="nonzero"/><path fill="#207ea2" d="M 71.027344 90.929688 L 18.136719 90.929688 C 17.585938 90.929688 17.140625 90.484375 17.140625 89.933594 C 17.140625 89.382812 17.585938 88.9375 18.136719 88.9375 L 71.027344 88.9375 C 71.578125 88.9375 72.023438 89.382812 72.023438 89.933594 C 72.023438 90.484375 71.578125 90.929688 71.027344 90.929688 Z M 71.027344 90.929688 " fill-opacity="1" fill-rule="nonzero"/><path fill="#207ea2" d="M 36.117188 27.570312 L 26.050781 27.570312 C 25.5 27.570312 25.054688 27.125 25.054688 26.574219 C 25.054688 26.027344 25.5 25.582031 26.050781 25.582031 L 36.117188 25.582031 C 36.667969 25.582031 37.113281 26.027344 37.113281 26.574219 C 37.113281 27.125 36.667969 27.570312 36.117188 27.570312 Z M 36.117188 27.570312 " fill-opacity="1" fill-rule="nonzero"/><path fill="#207ea2" d="M 36.117188 31.90625 L 18.167969 31.90625 C 17.617188 31.90625 17.171875 31.460938 17.171875 30.910156 C 17.171875 30.359375 17.617188 29.914062 18.167969 29.914062 L 36.117188 29.914062 C 36.667969 29.914062 37.113281 30.359375 37.113281 30.910156 C 37.113281 31.460938 36.667969 31.90625 36.117188 31.90625 Z M 36.117188 31.90625 " fill-opacity="1" fill-rule="nonzero"/><path fill="#207ea2" d="M 36.117188 36.242188 L 15.980469 36.242188 C 15.433594 36.242188 14.988281 35.796875 14.988281 35.246094 C 14.988281 34.695312 15.433594 34.25 15.980469 34.25 L 36.117188 34.25 C 36.667969 34.25 37.113281 34.695312 37.113281 35.246094 C 37.113281 35.796875 36.667969 36.242188 36.117188 36.242188 Z M 36.117188 36.242188 " fill-opacity="1" fill-rule="nonzero"/><path fill="#207ea2" d="M 36.117188 40.578125 L 15.980469 40.578125 C 15.433594 40.578125 14.988281 40.128906 14.988281 39.582031 C 14.988281 39.03125 15.433594 38.585938 15.980469 38.585938 L 36.117188 38.585938 C 36.667969 38.585938 37.113281 39.03125 37.113281 39.582031 C 37.113281 40.128906 36.667969 40.578125 36.117188 40.578125 Z M 36.117188 40.578125 " fill-opacity="1" fill-rule="nonzero"/><path fill="#207ea2" d="M 36.117188 44.910156 L 15.980469 44.910156 C 15.433594 44.910156 14.988281 44.464844 14.988281 43.917969 C 14.988281 43.367188 15.433594 42.921875 15.980469 42.921875 L 36.117188 42.921875 C 36.667969 42.921875 37.113281 43.367188 37.113281 43.917969 C 37.113281 44.464844 36.667969 44.910156 36.117188 44.910156 Z M 36.117188 44.910156 " fill-opacity="1" fill-rule="nonzero"/><g clip-path="url(#52556af640)"><path fill="#207ea2" d="M 69.117188 84.503906 C 68.964844 84.503906 68.8125 84.46875 68.667969 84.398438 C 68.339844 84.234375 68.128906 83.898438 68.121094 83.53125 L 67.855469 71.527344 C 67.851562 71.363281 67.886719 71.203125 67.960938 71.058594 L 87.980469 31.226562 C 89.621094 27.964844 93.609375 26.640625 96.875 28.28125 C 98.453125 29.078125 99.632812 30.441406 100.1875 32.121094 C 100.746094 33.800781 100.613281 35.597656 99.820312 37.179688 L 79.800781 77.007812 C 79.726562 77.152344 79.617188 77.277344 79.484375 77.375 L 69.691406 84.320312 C 69.519531 84.441406 69.320312 84.503906 69.117188 84.503906 Z M 69.847656 71.730469 L 70.070312 81.613281 L 78.132812 75.894531 L 98.039062 36.285156 C 98.597656 35.179688 98.6875 33.921875 98.296875 32.746094 C 97.910156 31.570312 97.085938 30.617188 95.980469 30.0625 C 93.695312 28.914062 90.90625 29.835938 89.757812 32.121094 Z M 78.910156 76.5625 Z M 78.910156 76.5625 " fill-opacity="1" fill-rule="nonzero"/></g><path fill="#207ea2" d="M 78.910156 77.558594 C 78.757812 77.558594 78.605469 77.523438 78.464844 77.449219 L 68.402344 72.394531 C 67.910156 72.148438 67.710938 71.550781 67.960938 71.058594 C 68.207031 70.566406 68.804688 70.367188 69.296875 70.617188 L 79.359375 75.671875 C 79.847656 75.917969 80.046875 76.515625 79.800781 77.007812 C 79.625 77.355469 79.273438 77.558594 78.910156 77.558594 Z M 78.910156 77.558594 " fill-opacity="1" fill-rule="nonzero"/><path fill="#207ea2" d="M 97.886719 39.796875 C 97.738281 39.796875 97.585938 39.765625 97.441406 39.691406 L 87.378906 34.636719 C 86.890625 34.386719 86.691406 33.789062 86.9375 33.300781 C 87.183594 32.808594 87.78125 32.609375 88.273438 32.855469 L 98.335938 37.914062 C 98.828125 38.160156 99.023438 38.757812 98.777344 39.25 C 98.601562 39.597656 98.25 39.796875 97.886719 39.796875 Z M 97.886719 39.796875 " fill-opacity="1" fill-rule="nonzero"/></svg>