<svg xmlns="http://www.w3.org/2000/svg" xmlns:xlink="http://www.w3.org/1999/xlink" width="150" zoomAndPan="magnify" viewBox="0 0 112.5 112.499997" height="150" preserveAspectRatio="xMidYMid meet" version="1.0"><defs><clipPath id="54d71ad083"><path d="M 36 85 L 76 85 L 76 100.519531 L 36 100.519531 Z M 36 85 " clip-rule="nonzero"/></clipPath><clipPath id="dcebb87874"><path d="M 11.480469 10.917969 L 101 10.917969 L 101 78 L 11.480469 78 Z M 11.480469 10.917969 " clip-rule="nonzero"/></clipPath><clipPath id="917ddbe543"><path d="M 11.480469 67 L 101 67 L 101 71 L 11.480469 71 Z M 11.480469 67 " clip-rule="nonzero"/></clipPath><clipPath id="4bc696e69a"><path d="M 11.480469 49 L 37 49 L 37 64 L 11.480469 64 Z M 11.480469 49 " clip-rule="nonzero"/></clipPath></defs><g clip-path="url(#54d71ad083)"><path fill="#207ea2" d="M 68.945312 100.800781 L 43.300781 100.800781 C 42.878906 100.800781 42.480469 100.609375 42.195312 100.304688 L 36.605469 93.917969 C 36.128906 93.363281 36.128906 92.542969 36.605469 91.992188 L 42.195312 85.605469 C 42.480469 85.28125 42.878906 85.109375 43.300781 85.109375 L 50.660156 85.109375 C 51.460938 85.109375 52.128906 85.757812 52.128906 86.578125 C 52.128906 87.394531 51.480469 88.042969 50.660156 88.042969 L 43.96875 88.042969 L 39.65625 92.964844 L 43.96875 97.882812 L 68.277344 97.882812 L 72.566406 92.964844 L 68.277344 88.042969 L 61.585938 88.042969 C 60.785156 88.042969 60.117188 87.394531 60.117188 86.578125 C 60.117188 85.757812 60.765625 85.109375 61.585938 85.109375 L 68.945312 85.109375 C 69.363281 85.109375 69.765625 85.296875 70.050781 85.605469 L 75.636719 91.992188 C 76.113281 92.542969 76.113281 93.363281 75.636719 93.917969 L 70.050781 100.304688 C 69.785156 100.609375 69.382812 100.800781 68.945312 100.800781 Z M 68.945312 100.800781 " fill-opacity="1" fill-rule="nonzero"/></g><path fill="#207ea2" d="M 61.605469 94.414062 L 50.660156 94.414062 C 49.859375 94.414062 49.191406 93.765625 49.191406 92.945312 L 49.191406 75.9375 C 49.191406 75.136719 49.839844 74.46875 50.660156 74.46875 C 51.480469 74.46875 52.128906 75.117188 52.128906 75.9375 L 52.128906 91.476562 L 60.136719 91.476562 L 60.136719 75.9375 C 60.136719 75.136719 60.785156 74.46875 61.605469 74.46875 C 62.421875 74.46875 63.070312 75.117188 63.070312 75.9375 L 63.070312 92.945312 C 63.070312 93.765625 62.40625 94.414062 61.605469 94.414062 Z M 61.605469 94.414062 " fill-opacity="1" fill-rule="nonzero"/><g clip-path="url(#dcebb87874)"><path fill="#207ea2" d="M 96.6875 77.40625 L 15.574219 77.40625 C 13.34375 77.40625 11.535156 75.59375 11.535156 73.363281 L 11.535156 14.960938 C 11.535156 12.730469 13.34375 10.917969 15.574219 10.917969 L 96.707031 10.917969 C 98.9375 10.917969 100.75 12.730469 100.75 14.960938 L 100.75 73.363281 C 100.730469 75.59375 98.917969 77.40625 96.6875 77.40625 Z M 15.574219 13.855469 C 14.984375 13.855469 14.46875 14.371094 14.46875 14.960938 L 14.46875 73.363281 C 14.46875 73.972656 14.964844 74.46875 15.574219 74.46875 L 96.707031 74.46875 C 97.316406 74.46875 97.8125 73.972656 97.8125 73.363281 L 97.8125 14.960938 C 97.8125 14.351562 97.316406 13.855469 96.707031 13.855469 Z M 15.574219 13.855469 " fill-opacity="1" fill-rule="nonzero"/></g><g clip-path="url(#917ddbe543)"><path fill="#207ea2" d="M 99.261719 70.007812 L 13.003906 70.007812 C 12.203125 70.007812 11.535156 69.359375 11.535156 68.539062 C 11.535156 67.71875 12.183594 67.070312 13.003906 67.070312 L 99.261719 67.070312 C 100.0625 67.070312 100.730469 67.71875 100.730469 68.539062 C 100.730469 69.359375 100.0625 70.007812 99.261719 70.007812 Z M 99.261719 70.007812 " fill-opacity="1" fill-rule="nonzero"/></g><path fill="#207ea2" d="M 99.261719 63.007812 L 77.640625 63.007812 C 76.839844 63.007812 76.171875 62.359375 76.171875 61.542969 L 76.171875 51.472656 C 76.171875 50.671875 76.820312 50.003906 77.640625 50.003906 L 99.261719 50.003906 C 100.0625 50.003906 100.730469 50.652344 100.730469 51.472656 C 100.730469 52.292969 100.082031 52.941406 99.261719 52.941406 L 79.105469 52.941406 L 79.105469 60.09375 L 99.261719 60.09375 C 100.0625 60.09375 100.730469 60.742188 100.730469 61.558594 C 100.730469 62.378906 100.0625 63.007812 99.261719 63.007812 Z M 99.261719 63.007812 " fill-opacity="1" fill-rule="nonzero"/><path fill="#207ea2" d="M 77.640625 63.007812 C 77.429688 63.007812 77.199219 62.972656 77.011719 62.855469 L 66.582031 57.824219 C 66.066406 57.574219 65.761719 57.0625 65.761719 56.507812 C 65.761719 55.953125 66.085938 55.441406 66.582031 55.191406 L 77.011719 50.160156 C 77.734375 49.816406 78.613281 50.121094 78.972656 50.84375 C 79.316406 51.570312 79.011719 52.445312 78.289062 52.808594 L 70.585938 56.507812 L 78.289062 60.226562 C 79.011719 60.570312 79.316406 61.445312 78.972656 62.191406 C 78.707031 62.703125 78.171875 63.007812 77.640625 63.007812 Z M 77.640625 63.007812 " fill-opacity="1" fill-rule="nonzero"/><g clip-path="url(#4bc696e69a)"><path fill="#207ea2" d="M 34.625 63.007812 L 13.003906 63.007812 C 12.203125 63.007812 11.535156 62.359375 11.535156 61.542969 C 11.535156 60.722656 12.183594 60.074219 13.003906 60.074219 L 33.15625 60.074219 L 33.15625 52.921875 L 13.003906 52.921875 C 12.203125 52.921875 11.535156 52.273438 11.535156 51.453125 C 11.535156 50.636719 12.183594 49.988281 13.003906 49.988281 L 34.625 49.988281 C 35.425781 49.988281 36.09375 50.636719 36.09375 51.453125 L 36.09375 61.523438 C 36.09375 62.359375 35.425781 63.007812 34.625 63.007812 Z M 34.625 63.007812 " fill-opacity="1" fill-rule="nonzero"/></g><path fill="#207ea2" d="M 34.625 63.007812 C 34.070312 63.007812 33.554688 62.703125 33.308594 62.191406 C 32.964844 61.464844 33.269531 60.589844 33.996094 60.226562 L 41.699219 56.507812 L 33.996094 52.789062 C 33.269531 52.445312 32.964844 51.570312 33.308594 50.824219 C 33.652344 50.101562 34.527344 49.796875 35.273438 50.140625 L 45.703125 55.171875 C 46.214844 55.421875 46.523438 55.9375 46.523438 56.488281 C 46.523438 57.042969 46.199219 57.554688 45.703125 57.804688 L 35.273438 62.835938 C 35.0625 62.972656 34.832031 63.007812 34.625 63.007812 Z M 34.625 63.007812 " fill-opacity="1" fill-rule="nonzero"/><path fill="#207ea2" d="M 87.097656 26.800781 L 25.167969 26.800781 C 24.367188 26.800781 23.699219 26.152344 23.699219 25.332031 L 23.699219 19.402344 C 23.699219 18.601562 24.347656 17.933594 25.167969 17.933594 L 87.117188 17.933594 C 87.917969 17.933594 88.582031 18.582031 88.582031 19.402344 L 88.582031 25.351562 C 88.566406 26.152344 87.898438 26.800781 87.097656 26.800781 Z M 26.617188 23.863281 L 85.628906 23.863281 L 85.628906 20.871094 L 26.617188 20.871094 Z M 26.617188 23.863281 " fill-opacity="1" fill-rule="nonzero"/><path fill="#207ea2" d="M 81.585938 33.855469 L 30.675781 33.855469 C 29.875 33.855469 29.210938 33.207031 29.210938 32.386719 C 29.210938 31.566406 29.855469 30.917969 30.675781 30.917969 L 81.585938 30.917969 C 82.386719 30.917969 83.054688 31.566406 83.054688 32.386719 C 83.054688 33.207031 82.386719 33.855469 81.585938 33.855469 Z M 81.585938 33.855469 " fill-opacity="1" fill-rule="nonzero"/><path fill="#207ea2" d="M 81.585938 40.054688 L 30.675781 40.054688 C 29.875 40.054688 29.210938 39.40625 29.210938 38.585938 C 29.210938 37.765625 29.855469 37.117188 30.675781 37.117188 L 81.585938 37.117188 C 82.386719 37.117188 83.054688 37.765625 83.054688 38.585938 C 83.054688 39.40625 82.386719 40.054688 81.585938 40.054688 Z M 81.585938 40.054688 " fill-opacity="1" fill-rule="nonzero"/><path fill="#207ea2" d="M 81.585938 46.230469 L 30.675781 46.230469 C 29.875 46.230469 29.210938 45.582031 29.210938 44.761719 C 29.210938 43.941406 29.855469 43.292969 30.675781 43.292969 L 81.585938 43.292969 C 82.386719 43.292969 83.054688 43.941406 83.054688 44.761719 C 83.054688 45.582031 82.386719 46.230469 81.585938 46.230469 Z M 81.585938 46.230469 " fill-opacity="1" fill-rule="nonzero"/><path fill="#207ea2" d="M 65.855469 52.425781 L 46.386719 52.425781 C 45.585938 52.425781 44.921875 51.777344 44.921875 50.960938 C 44.921875 50.140625 45.570312 49.492188 46.386719 49.492188 L 65.855469 49.492188 C 66.65625 49.492188 67.324219 50.140625 67.324219 50.960938 C 67.324219 51.777344 66.675781 52.425781 65.855469 52.425781 Z M 65.855469 52.425781 " fill-opacity="1" fill-rule="nonzero"/><path fill="#207ea2" d="M 61.109375 58.605469 L 51.136719 58.605469 C 50.335938 58.605469 49.667969 57.957031 49.667969 57.136719 C 49.667969 56.316406 50.316406 55.667969 51.136719 55.667969 L 61.109375 55.667969 C 61.910156 55.667969 62.578125 56.316406 62.578125 57.136719 C 62.578125 57.957031 61.929688 58.605469 61.109375 58.605469 Z M 61.109375 58.605469 " fill-opacity="1" fill-rule="nonzero"/></svg>