<svg xmlns="http://www.w3.org/2000/svg" xmlns:xlink="http://www.w3.org/1999/xlink" width="150" zoomAndPan="magnify" viewBox="0 0 112.5 112.499997" height="150" preserveAspectRatio="xMidYMid meet" version="1.0"><defs><clipPath id="93e7ddd0fa"><path d="M 11.199219 9.453125 L 100 9.453125 L 100 102.789062 L 11.199219 102.789062 Z M 11.199219 9.453125 " clip-rule="nonzero"/></clipPath></defs><path fill="#207ea2" d="M 19.023438 27.195312 L 44.980469 27.195312 C 45.457031 27.195312 45.839844 26.808594 45.839844 26.335938 C 45.839844 25.863281 45.457031 25.476562 44.980469 25.476562 L 19.023438 25.476562 C 18.546875 25.476562 18.164062 25.863281 18.164062 26.335938 C 18.164062 26.808594 18.546875 27.195312 19.023438 27.195312 Z M 19.023438 27.195312 " fill-opacity="1" fill-rule="nonzero"/><path fill="#207ea2" d="M 19.023438 32.71875 L 62.609375 32.71875 C 63.082031 32.71875 63.46875 32.332031 63.46875 31.859375 C 63.46875 31.386719 63.082031 31 62.609375 31 L 19.023438 31 C 18.546875 31 18.164062 31.386719 18.164062 31.859375 C 18.164062 32.332031 18.546875 32.71875 19.023438 32.71875 Z M 19.023438 32.71875 " fill-opacity="1" fill-rule="nonzero"/><path fill="#207ea2" d="M 19.023438 38.242188 L 62.609375 38.242188 C 63.082031 38.242188 63.46875 37.859375 63.46875 37.382812 C 63.46875 36.910156 63.082031 36.523438 62.609375 36.523438 L 19.023438 36.523438 C 18.546875 36.523438 18.164062 36.910156 18.164062 37.382812 C 18.164062 37.859375 18.546875 38.242188 19.023438 38.242188 Z M 19.023438 38.242188 " fill-opacity="1" fill-rule="nonzero"/><path fill="#207ea2" d="M 19.023438 43.765625 L 62.609375 43.765625 C 63.082031 43.765625 63.46875 43.382812 63.46875 42.910156 C 63.46875 42.433594 63.082031 42.050781 62.609375 42.050781 L 19.023438 42.050781 C 18.546875 42.050781 18.164062 42.433594 18.164062 42.910156 C 18.164062 43.382812 18.546875 43.765625 19.023438 43.765625 Z M 19.023438 43.765625 " fill-opacity="1" fill-rule="nonzero"/><path fill="#207ea2" d="M 19.023438 49.292969 L 62.609375 49.292969 C 63.082031 49.292969 63.46875 48.90625 63.46875 48.433594 C 63.46875 47.957031 63.082031 47.574219 62.609375 47.574219 L 19.023438 47.574219 C 18.546875 47.574219 18.164062 47.957031 18.164062 48.433594 C 18.164062 48.90625 18.546875 49.292969 19.023438 49.292969 Z M 19.023438 49.292969 " fill-opacity="1" fill-rule="nonzero"/><path fill="#207ea2" d="M 19.023438 55.503906 L 44.980469 55.503906 C 45.457031 55.503906 45.839844 55.121094 45.839844 54.644531 C 45.839844 54.171875 45.457031 53.789062 44.980469 53.789062 L 19.023438 53.789062 C 18.546875 53.789062 18.164062 54.171875 18.164062 54.644531 C 18.164062 55.121094 18.546875 55.503906 19.023438 55.503906 Z M 19.023438 55.503906 " fill-opacity="1" fill-rule="nonzero"/><path fill="#207ea2" d="M 70.1875 55.585938 C 60.949219 55.585938 53.425781 63.109375 53.425781 72.332031 C 53.425781 81.558594 60.949219 89.097656 70.1875 89.097656 C 79.429688 89.097656 86.933594 81.574219 86.933594 72.332031 C 86.933594 63.09375 79.410156 55.585938 70.1875 55.585938 Z M 70.1875 87.378906 C 61.890625 87.378906 55.140625 80.628906 55.140625 72.332031 C 55.140625 64.039062 61.890625 57.304688 70.1875 57.304688 C 78.484375 57.304688 85.214844 64.054688 85.214844 72.332031 C 85.214844 80.613281 78.464844 87.378906 70.1875 87.378906 Z M 70.1875 87.378906 " fill-opacity="1" fill-rule="nonzero"/><g clip-path="url(#93e7ddd0fa)"><path fill="#207ea2" d="M 95.023438 102.527344 C 96.105469 102.527344 97.1875 102.117188 98.011719 101.292969 L 98.714844 100.585938 C 100.347656 98.957031 100.332031 96.292969 98.699219 94.644531 L 88.066406 84.011719 C 90.316406 80.59375 91.554688 76.558594 91.554688 72.351562 C 91.554688 66.011719 88.789062 60.105469 83.960938 56.050781 L 83.960938 10.332031 C 83.960938 9.867188 83.585938 9.472656 83.105469 9.472656 L 18.300781 9.472656 C 17.835938 9.472656 17.441406 9.867188 17.441406 10.332031 L 17.441406 15.207031 L 12.582031 15.207031 C 12.101562 15.207031 11.722656 15.601562 11.722656 16.066406 L 11.722656 95.367188 C 11.722656 95.847656 12.101562 96.222656 12.582031 96.222656 L 77.382812 96.222656 C 77.867188 96.222656 78.242188 95.847656 78.242188 95.367188 L 78.242188 92.121094 C 79.359375 91.65625 80.390625 91.140625 81.316406 90.554688 L 92.050781 101.292969 C 92.875 102.117188 93.957031 102.527344 95.023438 102.527344 Z M 76.527344 94.507812 L 13.441406 94.507812 L 13.441406 16.925781 L 76.527344 16.925781 L 76.527344 51.910156 C 76.40625 51.878906 76.269531 51.859375 76.148438 51.808594 C 75.941406 51.757812 75.71875 51.707031 75.511719 51.636719 C 75.152344 51.550781 74.773438 51.464844 74.394531 51.398438 C 74.191406 51.34375 73.964844 51.3125 73.761719 51.257812 C 73.347656 51.207031 72.953125 51.15625 72.539062 51.105469 C 72.351562 51.085938 72.164062 51.054688 71.972656 51.035156 C 71.390625 50.984375 70.789062 50.96875 70.1875 50.96875 C 63.300781 50.96875 57.1875 54.246094 53.269531 59.316406 L 19.023438 59.316406 C 18.542969 59.316406 18.164062 59.691406 18.164062 60.171875 C 18.164062 60.636719 18.542969 61.03125 19.023438 61.03125 L 52.085938 61.03125 C 51.328125 62.21875 50.695312 63.488281 50.195312 64.828125 L 19.023438 64.828125 C 18.542969 64.828125 18.164062 65.207031 18.164062 65.6875 C 18.164062 66.167969 18.542969 66.546875 19.023438 66.546875 L 49.628906 66.546875 C 49.285156 67.78125 49.027344 69.054688 48.90625 70.359375 L 19.023438 70.359375 C 18.542969 70.359375 18.164062 70.753906 18.164062 71.21875 C 18.164062 71.699219 18.542969 72.074219 19.023438 72.074219 L 48.820312 72.074219 C 48.820312 72.179688 48.804688 72.246094 48.804688 72.351562 C 48.804688 73.554688 48.925781 74.738281 49.132812 75.890625 L 19.023438 75.890625 C 18.542969 75.890625 18.164062 76.265625 18.164062 76.746094 C 18.164062 77.210938 18.542969 77.605469 19.023438 77.605469 L 49.492188 77.605469 C 51.84375 86.847656 60.210938 93.71875 70.1875 93.71875 C 70.789062 93.71875 71.390625 93.699219 71.972656 93.648438 C 72.179688 93.632812 72.371094 93.597656 72.558594 93.578125 C 72.953125 93.527344 73.347656 93.476562 73.761719 93.425781 C 73.964844 93.375 74.191406 93.339844 74.414062 93.289062 C 74.773438 93.21875 75.132812 93.132812 75.496094 93.046875 C 75.71875 92.976562 75.941406 92.925781 76.164062 92.859375 C 76.285156 92.824219 76.40625 92.804688 76.527344 92.773438 Z M 80.714844 88.925781 C 79.667969 89.628906 78.433594 90.246094 77.074219 90.761719 C 74.894531 91.585938 72.574219 92 70.1875 92 C 59.351562 92 50.523438 83.1875 50.523438 72.351562 C 50.523438 61.511719 59.351562 52.683594 70.1875 52.683594 C 72.574219 52.683594 74.894531 53.097656 77.09375 53.921875 C 79.085938 54.675781 80.941406 55.742188 82.570312 57.097656 C 87.191406 60.84375 89.835938 66.390625 89.835938 72.351562 C 89.835938 78.3125 87.191406 83.839844 82.554688 87.601562 C 82.023438 88.050781 81.421875 88.476562 80.714844 88.925781 Z M 83.652344 88.925781 C 84.941406 87.894531 86.074219 86.710938 87.070312 85.4375 L 97.480469 95.863281 C 98.457031 96.824219 98.457031 98.40625 97.496094 99.367188 L 96.792969 100.070312 C 95.8125 101.050781 94.234375 101.050781 93.273438 100.070312 L 82.777344 89.59375 C 83.085938 89.371094 83.378906 89.148438 83.652344 88.925781 Z M 83.652344 88.925781 " fill-opacity="1" fill-rule="nonzero"/></g><path fill="#207ea2" d="M 61.824219 80.816406 L 64.175781 80.800781 L 64.175781 70.289062 L 61.804688 70.308594 Z M 61.824219 80.816406 " fill-opacity="1" fill-rule="nonzero"/><path fill="#207ea2" d="M 77.949219 70.375 L 73.125 70.375 C 72.78125 70.375 72.472656 70.167969 72.335938 69.859375 C 72.199219 69.550781 72.265625 69.191406 72.488281 68.933594 C 73.367188 67.972656 73.554688 66.546875 73.554688 65.53125 C 73.554688 64.964844 73.332031 64.449219 72.9375 64.039062 C 72.695312 63.796875 72.402344 63.625 72.09375 63.503906 C 71.855469 66.132812 70.890625 67.695312 70.308594 68.433594 C 70 68.796875 69.722656 69.171875 69.433594 69.535156 C 68.539062 70.703125 67.320312 71.40625 65.894531 71.648438 L 65.894531 79.683594 C 66.734375 79.855469 67.542969 80.097656 68.316406 80.476562 C 69.433594 81.023438 70.652344 81.300781 71.886719 81.300781 L 77.949219 81.300781 C 78.15625 81.300781 78.292969 81.195312 78.363281 81.128906 C 78.414062 81.074219 78.535156 80.921875 78.535156 80.714844 C 78.535156 80.390625 78.277344 80.132812 77.949219 80.132812 L 77.382812 80.132812 C 76.921875 80.132812 76.527344 79.753906 76.527344 79.273438 C 76.527344 78.792969 76.921875 78.414062 77.382812 78.414062 L 77.949219 78.414062 C 78.277344 78.414062 78.535156 78.15625 78.535156 77.828125 L 78.535156 77.570312 C 78.535156 77.261719 78.277344 76.988281 77.949219 76.988281 L 77.726562 76.988281 C 77.246094 76.988281 76.867188 76.609375 76.867188 76.128906 C 76.867188 75.664062 77.246094 75.269531 77.726562 75.269531 L 77.949219 75.269531 C 78.277344 75.269531 78.535156 75.011719 78.535156 74.703125 L 78.535156 74.359375 C 78.535156 74.035156 78.277344 73.777344 77.949219 73.777344 L 77.726562 73.777344 C 77.246094 73.777344 76.867188 73.382812 76.867188 72.917969 C 76.867188 72.4375 77.246094 72.058594 77.726562 72.058594 L 77.949219 72.058594 C 78.277344 72.058594 78.535156 71.785156 78.535156 71.476562 L 78.535156 70.960938 C 78.535156 70.632812 78.277344 70.375 77.949219 70.375 Z M 77.949219 70.375 " fill-opacity="1" fill-rule="nonzero"/></svg>