<svg xmlns="http://www.w3.org/2000/svg" xmlns:xlink="http://www.w3.org/1999/xlink" width="75" zoomAndPan="magnify" viewBox="0 0 56.25 56.249997" height="75" preserveAspectRatio="xMidYMid meet" version="1.0"><defs><clipPath id="91c21e360d"><path d="M 5.550781 5.550781 L 49.957031 5.550781 L 49.957031 49.957031 L 5.550781 49.957031 Z M 5.550781 5.550781 " clip-rule="nonzero"/></clipPath></defs><g clip-path="url(#91c21e360d)"><path fill="#207ea2" d="M 39.566406 39.566406 C 36.507812 42.621094 32.648438 44.300781 28.363281 44.449219 L 28.363281 41.300781 C 31.796875 41.15625 34.890625 39.796875 37.34375 37.34375 C 39.796875 34.890625 41.15625 31.796875 41.300781 28.363281 L 44.449219 28.363281 C 44.300781 32.648438 42.621094 36.507812 39.566406 39.566406 Z M 15.945312 39.566406 C 12.886719 36.507812 11.207031 32.648438 11.0625 28.363281 L 14.207031 28.363281 C 14.351562 31.796875 15.714844 34.890625 18.167969 37.34375 C 20.621094 39.796875 23.714844 41.15625 27.144531 41.300781 L 27.144531 44.449219 C 22.863281 44.300781 19 42.621094 15.945312 39.566406 Z M 15.945312 15.945312 C 19 12.886719 22.863281 11.207031 27.144531 11.0625 L 27.144531 14.207031 C 23.714844 14.351562 20.621094 15.714844 18.167969 18.167969 C 15.714844 20.621094 14.351562 23.714844 14.207031 27.144531 L 11.0625 27.144531 C 11.207031 22.863281 12.886719 19 15.945312 15.945312 Z M 38.199219 28.363281 L 40.082031 28.363281 C 39.9375 31.464844 38.699219 34.261719 36.480469 36.480469 C 34.261719 38.699219 31.464844 39.9375 28.363281 40.082031 L 28.363281 38.199219 C 28.363281 37.859375 28.089844 37.589844 27.753906 37.589844 C 27.417969 37.589844 27.144531 37.859375 27.144531 38.199219 L 27.144531 40.082031 C 24.042969 39.9375 21.25 38.699219 19.027344 36.480469 C 16.808594 34.261719 15.570312 31.464844 15.429688 28.363281 L 17.3125 28.363281 C 17.648438 28.363281 17.921875 28.089844 17.921875 27.753906 C 17.921875 27.417969 17.648438 27.144531 17.3125 27.144531 L 15.429688 27.144531 C 15.570312 24.042969 16.808594 21.25 19.027344 19.027344 C 21.25 16.808594 24.042969 15.570312 27.144531 15.429688 L 27.144531 17.3125 C 27.144531 17.648438 27.417969 17.921875 27.753906 17.921875 C 28.089844 17.921875 28.363281 17.648438 28.363281 17.3125 L 28.363281 15.429688 C 31.464844 15.570312 34.261719 16.808594 36.480469 19.027344 C 38.699219 21.25 39.9375 24.042969 40.082031 27.144531 L 38.199219 27.144531 C 37.859375 27.144531 37.589844 27.417969 37.589844 27.753906 C 37.589844 28.089844 37.859375 28.363281 38.199219 28.363281 Z M 39.566406 15.945312 C 42.621094 19 44.300781 22.863281 44.449219 27.144531 L 41.300781 27.144531 C 41.15625 23.714844 39.796875 20.621094 37.34375 18.167969 C 34.890625 15.714844 31.796875 14.351562 28.363281 14.207031 L 28.363281 11.0625 C 32.648438 11.207031 36.507812 12.886719 39.566406 15.945312 Z M 49.347656 27.144531 L 45.667969 27.144531 C 45.523438 22.53125 43.71875 18.371094 40.429688 15.082031 C 37.136719 11.792969 32.976562 9.988281 28.363281 9.84375 L 28.363281 6.160156 C 28.363281 5.824219 28.089844 5.550781 27.753906 5.550781 C 27.417969 5.550781 27.144531 5.824219 27.144531 6.160156 L 27.144531 9.84375 C 22.53125 9.988281 18.371094 11.792969 15.082031 15.082031 C 11.792969 18.371094 9.988281 22.53125 9.84375 27.144531 L 6.160156 27.144531 C 5.824219 27.144531 5.550781 27.417969 5.550781 27.753906 C 5.550781 28.089844 5.824219 28.363281 6.160156 28.363281 L 9.84375 28.363281 C 9.988281 32.976562 11.792969 37.136719 15.082031 40.429688 C 18.371094 43.71875 22.53125 45.523438 27.144531 45.667969 L 27.144531 49.347656 C 27.144531 49.6875 27.417969 49.957031 27.753906 49.957031 C 28.089844 49.957031 28.363281 49.6875 28.363281 49.347656 L 28.363281 45.667969 C 32.976562 45.523438 37.136719 43.71875 40.429688 40.429688 C 43.71875 37.136719 45.523438 32.976562 45.667969 28.363281 L 49.347656 28.363281 C 49.6875 28.363281 49.957031 28.089844 49.957031 27.753906 C 49.957031 27.417969 49.6875 27.144531 49.347656 27.144531 " fill-opacity="1" fill-rule="nonzero"/></g><path fill="#207ea2" d="M 23.890625 27.628906 C 23.714844 27.503906 23.496094 27.398438 23.246094 27.308594 C 23 27.222656 22.722656 27.144531 22.417969 27.074219 L 22.414062 27.074219 C 22.175781 27.011719 22 26.964844 21.894531 26.933594 C 21.796875 26.902344 21.695312 26.859375 21.59375 26.804688 C 21.5 26.753906 21.425781 26.691406 21.371094 26.621094 C 21.320312 26.550781 21.292969 26.46875 21.292969 26.375 C 21.292969 26.21875 21.371094 26.089844 21.527344 25.976562 C 21.691406 25.859375 21.910156 25.800781 22.175781 25.800781 C 22.464844 25.800781 22.675781 25.855469 22.800781 25.957031 C 22.933594 26.066406 23.046875 26.21875 23.140625 26.414062 L 23.140625 26.417969 C 23.222656 26.566406 23.292969 26.671875 23.363281 26.738281 C 23.441406 26.8125 23.550781 26.847656 23.6875 26.847656 C 23.839844 26.847656 23.976562 26.789062 24.078125 26.671875 C 24.179688 26.558594 24.230469 26.425781 24.230469 26.285156 C 24.230469 26.132812 24.191406 25.976562 24.113281 25.820312 C 24.035156 25.664062 23.914062 25.515625 23.75 25.375 C 23.585938 25.234375 23.375 25.121094 23.128906 25.035156 C 22.882812 24.953125 22.585938 24.910156 22.25 24.910156 C 21.832031 24.910156 21.460938 24.972656 21.148438 25.097656 C 20.832031 25.226562 20.585938 25.414062 20.421875 25.652344 C 20.25 25.890625 20.167969 26.167969 20.167969 26.476562 C 20.167969 26.796875 20.246094 27.070312 20.40625 27.289062 C 20.566406 27.507812 20.78125 27.679688 21.050781 27.804688 C 21.316406 27.929688 21.648438 28.035156 22.035156 28.128906 C 22.320312 28.191406 22.554688 28.253906 22.722656 28.3125 C 22.886719 28.371094 23.019531 28.449219 23.125 28.554688 C 23.222656 28.65625 23.269531 28.785156 23.269531 28.949219 C 23.269531 29.160156 23.179688 29.328125 22.992188 29.46875 C 22.800781 29.609375 22.546875 29.683594 22.238281 29.683594 C 22.011719 29.683594 21.828125 29.648438 21.691406 29.578125 C 21.558594 29.507812 21.453125 29.417969 21.378906 29.3125 C 21.300781 29.199219 21.226562 29.058594 21.160156 28.894531 C 21.101562 28.738281 21.03125 28.625 20.941406 28.542969 C 20.851562 28.460938 20.742188 28.417969 20.609375 28.417969 C 20.453125 28.417969 20.320312 28.472656 20.21875 28.578125 C 20.117188 28.683594 20.0625 28.808594 20.0625 28.957031 C 20.0625 29.195312 20.144531 29.441406 20.300781 29.691406 C 20.460938 29.941406 20.667969 30.140625 20.921875 30.292969 C 21.273438 30.496094 21.726562 30.601562 22.265625 30.601562 C 22.714844 30.601562 23.109375 30.523438 23.441406 30.375 C 23.773438 30.222656 24.03125 30.011719 24.203125 29.742188 C 24.375 29.476562 24.464844 29.167969 24.464844 28.832031 C 24.464844 28.550781 24.414062 28.3125 24.3125 28.117188 C 24.210938 27.921875 24.070312 27.757812 23.890625 27.628906 " fill-opacity="1" fill-rule="nonzero"/><path fill="#207ea2" d="M 28.96875 29.523438 L 26.484375 29.523438 L 26.484375 28.105469 L 28.691406 28.105469 C 28.875 28.105469 29.015625 28.0625 29.105469 27.976562 C 29.195312 27.886719 29.246094 27.769531 29.246094 27.632812 C 29.246094 27.496094 29.195312 27.378906 29.101562 27.292969 C 29.011719 27.210938 28.871094 27.167969 28.691406 27.167969 L 26.484375 27.167969 L 26.484375 25.960938 L 28.886719 25.960938 C 29.074219 25.960938 29.21875 25.914062 29.3125 25.828125 C 29.410156 25.742188 29.457031 25.621094 29.457031 25.476562 C 29.457031 25.339844 29.410156 25.21875 29.3125 25.132812 C 29.21875 25.046875 29.074219 25 28.886719 25 L 26.003906 25 C 25.839844 25 25.703125 25.027344 25.597656 25.074219 C 25.484375 25.125 25.402344 25.207031 25.351562 25.320312 C 25.300781 25.425781 25.273438 25.5625 25.273438 25.730469 L 25.273438 29.78125 C 25.273438 30.03125 25.332031 30.21875 25.449219 30.332031 C 25.5625 30.449219 25.75 30.507812 26.003906 30.507812 L 28.96875 30.507812 C 29.15625 30.507812 29.300781 30.464844 29.398438 30.375 C 29.496094 30.285156 29.546875 30.164062 29.546875 30.019531 C 29.546875 29.875 29.496094 29.75 29.398438 29.660156 C 29.300781 29.570312 29.15625 29.523438 28.96875 29.523438 " fill-opacity="1" fill-rule="nonzero"/><path fill="#207ea2" d="M 34.019531 28.792969 C 33.886719 29.074219 33.707031 29.28125 33.484375 29.414062 C 33.257812 29.550781 33.015625 29.617188 32.742188 29.617188 C 32.535156 29.617188 32.339844 29.578125 32.167969 29.5 C 31.992188 29.421875 31.835938 29.304688 31.699219 29.148438 C 31.566406 28.992188 31.460938 28.792969 31.386719 28.554688 C 31.308594 28.3125 31.273438 28.039062 31.273438 27.738281 C 31.273438 27.445312 31.308594 27.171875 31.386719 26.9375 C 31.460938 26.699219 31.5625 26.503906 31.691406 26.355469 C 31.816406 26.203125 31.972656 26.089844 32.148438 26.011719 C 32.324219 25.933594 32.519531 25.894531 32.730469 25.894531 C 33.023438 25.894531 33.285156 25.964844 33.511719 26.105469 C 33.742188 26.25 33.914062 26.457031 34.035156 26.738281 C 34.160156 27.019531 34.222656 27.355469 34.222656 27.738281 C 34.222656 28.15625 34.15625 28.511719 34.019531 28.792969 Z M 34.199219 25.257812 C 33.789062 25.027344 33.296875 24.910156 32.730469 24.910156 C 32.3125 24.910156 31.933594 24.976562 31.605469 25.105469 C 31.273438 25.238281 30.988281 25.429688 30.757812 25.679688 C 30.53125 25.925781 30.351562 26.230469 30.230469 26.582031 C 30.109375 26.929688 30.046875 27.320312 30.046875 27.738281 C 30.046875 28.148438 30.105469 28.535156 30.222656 28.886719 C 30.339844 29.242188 30.511719 29.550781 30.742188 29.800781 C 30.96875 30.054688 31.257812 30.253906 31.597656 30.390625 C 31.933594 30.53125 32.324219 30.601562 32.75 30.601562 C 33.179688 30.601562 33.566406 30.53125 33.902344 30.398438 C 34.238281 30.261719 34.523438 30.066406 34.753906 29.808594 C 34.984375 29.554688 35.160156 29.25 35.273438 28.902344 C 35.386719 28.558594 35.445312 28.167969 35.445312 27.746094 C 35.445312 27.175781 35.339844 26.671875 35.132812 26.25 C 34.921875 25.824219 34.605469 25.488281 34.199219 25.257812 " fill-opacity="1" fill-rule="nonzero"/></svg>